<svg width="254" height="70" viewBox="0 0 254 70" fill="none" xmlns="http://www.w3.org/2000/svg">
<path d="M74 35C74 15.67 89.67 0 109 0L219 0C238.33 0 254 15.67 254 35V35C254 54.33 238.33 70 219 70L109 70C89.67 70 74 54.33 74 35V35Z" fill="#3A2020" fill-opacity="0.9"/>
<path d="M1.1795 47L11.5475 24.6H17.0195L27.3235 47H20.9235L15.5475 35.384C15.3342 34.8507 15.1315 34.36 14.9395 33.912C14.7475 33.4427 14.5662 33.0053 14.3955 32.6C14.2462 32.1733 14.0968 31.7467 13.9475 31.32C13.8195 30.8933 13.7022 30.456 13.5955 30.008L14.8115 29.976C14.6835 30.4453 14.5448 30.904 14.3955 31.352C14.2675 31.7787 14.1182 32.2053 13.9475 32.632C13.7768 33.0587 13.5955 33.496 13.4035 33.944C13.2115 34.3707 13.0088 34.8507 12.7955 35.384L7.4195 47H1.1795ZM6.1075 43.48L8.0595 39H20.4115L21.5955 43.48H6.1075ZM32.6965 47V24.6H44.6645C46.5418 24.6 48.1098 24.824 49.3685 25.272C50.6485 25.72 51.6192 26.3493 52.2805 27.16C52.9632 27.9707 53.3045 28.9307 53.3045 30.04C53.3045 31.3413 52.9525 32.4293 52.2485 33.304C51.5658 34.1787 50.5312 34.7867 49.1445 35.128L49.2085 34.52C50.1472 34.7333 51.0218 35.0853 51.8325 35.576C52.6432 36.0667 53.2832 36.6853 53.7525 37.432C54.2432 38.1787 54.4885 39.0853 54.4885 40.152C54.4885 41.4533 54.2112 42.5413 53.6565 43.416C53.1232 44.2907 52.4085 44.9947 51.5125 45.528C50.6165 46.04 49.6352 46.4133 48.5685 46.648C47.5018 46.8827 46.4245 47 45.3365 47H32.6965ZM38.6165 41.912H45.3365C45.9125 41.912 46.4245 41.8373 46.8725 41.688C47.3205 41.5173 47.6725 41.2827 47.9285 40.984C48.1845 40.664 48.3125 40.2693 48.3125 39.8C48.3125 39.2667 48.1525 38.8613 47.8325 38.584C47.5125 38.2853 47.1072 38.072 46.6165 37.944C46.1258 37.816 45.6458 37.752 45.1765 37.752H38.6165V41.912ZM38.6165 33.336H44.1845C44.8032 33.336 45.3258 33.2613 45.7525 33.112C46.1792 32.9627 46.5098 32.7493 46.7445 32.472C47.0005 32.1947 47.1285 31.864 47.1285 31.48C47.1285 30.8613 46.8512 30.4133 46.2965 30.136C45.7418 29.8373 45.0058 29.688 44.0885 29.688H38.6165V33.336ZM73.9175 47.32C71.9335 47.32 70.1095 47.032 68.4455 46.456C66.8028 45.8587 65.3735 45.0373 64.1575 43.992C62.9628 42.9467 62.0348 41.72 61.3735 40.312C60.7122 38.8827 60.3815 37.336 60.3815 35.672C60.3815 33.9867 60.7122 32.44 61.3735 31.032C62.0562 29.624 62.9948 28.3973 64.1895 27.352C65.4055 26.3067 66.8348 25.496 68.4775 24.92C70.1202 24.3227 71.9335 24.024 73.9175 24.024C75.9015 24.024 77.7148 24.312 79.3575 24.888C81.0002 25.464 82.4295 26.2853 83.6455 27.352C84.8615 28.3973 85.8002 29.624 86.4615 31.032C87.1228 32.44 87.4535 33.976 87.4535 35.64C87.4535 37.3253 87.1228 38.8827 86.4615 40.312C85.8002 41.72 84.8615 42.9573 83.6455 44.024C82.4295 45.0693 81.0002 45.88 79.3575 46.456C77.7148 47.032 75.9015 47.32 73.9175 47.32ZM73.9175 41.432C74.9415 41.432 75.8802 41.2933 76.7335 41.016C77.6082 40.7173 78.3655 40.312 79.0055 39.8C79.6455 39.2667 80.1362 38.648 80.4775 37.944C80.8188 37.24 80.9895 36.4827 80.9895 35.672C80.9895 34.8613 80.8188 34.104 80.4775 33.4C80.1362 32.696 79.6455 32.088 79.0055 31.576C78.3655 31.0427 77.6082 30.6373 76.7335 30.36C75.8802 30.0613 74.9415 29.912 73.9175 29.912C72.8935 29.912 71.9442 30.0613 71.0695 30.36C70.2162 30.6373 69.4695 31.032 68.8295 31.544C68.1895 32.056 67.6988 32.664 67.3575 33.368C67.0162 34.072 66.8455 34.84 66.8455 35.672C66.8455 36.4827 67.0162 37.2507 67.3575 37.976C67.6988 38.68 68.1895 39.288 68.8295 39.8C69.4695 40.312 70.2162 40.7173 71.0695 41.016C71.9442 41.2933 72.8935 41.432 73.9175 41.432ZM105.926 47.192C103.708 47.192 101.745 46.7547 100.038 45.88C98.3529 45.0053 97.0303 43.8107 96.0703 42.296C95.1316 40.76 94.6623 39.0107 94.6623 37.048V24.6H101.062V36.856C101.062 37.816 101.276 38.6587 101.702 39.384C102.129 40.1093 102.705 40.6747 103.43 41.08C104.177 41.4853 105.009 41.688 105.926 41.688C106.908 41.688 107.772 41.4853 108.518 41.08C109.286 40.6747 109.884 40.1093 110.31 39.384C110.758 38.6587 110.982 37.816 110.982 36.856V24.6H117.19V37.048C117.19 39.0107 116.71 40.76 115.75 42.296C114.812 43.8107 113.5 45.0053 111.814 45.88C110.15 46.7547 108.188 47.192 105.926 47.192ZM132.028 47V30.072H123.836V24.6H146.812V30.072H138.364V47H132.028ZM179.676 47.192C177.458 47.192 175.495 46.7547 173.788 45.88C172.103 45.0053 170.78 43.8107 169.82 42.296C168.882 40.76 168.412 39.0107 168.412 37.048V24.6H174.812V36.856C174.812 37.816 175.026 38.6587 175.452 39.384C175.879 40.1093 176.455 40.6747 177.18 41.08C177.927 41.4853 178.759 41.688 179.676 41.688C180.658 41.688 181.522 41.4853 182.268 41.08C183.036 40.6747 183.634 40.1093 184.06 39.384C184.508 38.6587 184.732 37.816 184.732 36.856V24.6H190.94V37.048C190.94 39.0107 190.46 40.76 189.5 42.296C188.562 43.8107 187.25 45.0053 185.564 45.88C183.9 46.7547 181.938 47.192 179.676 47.192ZM208.73 47.32C206.916 47.32 205.274 47.1493 203.802 46.808C202.351 46.4667 201.05 46.008 199.898 45.432C198.746 44.8347 197.7 44.1733 196.762 43.448L199.77 38.744C201.391 39.9813 203.012 40.8453 204.634 41.336C206.276 41.8267 207.791 42.072 209.178 42.072C209.69 42.072 210.212 42.0293 210.746 41.944C211.279 41.8587 211.738 41.6987 212.122 41.464C212.506 41.208 212.698 40.8453 212.698 40.376C212.698 40.0773 212.602 39.832 212.41 39.64C212.239 39.4267 211.983 39.256 211.642 39.128C211.3 38.9787 210.895 38.8613 210.426 38.776C209.978 38.6907 209.476 38.616 208.922 38.552C208.367 38.488 207.78 38.4133 207.162 38.328C205.754 38.1573 204.474 37.8907 203.322 37.528C202.191 37.144 201.231 36.664 200.442 36.088C199.652 35.512 199.044 34.8293 198.618 34.04C198.212 33.2507 198.01 32.344 198.01 31.32C198.01 30.1893 198.287 29.1653 198.842 28.248C199.396 27.3307 200.154 26.5627 201.114 25.944C202.095 25.304 203.226 24.824 204.506 24.504C205.786 24.184 207.14 24.024 208.57 24.024C210.191 24.024 211.62 24.1733 212.858 24.472C214.116 24.7493 215.204 25.1333 216.122 25.624C217.039 26.1147 217.807 26.648 218.426 27.224L215.29 31.32C214.671 30.872 213.988 30.5093 213.242 30.232C212.495 29.9333 211.706 29.7093 210.874 29.56C210.042 29.3893 209.252 29.304 208.506 29.304C207.738 29.304 207.066 29.3573 206.49 29.464C205.914 29.5707 205.455 29.7413 205.114 29.976C204.772 30.2107 204.602 30.5093 204.602 30.872C204.602 31.256 204.772 31.5547 205.114 31.768C205.455 31.9813 205.892 32.1627 206.426 32.312C206.959 32.44 207.503 32.5467 208.058 32.632C208.612 32.696 209.135 32.7493 209.626 32.792C210.863 32.9413 212.058 33.144 213.21 33.4C214.362 33.656 215.386 34.0293 216.282 34.52C217.199 35.0107 217.914 35.6827 218.426 36.536C218.959 37.368 219.226 38.4453 219.226 39.768C219.226 41.3893 218.767 42.7653 217.85 43.896C216.954 45.0053 215.695 45.8587 214.074 46.456C212.474 47.032 210.692 47.32 208.73 47.32Z" fill="#F5EBD8"/>
</svg>
