<svg width="1280" height="300" viewBox="0 0 1280 300" fill="none" xmlns="http://www.w3.org/2000/svg">
<path d="M0 40C0 17.9086 17.9086 0 40 0H1240C1262.09 0 1280 17.9086 1280 40V260C1280 282.091 1262.09 300 1240 300H40C17.9086 300 0 282.091 0 260V40Z" fill="#5E4744"/>
<path d="M131.211 268.062L135.677 258.262H137.707L142.159 268.062H139.961L137.315 262.252C137.24 262.066 137.161 261.874 137.077 261.678C136.993 261.482 136.909 261.286 136.825 261.09C136.75 260.885 136.676 260.684 136.601 260.488C136.536 260.283 136.475 260.087 136.419 259.9L136.881 259.886C136.825 260.092 136.76 260.297 136.685 260.502C136.61 260.708 136.531 260.908 136.447 261.104C136.372 261.3 136.293 261.496 136.209 261.692C136.125 261.888 136.041 262.089 135.957 262.294L133.311 268.062H131.211ZM133.241 266.088L133.955 264.394H139.317L139.765 266.088H133.241ZM144.886 268.062V258.262H149.618C150.458 258.262 151.21 258.388 151.872 258.64C152.535 258.892 153.095 259.247 153.552 259.704C154.019 260.152 154.374 260.67 154.616 261.258C154.859 261.846 154.98 262.481 154.98 263.162C154.98 263.844 154.859 264.483 154.616 265.08C154.374 265.678 154.019 266.2 153.552 266.648C153.095 267.096 152.535 267.446 151.872 267.698C151.21 267.941 150.458 268.062 149.618 268.062H144.886ZM146.986 266.536L146.762 266.172H149.548C150.099 266.172 150.575 266.093 150.976 265.934C151.387 265.776 151.728 265.561 151.998 265.29C152.269 265.01 152.47 264.688 152.6 264.324C152.731 263.96 152.796 263.573 152.796 263.162C152.796 262.742 152.731 262.355 152.6 262C152.47 261.636 152.269 261.319 151.998 261.048C151.728 260.768 151.387 260.549 150.976 260.39C150.575 260.232 150.099 260.153 149.548 260.153H146.72L146.986 259.816V266.536ZM158.353 268.062V258.262H163.085C163.925 258.262 164.677 258.388 165.339 258.64C166.002 258.892 166.562 259.247 167.019 259.704C167.486 260.152 167.841 260.67 168.083 261.258C168.326 261.846 168.447 262.481 168.447 263.162C168.447 263.844 168.326 264.483 168.083 265.08C167.841 265.678 167.486 266.2 167.019 266.648C166.562 267.096 166.002 267.446 165.339 267.698C164.677 267.941 163.925 268.062 163.085 268.062H158.353ZM160.453 266.536L160.229 266.172H163.015C163.566 266.172 164.042 266.093 164.443 265.934C164.854 265.776 165.195 265.561 165.465 265.29C165.736 265.01 165.937 264.688 166.067 264.324C166.198 263.96 166.263 263.573 166.263 263.162C166.263 262.742 166.198 262.355 166.067 262C165.937 261.636 165.736 261.319 165.465 261.048C165.195 260.768 164.854 260.549 164.443 260.39C164.042 260.232 163.566 260.153 163.015 260.153H160.187L160.453 259.816V266.536ZM171.82 268.062V258.262H177.028C177.7 258.262 178.293 258.398 178.806 258.668C179.329 258.93 179.735 259.294 180.024 259.76C180.313 260.227 180.458 260.764 180.458 261.37C180.458 261.977 180.304 262.523 179.996 263.008C179.688 263.494 179.268 263.881 178.736 264.17C178.213 264.45 177.625 264.59 176.972 264.59H173.85V268.062H171.82ZM178.498 268.062L175.474 263.638L177.672 263.288L180.976 268.077L178.498 268.062ZM173.85 262.882H176.776C177.065 262.882 177.327 262.822 177.56 262.7C177.793 262.579 177.975 262.411 178.106 262.196C178.246 261.972 178.316 261.725 178.316 261.454C178.316 261.174 178.246 260.932 178.106 260.726C177.966 260.521 177.77 260.362 177.518 260.25C177.266 260.138 176.986 260.082 176.678 260.082H173.85V262.882ZM184.453 268.062V258.262H192.321V260.11H186.497V266.215H192.419V268.062H184.453ZM185.517 263.96V262.168H191.649V263.96H185.517ZM200.021 268.203C199.312 268.203 198.663 268.133 198.075 267.992C197.487 267.843 196.955 267.638 196.479 267.376C196.012 267.106 195.588 266.779 195.205 266.396L196.339 264.772C196.964 265.37 197.59 265.794 198.215 266.046C198.85 266.289 199.498 266.41 200.161 266.41C200.497 266.41 200.824 266.373 201.141 266.298C201.458 266.214 201.72 266.088 201.925 265.92C202.14 265.752 202.247 265.533 202.247 265.262C202.247 265.085 202.196 264.936 202.093 264.814C201.99 264.693 201.85 264.595 201.673 264.52C201.496 264.436 201.29 264.366 201.057 264.31C200.824 264.254 200.576 264.208 200.315 264.17C200.063 264.133 199.811 264.096 199.559 264.058C198.971 263.974 198.434 263.853 197.949 263.694C197.473 263.536 197.067 263.335 196.731 263.092C196.404 262.85 196.152 262.56 195.975 262.224C195.807 261.888 195.723 261.506 195.723 261.076C195.723 260.619 195.83 260.204 196.045 259.831C196.269 259.448 196.577 259.126 196.969 258.864C197.361 258.603 197.818 258.407 198.341 258.276C198.864 258.136 199.419 258.066 200.007 258.066C200.66 258.066 201.244 258.132 201.757 258.262C202.28 258.393 202.737 258.575 203.129 258.808C203.53 259.042 203.862 259.322 204.123 259.648L202.933 261.062C202.69 260.801 202.41 260.587 202.093 260.418C201.776 260.241 201.435 260.106 201.071 260.012C200.707 259.919 200.343 259.872 199.979 259.872C199.578 259.872 199.223 259.914 198.915 259.998C198.607 260.073 198.364 260.19 198.187 260.349C198.01 260.507 197.921 260.698 197.921 260.922C197.921 261.118 197.986 261.286 198.117 261.426C198.257 261.566 198.439 261.683 198.663 261.776C198.887 261.86 199.144 261.935 199.433 262C199.722 262.056 200.03 262.103 200.357 262.14C200.898 262.224 201.412 262.327 201.897 262.448C202.392 262.56 202.83 262.719 203.213 262.924C203.596 263.13 203.894 263.4 204.109 263.736C204.324 264.072 204.431 264.492 204.431 264.996C204.431 265.668 204.244 266.242 203.871 266.718C203.498 267.194 202.98 267.563 202.317 267.824C201.654 268.077 200.889 268.203 200.021 268.203ZM211.656 268.203C210.946 268.203 210.298 268.133 209.71 267.992C209.122 267.843 208.59 267.638 208.114 267.376C207.647 267.106 207.222 266.779 206.84 266.396L207.974 264.772C208.599 265.37 209.224 265.794 209.85 266.046C210.484 266.289 211.133 266.41 211.796 266.41C212.132 266.41 212.458 266.373 212.776 266.298C213.093 266.214 213.354 266.088 213.56 265.92C213.774 265.752 213.882 265.533 213.882 265.262C213.882 265.085 213.83 264.936 213.728 264.814C213.625 264.693 213.485 264.595 213.308 264.52C213.13 264.436 212.925 264.366 212.692 264.31C212.458 264.254 212.211 264.208 211.95 264.17C211.698 264.133 211.446 264.096 211.194 264.058C210.606 263.974 210.069 263.853 209.584 263.694C209.108 263.536 208.702 263.335 208.366 263.092C208.039 262.85 207.787 262.56 207.61 262.224C207.442 261.888 207.358 261.506 207.358 261.076C207.358 260.619 207.465 260.204 207.68 259.831C207.904 259.448 208.212 259.126 208.604 258.864C208.996 258.603 209.453 258.407 209.976 258.276C210.498 258.136 211.054 258.066 211.642 258.066C212.295 258.066 212.878 258.132 213.392 258.262C213.914 258.393 214.372 258.575 214.764 258.808C215.165 259.042 215.496 259.322 215.758 259.648L214.568 261.062C214.325 260.801 214.045 260.587 213.728 260.418C213.41 260.241 213.07 260.106 212.706 260.012C212.342 259.919 211.978 259.872 211.614 259.872C211.212 259.872 210.858 259.914 210.55 259.998C210.242 260.073 209.999 260.19 209.822 260.349C209.644 260.507 209.556 260.698 209.556 260.922C209.556 261.118 209.621 261.286 209.752 261.426C209.892 261.566 210.074 261.683 210.298 261.776C210.522 261.86 210.778 261.935 211.068 262C211.357 262.056 211.665 262.103 211.992 262.14C212.533 262.224 213.046 262.327 213.532 262.448C214.026 262.56 214.465 262.719 214.848 262.924C215.23 263.13 215.529 263.4 215.744 263.736C215.958 264.072 216.066 264.492 216.066 264.996C216.066 265.668 215.879 266.242 215.506 266.718C215.132 267.194 214.614 267.563 213.952 267.824C213.289 268.077 212.524 268.203 211.656 268.203ZM220.518 268.217C220.042 268.217 219.683 268.114 219.44 267.908C219.198 267.694 219.076 267.4 219.076 267.026C219.076 266.709 219.198 266.434 219.44 266.2C219.692 265.967 220.052 265.85 220.518 265.85C220.994 265.85 221.354 265.958 221.596 266.172C221.839 266.378 221.96 266.662 221.96 267.026C221.96 267.353 221.834 267.633 221.582 267.866C221.34 268.1 220.985 268.217 220.518 268.217ZM220.518 262.882C220.042 262.882 219.683 262.78 219.44 262.574C219.198 262.36 219.076 262.066 219.076 261.692C219.076 261.375 219.198 261.1 219.44 260.867C219.692 260.633 220.052 260.516 220.518 260.516C220.994 260.516 221.354 260.624 221.596 260.838C221.839 261.044 221.96 261.328 221.96 261.692C221.96 262.019 221.834 262.299 221.582 262.532C221.34 262.766 220.985 262.882 220.518 262.882ZM231.853 268.062V258.262H237.061C237.733 258.262 238.326 258.398 238.839 258.668C239.362 258.93 239.768 259.294 240.057 259.76C240.347 260.227 240.491 260.764 240.491 261.37C240.491 261.977 240.337 262.523 240.029 263.008C239.721 263.494 239.301 263.881 238.769 264.17C238.247 264.45 237.659 264.59 237.005 264.59H233.883V268.062H231.853ZM238.531 268.062L235.507 263.638L237.705 263.288L241.009 268.077L238.531 268.062ZM233.883 262.882H236.809C237.099 262.882 237.36 262.822 237.593 262.7C237.827 262.579 238.009 262.411 238.139 262.196C238.279 261.972 238.349 261.725 238.349 261.454C238.349 261.174 238.279 260.932 238.139 260.726C237.999 260.521 237.803 260.362 237.551 260.25C237.299 260.138 237.019 260.082 236.711 260.082H233.883V262.882ZM244.486 268.062V258.262H252.354V260.11H246.53V266.215H252.452V268.062H244.486ZM245.55 263.96V262.168H251.682V263.96H245.55ZM260.054 268.203C259.345 268.203 258.696 268.133 258.108 267.992C257.52 267.843 256.988 267.638 256.512 267.376C256.045 267.106 255.621 266.779 255.238 266.396L256.372 264.772C256.997 265.37 257.623 265.794 258.248 266.046C258.883 266.289 259.531 266.41 260.194 266.41C260.53 266.41 260.857 266.373 261.174 266.298C261.491 266.214 261.753 266.088 261.958 265.92C262.173 265.752 262.28 265.533 262.28 265.262C262.28 265.085 262.229 264.936 262.126 264.814C262.023 264.693 261.883 264.595 261.706 264.52C261.529 264.436 261.323 264.366 261.09 264.31C260.857 264.254 260.609 264.208 260.348 264.17C260.096 264.133 259.844 264.096 259.592 264.058C259.004 263.974 258.467 263.853 257.982 263.694C257.506 263.536 257.1 263.335 256.764 263.092C256.437 262.85 256.185 262.56 256.008 262.224C255.84 261.888 255.756 261.506 255.756 261.076C255.756 260.619 255.863 260.204 256.078 259.831C256.302 259.448 256.61 259.126 257.002 258.864C257.394 258.603 257.851 258.407 258.374 258.276C258.897 258.136 259.452 258.066 260.04 258.066C260.693 258.066 261.277 258.132 261.79 258.262C262.313 258.393 262.77 258.575 263.162 258.808C263.563 259.042 263.895 259.322 264.156 259.648L262.966 261.062C262.723 260.801 262.443 260.587 262.126 260.418C261.809 260.241 261.468 260.106 261.104 260.012C260.74 259.919 260.376 259.872 260.012 259.872C259.611 259.872 259.256 259.914 258.948 259.998C258.64 260.073 258.397 260.19 258.22 260.349C258.043 260.507 257.954 260.698 257.954 260.922C257.954 261.118 258.019 261.286 258.15 261.426C258.29 261.566 258.472 261.683 258.696 261.776C258.92 261.86 259.177 261.935 259.466 262C259.755 262.056 260.063 262.103 260.39 262.14C260.931 262.224 261.445 262.327 261.93 262.448C262.425 262.56 262.863 262.719 263.246 262.924C263.629 263.13 263.927 263.4 264.142 263.736C264.357 264.072 264.464 264.492 264.464 264.996C264.464 265.668 264.277 266.242 263.904 266.718C263.531 267.194 263.013 267.563 262.35 267.824C261.687 268.077 260.922 268.203 260.054 268.203ZM270.275 268.062V260.153H266.803V258.262H275.945V260.153H272.375V268.062H270.275ZM283.609 268.203C282.779 268.203 282.018 268.077 281.327 267.824C280.637 267.563 280.03 267.204 279.507 266.746C278.994 266.289 278.597 265.752 278.317 265.136C278.047 264.52 277.911 263.853 277.911 263.134C277.911 262.416 278.051 261.748 278.331 261.132C278.611 260.516 279.008 259.98 279.521 259.522C280.035 259.065 280.637 258.71 281.327 258.458C282.018 258.197 282.779 258.066 283.609 258.066C284.449 258.066 285.215 258.192 285.905 258.444C286.596 258.696 287.198 259.056 287.711 259.522C288.225 259.98 288.621 260.516 288.901 261.132C289.181 261.748 289.321 262.416 289.321 263.134C289.321 263.853 289.181 264.52 288.901 265.136C288.621 265.752 288.225 266.294 287.711 266.76C287.198 267.218 286.596 267.572 285.905 267.824C285.215 268.077 284.449 268.203 283.609 268.203ZM283.609 266.215C284.132 266.215 284.608 266.14 285.037 265.99C285.476 265.832 285.854 265.612 286.171 265.332C286.498 265.052 286.75 264.726 286.927 264.352C287.105 263.979 287.193 263.573 287.193 263.134C287.193 262.696 287.105 262.29 286.927 261.916C286.75 261.543 286.498 261.221 286.171 260.95C285.854 260.67 285.476 260.451 285.037 260.292C284.608 260.134 284.132 260.054 283.609 260.054C283.096 260.054 282.62 260.134 282.181 260.292C281.752 260.451 281.374 260.666 281.047 260.936C280.721 261.207 280.473 261.534 280.305 261.916C280.137 262.29 280.053 262.696 280.053 263.134C280.053 263.573 280.137 263.984 280.305 264.367C280.473 264.74 280.721 265.066 281.047 265.346C281.374 265.617 281.752 265.832 282.181 265.99C282.62 266.14 283.096 266.215 283.609 266.215ZM292.693 268.062V258.262H297.901C298.573 258.262 299.166 258.398 299.679 258.668C300.202 258.93 300.608 259.294 300.897 259.76C301.186 260.227 301.331 260.764 301.331 261.37C301.331 261.977 301.177 262.523 300.869 263.008C300.561 263.494 300.141 263.881 299.609 264.17C299.086 264.45 298.498 264.59 297.845 264.59H294.723V268.062H292.693ZM299.371 268.062L296.347 263.638L298.545 263.288L301.849 268.077L299.371 268.062ZM294.723 262.882H297.649C297.938 262.882 298.2 262.822 298.433 262.7C298.666 262.579 298.848 262.411 298.979 262.196C299.119 261.972 299.189 261.725 299.189 261.454C299.189 261.174 299.119 260.932 298.979 260.726C298.839 260.521 298.643 260.362 298.391 260.25C298.139 260.138 297.859 260.082 297.551 260.082H294.723V262.882ZM304.01 268.062L308.476 258.262H310.506L314.958 268.062H312.76L310.114 262.252C310.039 262.066 309.96 261.874 309.876 261.678C309.792 261.482 309.708 261.286 309.624 261.09C309.549 260.885 309.475 260.684 309.4 260.488C309.335 260.283 309.274 260.087 309.218 259.9L309.68 259.886C309.624 260.092 309.559 260.297 309.484 260.502C309.409 260.708 309.33 260.908 309.246 261.104C309.171 261.3 309.092 261.496 309.008 261.692C308.924 261.888 308.84 262.089 308.756 262.294L306.11 268.062H304.01ZM306.04 266.088L306.754 264.394H312.116L312.564 266.088H306.04ZM317.685 268.062V258.262H319.645L326.323 265.584H326.015C325.978 265.267 325.941 264.954 325.903 264.646C325.875 264.338 325.852 264.035 325.833 263.736C325.815 263.438 325.796 263.139 325.777 262.84C325.768 262.532 325.759 262.224 325.749 261.916C325.74 261.599 325.735 261.272 325.735 260.936V258.262H327.793V268.062H325.805L319.015 260.671L319.463 260.684C319.491 260.946 319.519 261.202 319.547 261.454C319.575 261.697 319.599 261.94 319.617 262.182C319.645 262.425 319.664 262.672 319.673 262.924C319.692 263.176 319.706 263.433 319.715 263.694C319.734 263.956 319.743 264.236 319.743 264.534V268.062H317.685ZM331.849 268.062V258.262H333.809L340.487 265.584H340.179C340.142 265.267 340.105 264.954 340.067 264.646C340.039 264.338 340.016 264.035 339.997 263.736C339.979 263.438 339.96 263.139 339.941 262.84C339.932 262.532 339.923 262.224 339.913 261.916C339.904 261.599 339.899 261.272 339.899 260.936V258.262H341.957V268.062H339.969L333.179 260.671L333.627 260.684C333.655 260.946 333.683 261.202 333.711 261.454C333.739 261.697 333.763 261.94 333.781 262.182C333.809 262.425 333.828 262.672 333.837 262.924C333.856 263.176 333.87 263.433 333.879 263.694C333.898 263.956 333.907 264.236 333.907 264.534V268.062H331.849ZM344.697 268.062L349.163 258.262H351.193L355.645 268.062H353.447L350.801 262.252C350.727 262.066 350.647 261.874 350.563 261.678C350.479 261.482 350.395 261.286 350.311 261.09C350.237 260.885 350.162 260.684 350.087 260.488C350.022 260.283 349.961 260.087 349.905 259.9L350.367 259.886C350.311 260.092 350.246 260.297 350.171 260.502C350.097 260.708 350.017 260.908 349.933 261.104C349.859 261.3 349.779 261.496 349.695 261.692C349.611 261.888 349.527 262.089 349.443 262.294L346.797 268.062H344.697ZM346.727 266.088L347.441 264.394H352.803L353.251 266.088H346.727ZM368.417 268.203C367.708 268.203 367.059 268.133 366.471 267.992C365.883 267.843 365.351 267.638 364.875 267.376C364.409 267.106 363.984 266.779 363.601 266.396L364.735 264.772C365.361 265.37 365.986 265.794 366.611 266.046C367.246 266.289 367.895 266.41 368.557 266.41C368.893 266.41 369.22 266.373 369.537 266.298C369.855 266.214 370.116 266.088 370.321 265.92C370.536 265.752 370.643 265.533 370.643 265.262C370.643 265.085 370.592 264.936 370.489 264.814C370.387 264.693 370.247 264.595 370.069 264.52C369.892 264.436 369.687 264.366 369.453 264.31C369.22 264.254 368.973 264.208 368.711 264.17C368.459 264.133 368.207 264.096 367.955 264.058C367.367 263.974 366.831 263.853 366.345 263.694C365.869 263.536 365.463 263.335 365.127 263.092C364.801 262.85 364.549 262.56 364.371 262.224C364.203 261.888 364.119 261.506 364.119 261.076C364.119 260.619 364.227 260.204 364.441 259.831C364.665 259.448 364.973 259.126 365.365 258.864C365.757 258.603 366.215 258.407 366.737 258.276C367.26 258.136 367.815 258.066 368.403 258.066C369.057 258.066 369.64 258.132 370.153 258.262C370.676 258.393 371.133 258.575 371.525 258.808C371.927 259.042 372.258 259.322 372.519 259.648L371.329 261.062C371.087 260.801 370.807 260.587 370.489 260.418C370.172 260.241 369.831 260.106 369.467 260.012C369.103 259.919 368.739 259.872 368.375 259.872C367.974 259.872 367.619 259.914 367.311 259.998C367.003 260.073 366.761 260.19 366.583 260.349C366.406 260.507 366.317 260.698 366.317 260.922C366.317 261.118 366.383 261.286 366.513 261.426C366.653 261.566 366.835 261.683 367.059 261.776C367.283 261.86 367.54 261.935 367.829 262C368.119 262.056 368.427 262.103 368.753 262.14C369.295 262.224 369.808 262.327 370.293 262.448C370.788 262.56 371.227 262.719 371.609 262.924C371.992 263.13 372.291 263.4 372.505 263.736C372.72 264.072 372.827 264.492 372.827 264.996C372.827 265.668 372.641 266.242 372.267 266.718C371.894 267.194 371.376 267.563 370.713 267.824C370.051 268.077 369.285 268.203 368.417 268.203ZM378.638 268.062V260.153H375.166V258.262H384.308V260.153H380.738V268.062H378.638ZM387.384 268.062V258.262H392.592C393.264 258.262 393.857 258.398 394.37 258.668C394.893 258.93 395.299 259.294 395.588 259.76C395.878 260.227 396.022 260.764 396.022 261.37C396.022 261.977 395.868 262.523 395.56 263.008C395.252 263.494 394.832 263.881 394.3 264.17C393.778 264.45 393.19 264.59 392.536 264.59H389.414V268.062H387.384ZM394.062 268.062L391.038 263.638L393.236 263.288L396.54 268.077L394.062 268.062ZM389.414 262.882H392.34C392.63 262.882 392.891 262.822 393.124 262.7C393.358 262.579 393.54 262.411 393.67 262.196C393.81 261.972 393.88 261.725 393.88 261.454C393.88 261.174 393.81 260.932 393.67 260.726C393.53 260.521 393.334 260.362 393.082 260.25C392.83 260.138 392.55 260.082 392.242 260.082H389.414V262.882ZM400.017 268.062V258.262H407.885V260.11H402.061V266.215H407.983V268.062H400.017ZM401.081 263.96V262.168H407.213V263.96H401.081ZM411.679 268.062V258.262H419.547V260.11H413.723V266.215H419.645V268.062H411.679ZM412.743 263.96V262.168H418.875V263.96H412.743ZM425.834 268.062V260.153H422.362V258.262H431.504V260.153H427.934V268.062H425.834ZM440.284 268.062L439.794 266.788L442.804 263.96C443.038 263.727 443.28 263.489 443.532 263.246C443.794 263.004 444.032 262.756 444.246 262.504C444.461 262.243 444.634 261.991 444.764 261.748C444.895 261.506 444.96 261.282 444.96 261.076C444.96 260.843 444.909 260.642 444.806 260.474C444.704 260.306 444.55 260.176 444.344 260.082C444.139 259.989 443.887 259.942 443.588 259.942C443.308 259.942 443.028 259.998 442.748 260.11C442.478 260.222 442.212 260.4 441.95 260.642C441.698 260.885 441.465 261.198 441.25 261.58L439.696 260.642C439.967 260.148 440.303 259.709 440.704 259.326C441.106 258.934 441.572 258.626 442.104 258.402C442.636 258.178 443.21 258.066 443.826 258.066C444.47 258.066 445.035 258.188 445.52 258.43C446.006 258.664 446.384 258.986 446.654 259.396C446.925 259.807 447.06 260.283 447.06 260.824C447.06 261.114 447.014 261.398 446.92 261.678C446.827 261.958 446.692 262.234 446.514 262.504C446.346 262.766 446.15 263.032 445.926 263.302C445.702 263.564 445.46 263.825 445.198 264.086C444.946 264.348 444.68 264.609 444.4 264.87L441.936 267.152L441.796 266.172H447.466V268.062H440.284ZM453.324 268.203C452.418 268.203 451.644 268.011 451 267.628C450.356 267.246 449.8 266.714 449.334 266.032L450.874 264.926C451.051 265.178 451.256 265.421 451.49 265.654C451.723 265.888 451.994 266.079 452.302 266.228C452.61 266.368 452.95 266.438 453.324 266.438C453.697 266.438 454.042 266.382 454.36 266.27C454.677 266.158 454.934 265.99 455.13 265.766C455.335 265.533 455.438 265.244 455.438 264.898C455.438 264.572 455.344 264.306 455.158 264.1C454.98 263.895 454.747 263.75 454.458 263.666C454.168 263.573 453.874 263.526 453.576 263.526C453.417 263.526 453.254 263.54 453.086 263.568C452.927 263.587 452.778 263.615 452.638 263.652C452.507 263.69 452.376 263.732 452.246 263.778L451.686 262.574L454.724 259.662L454.99 260.068L449.978 260.012V258.206H456.768L457.16 259.284L453.464 262.84L452.974 261.986C453.076 261.949 453.235 261.921 453.45 261.902C453.674 261.874 453.902 261.86 454.136 261.86C454.565 261.86 454.976 261.935 455.368 262.084C455.76 262.234 456.105 262.444 456.404 262.714C456.712 262.985 456.954 263.302 457.132 263.666C457.309 264.021 457.398 264.408 457.398 264.828C457.398 265.5 457.216 266.093 456.852 266.606C456.488 267.11 455.998 267.502 455.382 267.782C454.775 268.062 454.089 268.203 453.324 268.203ZM460.445 270.975L459.745 270.163C460.184 269.929 460.539 269.687 460.809 269.435C461.08 269.183 461.215 268.954 461.215 268.749C461.215 268.618 461.169 268.501 461.075 268.399C460.982 268.296 460.851 268.193 460.683 268.091C460.478 267.978 460.296 267.843 460.137 267.684C459.988 267.526 459.913 267.325 459.913 267.082C459.913 266.737 460.039 266.476 460.291 266.298C460.553 266.121 460.865 266.032 461.229 266.032C461.537 266.032 461.827 266.121 462.097 266.298C462.368 266.466 462.587 266.7 462.755 266.998C462.923 267.288 463.007 267.619 463.007 267.992C463.007 268.291 462.937 268.59 462.797 268.889C462.667 269.197 462.48 269.486 462.237 269.757C461.995 270.027 461.719 270.265 461.411 270.471C461.103 270.685 460.781 270.853 460.445 270.975ZM472.724 268.062V258.262H474.824V266.172H480.508V268.062H472.724ZM485.852 268.062L481.568 258.262H483.78L486.006 263.498C486.081 263.685 486.165 263.895 486.258 264.128C486.361 264.362 486.468 264.609 486.58 264.87C486.692 265.132 486.795 265.398 486.888 265.668C486.991 265.93 487.079 266.186 487.154 266.438L486.692 266.452C486.795 266.126 486.911 265.799 487.042 265.472C487.173 265.136 487.303 264.805 487.434 264.478C487.574 264.152 487.705 263.83 487.826 263.512L489.926 258.262H492.138L487.91 268.062H485.852ZM494.997 268.062V266.2H497.251V260.124H494.997V258.262H501.619V260.124H499.351V266.2H501.619V268.062H494.997ZM508.766 268.062L504.482 258.262H506.694L508.92 263.498C508.995 263.685 509.079 263.895 509.172 264.128C509.275 264.362 509.382 264.609 509.494 264.87C509.606 265.132 509.709 265.398 509.802 265.668C509.905 265.93 509.993 266.186 510.068 266.438L509.606 266.452C509.709 266.126 509.825 265.799 509.956 265.472C510.087 265.136 510.217 264.805 510.348 264.478C510.488 264.152 510.619 263.83 510.74 263.512L512.84 258.262H515.052L510.824 268.062H508.766ZM516.104 270.975L515.404 270.163C515.842 269.929 516.197 269.687 516.468 269.435C516.738 269.183 516.874 268.954 516.874 268.749C516.874 268.618 516.827 268.501 516.734 268.399C516.64 268.296 516.51 268.193 516.342 268.091C516.136 267.978 515.954 267.843 515.796 267.684C515.646 267.526 515.572 267.325 515.572 267.082C515.572 266.737 515.698 266.476 515.95 266.298C516.211 266.121 516.524 266.032 516.888 266.032C517.196 266.032 517.485 266.121 517.756 266.298C518.026 266.466 518.246 266.7 518.414 266.998C518.582 267.288 518.666 267.619 518.666 267.992C518.666 268.291 518.596 268.59 518.456 268.889C518.325 269.197 518.138 269.486 517.896 269.757C517.653 270.027 517.378 270.265 517.07 270.471C516.762 270.685 516.44 270.853 516.104 270.975ZM528.383 268.062V258.262H533.647C534.253 258.262 534.804 258.402 535.299 258.682C535.803 258.953 536.204 259.326 536.503 259.802C536.801 260.278 536.951 260.815 536.951 261.412C536.951 262.038 536.792 262.602 536.475 263.106C536.167 263.601 535.747 263.993 535.215 264.282C534.692 264.572 534.109 264.716 533.465 264.716H530.483V268.062H528.383ZM530.455 262.826H533.157C533.446 262.826 533.712 262.766 533.955 262.644C534.197 262.523 534.389 262.355 534.529 262.14C534.669 261.926 534.739 261.688 534.739 261.426C534.739 261.174 534.669 260.955 534.529 260.768C534.389 260.572 534.197 260.423 533.955 260.32C533.712 260.208 533.446 260.153 533.157 260.153H530.455V262.826ZM547.806 268.062V258.262H549.906V268.062H547.806ZM540.386 268.062V258.262H542.486V268.062H540.386ZM541.226 264.17L541.24 262.266H548.884V264.17H541.226ZM558.975 268.203C558.144 268.203 557.383 268.077 556.693 267.824C556.002 267.563 555.395 267.204 554.873 266.746C554.359 266.289 553.963 265.752 553.683 265.136C553.412 264.52 553.277 263.853 553.277 263.134C553.277 262.416 553.417 261.748 553.697 261.132C553.977 260.516 554.373 259.98 554.887 259.522C555.4 259.065 556.002 258.71 556.693 258.458C557.383 258.197 558.144 258.066 558.975 258.066C559.815 258.066 560.58 258.192 561.271 258.444C561.961 258.696 562.563 259.056 563.077 259.522C563.59 259.98 563.987 260.516 564.267 261.132C564.547 261.748 564.687 262.416 564.687 263.134C564.687 263.853 564.547 264.52 564.267 265.136C563.987 265.752 563.59 266.294 563.077 266.76C562.563 267.218 561.961 267.572 561.271 267.824C560.58 268.077 559.815 268.203 558.975 268.203ZM558.975 266.215C559.497 266.215 559.973 266.14 560.403 265.99C560.841 265.832 561.219 265.612 561.537 265.332C561.863 265.052 562.115 264.726 562.293 264.352C562.47 263.979 562.559 263.573 562.559 263.134C562.559 262.696 562.47 262.29 562.293 261.916C562.115 261.543 561.863 261.221 561.537 260.95C561.219 260.67 560.841 260.451 560.403 260.292C559.973 260.134 559.497 260.054 558.975 260.054C558.461 260.054 557.985 260.134 557.547 260.292C557.117 260.451 556.739 260.666 556.413 260.936C556.086 261.207 555.839 261.534 555.671 261.916C555.503 262.29 555.419 262.696 555.419 263.134C555.419 263.573 555.503 263.984 555.671 264.367C555.839 264.74 556.086 265.066 556.413 265.346C556.739 265.617 557.117 265.832 557.547 265.99C557.985 266.14 558.461 266.215 558.975 266.215ZM568.058 268.062V258.262H570.018L576.696 265.584H576.388C576.351 265.267 576.314 264.954 576.276 264.646C576.248 264.338 576.225 264.035 576.206 263.736C576.188 263.438 576.169 263.139 576.15 262.84C576.141 262.532 576.132 262.224 576.122 261.916C576.113 261.599 576.108 261.272 576.108 260.936V258.262H578.166V268.062H576.178L569.388 260.671L569.836 260.684C569.864 260.946 569.892 261.202 569.92 261.454C569.948 261.697 569.972 261.94 569.99 262.182C570.018 262.425 570.037 262.672 570.046 262.924C570.065 263.176 570.079 263.433 570.088 263.694C570.107 263.956 570.116 264.236 570.116 264.534V268.062H568.058ZM582.222 268.062V258.262H590.09V260.11H584.266V266.215H590.188V268.062H582.222ZM583.286 263.96V262.168H589.418V263.96H583.286ZM600.023 268.062V258.262H601.983L608.661 265.584H608.353C608.316 265.267 608.278 264.954 608.241 264.646C608.213 264.338 608.19 264.035 608.171 263.736C608.152 263.438 608.134 263.139 608.115 262.84C608.106 262.532 608.096 262.224 608.087 261.916C608.078 261.599 608.073 261.272 608.073 260.936V258.262H610.131V268.062H608.143L601.353 260.671L601.801 260.684C601.829 260.946 601.857 261.202 601.885 261.454C601.913 261.697 601.936 261.94 601.955 262.182C601.983 262.425 602.002 262.672 602.011 262.924C602.03 263.176 602.044 263.433 602.053 263.694C602.072 263.956 602.081 264.236 602.081 264.534V268.062H600.023ZM618.821 268.147C617.879 268.147 617.053 267.955 616.343 267.572C615.634 267.18 615.079 266.653 614.677 265.99C614.276 265.318 614.075 264.558 614.075 263.708V258.248H616.189V263.624C616.189 264.128 616.306 264.576 616.539 264.968C616.773 265.36 617.085 265.673 617.477 265.906C617.879 266.13 618.327 266.242 618.821 266.242C619.335 266.242 619.792 266.13 620.193 265.906C620.604 265.673 620.926 265.36 621.159 264.968C621.393 264.576 621.509 264.128 621.509 263.624V258.248H623.553V263.708C623.553 264.558 623.353 265.318 622.951 265.99C622.55 266.653 621.995 267.18 621.285 267.572C620.576 267.955 619.755 268.147 618.821 268.147ZM627.517 268.062V258.262H629.435L633.579 263.89H632.431L636.589 258.262H638.479V268.062H636.421V264.618C636.421 263.816 636.44 263.078 636.477 262.406C636.515 261.725 636.589 261.039 636.701 260.349L636.925 261.034L633.453 265.542H632.529L629.057 261.034L629.295 260.349C629.398 261.02 629.468 261.697 629.505 262.378C629.552 263.05 629.575 263.797 629.575 264.618V268.062H627.517ZM642.543 268.062V258.262H647.597C648.381 258.262 649.034 258.36 649.557 258.556C650.089 258.743 650.49 259.018 650.761 259.382C651.041 259.746 651.181 260.18 651.181 260.684C651.181 261.235 651.022 261.697 650.705 262.07C650.397 262.444 649.935 262.71 649.319 262.868L649.375 262.588C649.785 262.682 650.168 262.84 650.523 263.064C650.887 263.279 651.171 263.559 651.377 263.904C651.591 264.24 651.699 264.646 651.699 265.122C651.699 265.673 651.591 266.14 651.377 266.522C651.162 266.896 650.868 267.194 650.495 267.418C650.131 267.642 649.725 267.806 649.277 267.908C648.829 268.011 648.367 268.062 647.891 268.062H642.543ZM644.559 266.242H647.891C648.227 266.242 648.525 266.2 648.787 266.116C649.048 266.023 649.249 265.888 649.389 265.71C649.538 265.524 649.613 265.3 649.613 265.038C649.613 264.749 649.524 264.52 649.347 264.352C649.169 264.175 648.941 264.049 648.661 263.974C648.39 263.9 648.11 263.862 647.821 263.862H644.559V266.242ZM644.559 262.182H647.583C647.872 262.182 648.129 262.14 648.353 262.056C648.586 261.963 648.768 261.837 648.899 261.678C649.029 261.52 649.095 261.333 649.095 261.118C649.095 260.754 648.945 260.493 648.647 260.334C648.348 260.166 647.956 260.082 647.471 260.082H644.559V262.182ZM655.066 268.062V258.262H662.934V260.11H657.11V266.215H663.032V268.062H655.066ZM656.13 263.96V262.168H662.262V263.96H656.13ZM666.728 268.062V258.262H671.936C672.608 258.262 673.201 258.398 673.714 258.668C674.237 258.93 674.643 259.294 674.932 259.76C675.222 260.227 675.366 260.764 675.366 261.37C675.366 261.977 675.212 262.523 674.904 263.008C674.596 263.494 674.176 263.881 673.644 264.17C673.122 264.45 672.534 264.59 671.88 264.59H668.758V268.062H666.728ZM673.406 268.062L670.382 263.638L672.58 263.288L675.884 268.077L673.406 268.062ZM668.758 262.882H671.684C671.974 262.882 672.235 262.822 672.468 262.7C672.702 262.579 672.884 262.411 673.014 262.196C673.154 261.972 673.224 261.725 673.224 261.454C673.224 261.174 673.154 260.932 673.014 260.726C672.874 260.521 672.678 260.362 672.426 260.25C672.174 260.138 671.894 260.082 671.586 260.082H668.758V262.882ZM684.772 264.842V263.19H693.088V264.842H684.772ZM688.034 267.95V260.194H689.812V267.95H688.034ZM699.335 268.203C698.43 268.203 697.655 268.011 697.011 267.628C696.367 267.246 695.812 266.714 695.345 266.032L696.885 264.926C697.063 265.178 697.268 265.421 697.501 265.654C697.735 265.888 698.005 266.079 698.313 266.228C698.621 266.368 698.962 266.438 699.335 266.438C699.709 266.438 700.054 266.382 700.371 266.27C700.689 266.158 700.945 265.99 701.141 265.766C701.347 265.533 701.449 265.244 701.449 264.898C701.449 264.572 701.356 264.306 701.169 264.1C700.992 263.895 700.759 263.75 700.469 263.666C700.18 263.573 699.886 263.526 699.587 263.526C699.429 263.526 699.265 263.54 699.097 263.568C698.939 263.587 698.789 263.615 698.649 263.652C698.519 263.69 698.388 263.732 698.257 263.778L697.697 262.574L700.735 259.662L701.001 260.068L695.989 260.012V258.206H702.779L703.171 259.284L699.475 262.84L698.985 261.986C699.088 261.949 699.247 261.921 699.461 261.902C699.685 261.874 699.914 261.86 700.147 261.86C700.577 261.86 700.987 261.935 701.379 262.084C701.771 262.234 702.117 262.444 702.415 262.714C702.723 262.985 702.966 263.302 703.143 263.666C703.321 264.021 703.409 264.408 703.409 264.828C703.409 265.5 703.227 266.093 702.863 266.606C702.499 267.11 702.009 267.502 701.393 267.782C700.787 268.062 700.101 268.203 699.335 268.203ZM709.691 268.105C708.926 268.105 708.244 267.974 707.647 267.712C707.05 267.442 706.578 267.082 706.233 266.634C705.888 266.177 705.715 265.668 705.715 265.108C705.715 264.726 705.776 264.394 705.897 264.114C706.018 263.834 706.186 263.592 706.401 263.386C706.616 263.181 706.858 263.008 707.129 262.868C707.4 262.728 707.68 262.616 707.969 262.532L707.829 263.176C707.614 263.074 707.404 262.952 707.199 262.812C707.003 262.672 706.821 262.509 706.653 262.322C706.494 262.126 706.368 261.907 706.275 261.664C706.182 261.422 706.135 261.156 706.135 260.867C706.135 260.362 706.294 259.905 706.611 259.494C706.928 259.084 707.353 258.757 707.885 258.514C708.417 258.272 709.019 258.15 709.691 258.15C710.354 258.15 710.951 258.272 711.483 258.514C712.015 258.757 712.435 259.084 712.743 259.494C713.06 259.905 713.219 260.362 713.219 260.867C713.219 261.174 713.168 261.45 713.065 261.692C712.972 261.935 712.846 262.15 712.687 262.336C712.528 262.523 712.346 262.686 712.141 262.826C711.945 262.966 711.74 263.083 711.525 263.176L711.441 262.56C711.749 262.654 712.038 262.775 712.309 262.924C712.58 263.074 712.813 263.256 713.009 263.47C713.214 263.685 713.373 263.928 713.485 264.198C713.606 264.469 713.667 264.772 713.667 265.108C713.667 265.668 713.494 266.177 713.149 266.634C712.804 267.082 712.332 267.442 711.735 267.712C711.138 267.974 710.456 268.105 709.691 268.105ZM709.691 266.382C710.074 266.382 710.414 266.326 710.713 266.215C711.012 266.102 711.245 265.944 711.413 265.738C711.59 265.524 711.679 265.29 711.679 265.038C711.679 264.777 711.59 264.544 711.413 264.338C711.245 264.133 711.012 263.974 710.713 263.862C710.414 263.75 710.074 263.694 709.691 263.694C709.308 263.694 708.963 263.75 708.655 263.862C708.356 263.974 708.118 264.133 707.941 264.338C707.773 264.544 707.689 264.777 707.689 265.038C707.689 265.29 707.773 265.519 707.941 265.724C708.109 265.93 708.342 266.093 708.641 266.215C708.949 266.326 709.299 266.382 709.691 266.382ZM709.691 262.07C709.999 262.07 710.279 262.024 710.531 261.93C710.783 261.828 710.979 261.688 711.119 261.51C711.268 261.324 711.343 261.109 711.343 260.867C711.343 260.652 711.268 260.465 711.119 260.306C710.979 260.138 710.783 260.008 710.531 259.914C710.288 259.812 710.008 259.76 709.691 259.76C709.364 259.76 709.07 259.807 708.809 259.9C708.557 259.994 708.361 260.124 708.221 260.292C708.081 260.46 708.011 260.652 708.011 260.867C708.011 261.109 708.081 261.324 708.221 261.51C708.37 261.688 708.571 261.828 708.823 261.93C709.075 262.024 709.364 262.07 709.691 262.07ZM720.474 268.203C719.503 268.203 718.682 267.993 718.01 267.572C717.338 267.152 716.829 266.569 716.484 265.822C716.138 265.066 715.966 264.18 715.966 263.162C715.966 262.145 716.138 261.263 716.484 260.516C716.829 259.76 717.338 259.172 718.01 258.752C718.682 258.332 719.503 258.122 720.474 258.122C721.435 258.122 722.242 258.332 722.896 258.752C723.558 259.172 724.058 259.76 724.394 260.516C724.739 261.263 724.912 262.145 724.912 263.162C724.912 264.18 724.739 265.066 724.394 265.822C724.058 266.569 723.558 267.152 722.896 267.572C722.242 267.993 721.435 268.203 720.474 268.203ZM720.474 266.396C721.239 266.396 721.832 266.116 722.252 265.556C722.681 264.996 722.896 264.198 722.896 263.162C722.896 262.108 722.681 261.296 722.252 260.726C721.832 260.157 721.239 259.872 720.474 259.872C719.68 259.872 719.064 260.157 718.626 260.726C718.187 261.296 717.968 262.108 717.968 263.162C717.968 264.198 718.187 264.996 718.626 265.556C719.064 266.116 719.68 266.396 720.474 266.396ZM729.797 268.062L729.741 267.922L733.381 261.734L733.591 262.588C733.433 262.896 733.237 263.186 733.003 263.456C732.77 263.718 732.509 263.946 732.219 264.142C731.93 264.329 731.622 264.483 731.295 264.604C730.969 264.716 730.633 264.772 730.287 264.772C729.699 264.772 729.167 264.628 728.691 264.338C728.215 264.04 727.833 263.652 727.543 263.176C727.263 262.691 727.123 262.173 727.123 261.622C727.123 260.941 727.301 260.33 727.655 259.788C728.01 259.247 728.481 258.822 729.069 258.514C729.667 258.206 730.334 258.052 731.071 258.052C731.585 258.052 732.07 258.141 732.527 258.318C732.985 258.486 733.391 258.724 733.745 259.032C734.1 259.34 734.375 259.7 734.571 260.11C734.777 260.512 734.879 260.941 734.879 261.398C734.879 261.744 734.828 262.094 734.725 262.448C734.632 262.803 734.501 263.162 734.333 263.526C734.175 263.881 733.997 264.236 733.801 264.59C733.605 264.945 733.409 265.29 733.213 265.626L731.813 268.062H729.797ZM730.903 263.022C731.323 263.022 731.683 262.952 731.981 262.812C732.28 262.663 732.509 262.472 732.667 262.238C732.835 261.996 732.919 261.739 732.919 261.468C732.919 261.17 732.835 260.899 732.667 260.656C732.509 260.404 732.28 260.204 731.981 260.054C731.683 259.905 731.328 259.831 730.917 259.831C730.581 259.831 730.264 259.896 729.965 260.026C729.676 260.157 729.443 260.344 729.265 260.586C729.088 260.829 728.999 261.118 728.999 261.454C728.999 261.716 729.079 261.968 729.237 262.21C729.405 262.453 729.629 262.649 729.909 262.798C730.199 262.948 730.53 263.022 730.903 263.022ZM740.996 268.062C740.473 268.062 739.974 267.978 739.498 267.81C739.022 267.633 738.602 267.386 738.238 267.068C737.874 266.751 737.589 266.382 737.384 265.962C737.188 265.533 737.09 265.062 737.09 264.548C737.09 264.138 737.141 263.746 737.244 263.372C737.356 262.999 737.505 262.644 737.692 262.308C737.879 261.963 738.089 261.622 738.322 261.286C738.555 260.941 738.807 260.596 739.078 260.25L740.772 258.108H742.942L742.998 258.248L740.59 261.118C740.31 261.473 740.044 261.828 739.792 262.182C739.54 262.537 739.321 262.906 739.134 263.288C738.947 263.662 738.798 264.04 738.686 264.422L737.916 263.568C738.047 263.26 738.233 262.966 738.476 262.686C738.728 262.397 739.013 262.145 739.33 261.93C739.657 261.706 740.011 261.534 740.394 261.412C740.786 261.282 741.187 261.216 741.598 261.216C742.214 261.216 742.779 261.356 743.292 261.636C743.805 261.916 744.216 262.299 744.524 262.784C744.832 263.27 744.986 263.816 744.986 264.422C744.986 265.094 744.818 265.706 744.482 266.256C744.155 266.807 743.693 267.246 743.096 267.572C742.499 267.899 741.799 268.062 740.996 268.062ZM741.024 266.284C741.416 266.284 741.771 266.214 742.088 266.074C742.405 265.934 742.653 265.738 742.83 265.486C743.017 265.225 743.11 264.917 743.11 264.562C743.11 264.273 743.021 264.002 742.844 263.75C742.676 263.498 742.433 263.293 742.116 263.134C741.808 262.966 741.449 262.882 741.038 262.882C740.627 262.882 740.268 262.957 739.96 263.106C739.652 263.256 739.414 263.461 739.246 263.722C739.078 263.974 738.994 264.25 738.994 264.548C738.994 264.866 739.078 265.16 739.246 265.43C739.414 265.692 739.647 265.902 739.946 266.06C740.254 266.21 740.613 266.284 741.024 266.284ZM751.254 268.105C750.488 268.105 749.807 267.974 749.21 267.712C748.612 267.442 748.141 267.082 747.796 266.634C747.45 266.177 747.278 265.668 747.278 265.108C747.278 264.726 747.338 264.394 747.46 264.114C747.581 263.834 747.749 263.592 747.964 263.386C748.178 263.181 748.421 263.008 748.692 262.868C748.962 262.728 749.242 262.616 749.532 262.532L749.392 263.176C749.177 263.074 748.967 262.952 748.762 262.812C748.566 262.672 748.384 262.509 748.216 262.322C748.057 262.126 747.931 261.907 747.838 261.664C747.744 261.422 747.698 261.156 747.698 260.867C747.698 260.362 747.856 259.905 748.174 259.494C748.491 259.084 748.916 258.757 749.448 258.514C749.98 258.272 750.582 258.15 751.254 258.15C751.916 258.15 752.514 258.272 753.046 258.514C753.578 258.757 753.998 259.084 754.306 259.494C754.623 259.905 754.782 260.362 754.782 260.867C754.782 261.174 754.73 261.45 754.628 261.692C754.534 261.935 754.408 262.15 754.25 262.336C754.091 262.523 753.909 262.686 753.704 262.826C753.508 262.966 753.302 263.083 753.088 263.176L753.004 262.56C753.312 262.654 753.601 262.775 753.872 262.924C754.142 263.074 754.376 263.256 754.572 263.47C754.777 263.685 754.936 263.928 755.048 264.198C755.169 264.469 755.23 264.772 755.23 265.108C755.23 265.668 755.057 266.177 754.712 266.634C754.366 267.082 753.895 267.442 753.298 267.712C752.7 267.974 752.019 268.105 751.254 268.105ZM751.254 266.382C751.636 266.382 751.977 266.326 752.276 266.215C752.574 266.102 752.808 265.944 752.976 265.738C753.153 265.524 753.242 265.29 753.242 265.038C753.242 264.777 753.153 264.544 752.976 264.338C752.808 264.133 752.574 263.974 752.276 263.862C751.977 263.75 751.636 263.694 751.254 263.694C750.871 263.694 750.526 263.75 750.218 263.862C749.919 263.974 749.681 264.133 749.504 264.338C749.336 264.544 749.252 264.777 749.252 265.038C749.252 265.29 749.336 265.519 749.504 265.724C749.672 265.93 749.905 266.093 750.204 266.215C750.512 266.326 750.862 266.382 751.254 266.382ZM751.254 262.07C751.562 262.07 751.842 262.024 752.094 261.93C752.346 261.828 752.542 261.688 752.682 261.51C752.831 261.324 752.906 261.109 752.906 260.867C752.906 260.652 752.831 260.465 752.682 260.306C752.542 260.138 752.346 260.008 752.094 259.914C751.851 259.812 751.571 259.76 751.254 259.76C750.927 259.76 750.633 259.807 750.372 259.9C750.12 259.994 749.924 260.124 749.784 260.292C749.644 260.46 749.574 260.652 749.574 260.867C749.574 261.109 749.644 261.324 749.784 261.51C749.933 261.688 750.134 261.828 750.386 261.93C750.638 262.024 750.927 262.07 751.254 262.07ZM762.246 268.062V259.354H763.548L758.886 264.786L758.704 264.058H766.264V265.808H757.976L757.122 264.184L762.414 258.206H764.276V268.062H762.246ZM771.865 268.203C770.959 268.203 770.185 268.011 769.541 267.628C768.897 267.246 768.341 266.714 767.875 266.032L769.415 264.926C769.592 265.178 769.797 265.421 770.031 265.654C770.264 265.888 770.535 266.079 770.843 266.228C771.151 266.368 771.491 266.438 771.865 266.438C772.238 266.438 772.583 266.382 772.901 266.27C773.218 266.158 773.475 265.99 773.671 265.766C773.876 265.533 773.979 265.244 773.979 264.898C773.979 264.572 773.885 264.306 773.699 264.1C773.521 263.895 773.288 263.75 772.999 263.666C772.709 263.573 772.415 263.526 772.117 263.526C771.958 263.526 771.795 263.54 771.627 263.568C771.468 263.587 771.319 263.615 771.179 263.652C771.048 263.69 770.917 263.732 770.787 263.778L770.227 262.574L773.265 259.662L773.531 260.068L768.519 260.012V258.206H775.309L775.701 259.284L772.005 262.84L771.515 261.986C771.617 261.949 771.776 261.921 771.991 261.902C772.215 261.874 772.443 261.86 772.677 261.86C773.106 261.86 773.517 261.935 773.909 262.084C774.301 262.234 774.646 262.444 774.945 262.714C775.253 262.985 775.495 263.302 775.673 263.666C775.85 264.021 775.939 264.408 775.939 264.828C775.939 265.5 775.757 266.093 775.393 266.606C775.029 267.11 774.539 267.502 773.923 267.782C773.316 268.062 772.63 268.203 771.865 268.203ZM782.22 268.105C781.455 268.105 780.774 267.974 780.176 267.712C779.579 267.442 779.108 267.082 778.762 266.634C778.417 266.177 778.244 265.668 778.244 265.108C778.244 264.726 778.305 264.394 778.426 264.114C778.548 263.834 778.716 263.592 778.93 263.386C779.145 263.181 779.388 263.008 779.658 262.868C779.929 262.728 780.209 262.616 780.498 262.532L780.358 263.176C780.144 263.074 779.934 262.952 779.728 262.812C779.532 262.672 779.35 262.509 779.182 262.322C779.024 262.126 778.898 261.907 778.804 261.664C778.711 261.422 778.664 261.156 778.664 260.867C778.664 260.362 778.823 259.905 779.14 259.494C779.458 259.084 779.882 258.757 780.414 258.514C780.946 258.272 781.548 258.15 782.22 258.15C782.883 258.15 783.48 258.272 784.012 258.514C784.544 258.757 784.964 259.084 785.272 259.494C785.59 259.905 785.748 260.362 785.748 260.867C785.748 261.174 785.697 261.45 785.594 261.692C785.501 261.935 785.375 262.15 785.216 262.336C785.058 262.523 784.876 262.686 784.67 262.826C784.474 262.966 784.269 263.083 784.054 263.176L783.97 262.56C784.278 262.654 784.568 262.775 784.838 262.924C785.109 263.074 785.342 263.256 785.538 263.47C785.744 263.685 785.902 263.928 786.014 264.198C786.136 264.469 786.196 264.772 786.196 265.108C786.196 265.668 786.024 266.177 785.678 266.634C785.333 267.082 784.862 267.442 784.264 267.712C783.667 267.974 782.986 268.105 782.22 268.105ZM782.22 266.382C782.603 266.382 782.944 266.326 783.242 266.215C783.541 266.102 783.774 265.944 783.942 265.738C784.12 265.524 784.208 265.29 784.208 265.038C784.208 264.777 784.12 264.544 783.942 264.338C783.774 264.133 783.541 263.974 783.242 263.862C782.944 263.75 782.603 263.694 782.22 263.694C781.838 263.694 781.492 263.75 781.184 263.862C780.886 263.974 780.648 264.133 780.47 264.338C780.302 264.544 780.218 264.777 780.218 265.038C780.218 265.29 780.302 265.519 780.47 265.724C780.638 265.93 780.872 266.093 781.17 266.215C781.478 266.326 781.828 266.382 782.22 266.382ZM782.22 262.07C782.528 262.07 782.808 262.024 783.06 261.93C783.312 261.828 783.508 261.688 783.648 261.51C783.798 261.324 783.872 261.109 783.872 260.867C783.872 260.652 783.798 260.465 783.648 260.306C783.508 260.138 783.312 260.008 783.06 259.914C782.818 259.812 782.538 259.76 782.22 259.76C781.894 259.76 781.6 259.807 781.338 259.9C781.086 259.994 780.89 260.124 780.75 260.292C780.61 260.46 780.54 260.652 780.54 260.867C780.54 261.109 780.61 261.324 780.75 261.51C780.9 261.688 781.1 261.828 781.352 261.93C781.604 262.024 781.894 262.07 782.22 262.07ZM793.003 268.203C792.032 268.203 791.211 267.993 790.539 267.572C789.867 267.152 789.358 266.569 789.013 265.822C788.668 265.066 788.495 264.18 788.495 263.162C788.495 262.145 788.668 261.263 789.013 260.516C789.358 259.76 789.867 259.172 790.539 258.752C791.211 258.332 792.032 258.122 793.003 258.122C793.964 258.122 794.772 258.332 795.425 258.752C796.088 259.172 796.587 259.76 796.923 260.516C797.268 261.263 797.441 262.145 797.441 263.162C797.441 264.18 797.268 265.066 796.923 265.822C796.587 266.569 796.088 267.152 795.425 267.572C794.772 267.993 793.964 268.203 793.003 268.203ZM793.003 266.396C793.768 266.396 794.361 266.116 794.781 265.556C795.21 264.996 795.425 264.198 795.425 263.162C795.425 262.108 795.21 261.296 794.781 260.726C794.361 260.157 793.768 259.872 793.003 259.872C792.21 259.872 791.594 260.157 791.155 260.726C790.716 261.296 790.497 262.108 790.497 263.162C790.497 264.198 790.716 264.996 791.155 265.556C791.594 266.116 792.21 266.396 793.003 266.396ZM800.115 268.062L799.625 266.788L802.635 263.96C802.868 263.727 803.111 263.489 803.363 263.246C803.624 263.004 803.862 262.756 804.077 262.504C804.291 262.243 804.464 261.991 804.595 261.748C804.725 261.506 804.791 261.282 804.791 261.076C804.791 260.843 804.739 260.642 804.637 260.474C804.534 260.306 804.38 260.176 804.175 260.082C803.969 259.989 803.717 259.942 803.419 259.942C803.139 259.942 802.859 259.998 802.579 260.11C802.308 260.222 802.042 260.4 801.781 260.642C801.529 260.885 801.295 261.198 801.081 261.58L799.527 260.642C799.797 260.148 800.133 259.709 800.535 259.326C800.936 258.934 801.403 258.626 801.935 258.402C802.467 258.178 803.041 258.066 803.657 258.066C804.301 258.066 804.865 258.188 805.351 258.43C805.836 258.664 806.214 258.986 806.485 259.396C806.755 259.807 806.891 260.283 806.891 260.824C806.891 261.114 806.844 261.398 806.751 261.678C806.657 261.958 806.522 262.234 806.345 262.504C806.177 262.766 805.981 263.032 805.757 263.302C805.533 263.564 805.29 263.825 805.029 264.086C804.777 264.348 804.511 264.609 804.231 264.87L801.767 267.152L801.627 266.172H807.297V268.062H800.115ZM810.424 268.062L814.386 259.158L814.89 260.068H809.192V258.206H816.108L816.318 259.284L812.566 268.062H810.424ZM817.869 270.975L817.169 270.163C817.608 269.929 817.963 269.687 818.233 269.435C818.504 269.183 818.639 268.954 818.639 268.749C818.639 268.618 818.593 268.501 818.499 268.399C818.406 268.296 818.275 268.193 818.107 268.091C817.902 267.978 817.72 267.843 817.561 267.684C817.412 267.526 817.337 267.325 817.337 267.082C817.337 266.737 817.463 266.476 817.715 266.298C817.977 266.121 818.289 266.032 818.653 266.032C818.961 266.032 819.251 266.121 819.521 266.298C819.792 266.466 820.011 266.7 820.179 266.998C820.347 267.288 820.431 267.619 820.431 267.992C820.431 268.291 820.361 268.59 820.221 268.889C820.091 269.197 819.904 269.486 819.661 269.757C819.419 270.027 819.143 270.265 818.835 270.471C818.527 270.685 818.205 270.853 817.869 270.975ZM835.16 268.203C834.329 268.203 833.569 268.077 832.878 267.824C832.187 267.563 831.581 267.204 831.058 266.746C830.545 266.289 830.148 265.752 829.868 265.136C829.597 264.52 829.462 263.853 829.462 263.134C829.462 262.416 829.602 261.748 829.882 261.132C830.162 260.516 830.559 259.98 831.072 259.522C831.585 259.065 832.187 258.71 832.878 258.458C833.569 258.197 834.329 258.066 835.16 258.066C836 258.066 836.765 258.192 837.456 258.444C838.147 258.696 838.749 259.056 839.262 259.522C839.775 259.98 840.172 260.516 840.452 261.132C840.732 261.748 840.872 262.416 840.872 263.134C840.872 263.853 840.732 264.52 840.452 265.136C840.172 265.752 839.775 266.294 839.262 266.76C838.749 267.218 838.147 267.572 837.456 267.824C836.765 268.077 836 268.203 835.16 268.203ZM835.16 266.215C835.683 266.215 836.159 266.14 836.588 265.99C837.027 265.832 837.405 265.612 837.722 265.332C838.049 265.052 838.301 264.726 838.478 264.352C838.655 263.979 838.744 263.573 838.744 263.134C838.744 262.696 838.655 262.29 838.478 261.916C838.301 261.543 838.049 261.221 837.722 260.95C837.405 260.67 837.027 260.451 836.588 260.292C836.159 260.134 835.683 260.054 835.16 260.054C834.647 260.054 834.171 260.134 833.732 260.292C833.303 260.451 832.925 260.666 832.598 260.936C832.271 261.207 832.024 261.534 831.856 261.916C831.688 262.29 831.604 262.696 831.604 263.134C831.604 263.573 831.688 263.984 831.856 264.367C832.024 264.74 832.271 265.066 832.598 265.346C832.925 265.617 833.303 265.832 833.732 265.99C834.171 266.14 834.647 266.215 835.16 266.215ZM848.878 268.147C847.935 268.147 847.109 267.955 846.4 267.572C845.691 267.18 845.135 266.653 844.734 265.99C844.333 265.318 844.132 264.558 844.132 263.708V258.248H846.246V263.624C846.246 264.128 846.363 264.576 846.596 264.968C846.829 265.36 847.142 265.673 847.534 265.906C847.935 266.13 848.383 266.242 848.878 266.242C849.391 266.242 849.849 266.13 850.25 265.906C850.661 265.673 850.983 265.36 851.216 264.968C851.449 264.576 851.566 264.128 851.566 263.624V258.248H853.61V263.708C853.61 264.558 853.409 265.318 853.008 265.99C852.607 266.653 852.051 267.18 851.342 267.572C850.633 267.955 849.811 268.147 848.878 268.147ZM857.574 268.062V258.262H862.782C863.454 258.262 864.047 258.398 864.56 258.668C865.083 258.93 865.489 259.294 865.778 259.76C866.067 260.227 866.212 260.764 866.212 261.37C866.212 261.977 866.058 262.523 865.75 263.008C865.442 263.494 865.022 263.881 864.49 264.17C863.967 264.45 863.379 264.59 862.726 264.59H859.604V268.062H857.574ZM864.252 268.062L861.228 263.638L863.426 263.288L866.73 268.077L864.252 268.062ZM859.604 262.882H862.53C862.819 262.882 863.081 262.822 863.314 262.7C863.547 262.579 863.729 262.411 863.86 262.196C864 261.972 864.07 261.725 864.07 261.454C864.07 261.174 864 260.932 863.86 260.726C863.72 260.521 863.524 260.362 863.272 260.25C863.02 260.138 862.74 260.082 862.432 260.082H859.604V262.882ZM876.401 268.062V266.2H878.655V260.124H876.401V258.262H883.023V260.124H880.755V266.2H883.023V268.062H876.401ZM887.146 268.062V258.262H889.106L895.784 265.584H895.476C895.439 265.267 895.402 264.954 895.364 264.646C895.336 264.338 895.313 264.035 895.294 263.736C895.276 263.438 895.257 263.139 895.238 262.84C895.229 262.532 895.22 262.224 895.21 261.916C895.201 261.599 895.196 261.272 895.196 260.936V258.262H897.254V268.062H895.266L888.476 260.671L888.924 260.684C888.952 260.946 888.98 261.202 889.008 261.454C889.036 261.697 889.06 261.94 889.078 262.182C889.106 262.425 889.125 262.672 889.134 262.924C889.153 263.176 889.167 263.433 889.176 263.694C889.195 263.956 889.204 264.236 889.204 264.534V268.062H887.146ZM905.216 268.203C904.507 268.203 903.858 268.133 903.27 267.992C902.682 267.843 902.15 267.638 901.674 267.376C901.208 267.106 900.783 266.779 900.4 266.396L901.534 264.772C902.16 265.37 902.785 265.794 903.41 266.046C904.045 266.289 904.694 266.41 905.356 266.41C905.692 266.41 906.019 266.373 906.336 266.298C906.654 266.214 906.915 266.088 907.12 265.92C907.335 265.752 907.442 265.533 907.442 265.262C907.442 265.085 907.391 264.936 907.288 264.814C907.186 264.693 907.046 264.595 906.868 264.52C906.691 264.436 906.486 264.366 906.252 264.31C906.019 264.254 905.772 264.208 905.51 264.17C905.258 264.133 905.006 264.096 904.754 264.058C904.166 263.974 903.63 263.853 903.144 263.694C902.668 263.536 902.262 263.335 901.926 263.092C901.6 262.85 901.348 262.56 901.17 262.224C901.002 261.888 900.918 261.506 900.918 261.076C900.918 260.619 901.026 260.204 901.24 259.831C901.464 259.448 901.772 259.126 902.164 258.864C902.556 258.603 903.014 258.407 903.536 258.276C904.059 258.136 904.614 258.066 905.202 258.066C905.856 258.066 906.439 258.132 906.952 258.262C907.475 258.393 907.932 258.575 908.324 258.808C908.726 259.042 909.057 259.322 909.318 259.648L908.128 261.062C907.886 260.801 907.606 260.587 907.288 260.418C906.971 260.241 906.63 260.106 906.266 260.012C905.902 259.919 905.538 259.872 905.174 259.872C904.773 259.872 904.418 259.914 904.11 259.998C903.802 260.073 903.56 260.19 903.382 260.349C903.205 260.507 903.116 260.698 903.116 260.922C903.116 261.118 903.182 261.286 903.312 261.426C903.452 261.566 903.634 261.683 903.858 261.776C904.082 261.86 904.339 261.935 904.628 262C904.918 262.056 905.226 262.103 905.552 262.14C906.094 262.224 906.607 262.327 907.092 262.448C907.587 262.56 908.026 262.719 908.408 262.924C908.791 263.13 909.09 263.4 909.304 263.736C909.519 264.072 909.626 264.492 909.626 264.996C909.626 265.668 909.44 266.242 909.066 266.718C908.693 267.194 908.175 267.563 907.512 267.824C906.85 268.077 906.084 268.203 905.216 268.203ZM915.437 268.062V260.153H911.965V258.262H921.107V260.153H917.537V268.062H915.437ZM922.17 268.062L926.636 258.262H928.666L933.118 268.062H930.92L928.274 262.252C928.199 262.066 928.12 261.874 928.036 261.678C927.952 261.482 927.868 261.286 927.784 261.09C927.709 260.885 927.635 260.684 927.56 260.488C927.495 260.283 927.434 260.087 927.378 259.9L927.84 259.886C927.784 260.092 927.719 260.297 927.644 260.502C927.569 260.708 927.49 260.908 927.406 261.104C927.331 261.3 927.252 261.496 927.168 261.692C927.084 261.888 927 262.089 926.916 262.294L924.27 268.062H922.17ZM924.2 266.088L924.914 264.394H930.276L930.724 266.088H924.2ZM940.5 268.203C939.707 268.203 938.965 268.091 938.274 267.866C937.593 267.633 937 267.302 936.496 266.872C935.992 266.434 935.595 265.902 935.306 265.276C935.026 264.651 934.886 263.937 934.886 263.134C934.886 262.416 935.031 261.753 935.32 261.146C935.609 260.53 936.015 259.998 936.538 259.55C937.07 259.093 937.691 258.738 938.4 258.486C939.119 258.234 939.898 258.108 940.738 258.108C941.391 258.108 941.998 258.188 942.558 258.346C943.127 258.496 943.631 258.692 944.07 258.934C944.518 259.177 944.877 259.443 945.148 259.732L943.846 261.16C943.566 260.927 943.263 260.726 942.936 260.558C942.609 260.39 942.259 260.255 941.886 260.153C941.522 260.05 941.135 259.998 940.724 259.998C940.211 259.998 939.73 260.078 939.282 260.236C938.843 260.395 938.456 260.614 938.12 260.894C937.793 261.174 937.537 261.506 937.35 261.888C937.163 262.271 937.07 262.686 937.07 263.134C937.07 263.657 937.168 264.119 937.364 264.52C937.56 264.922 937.826 265.253 938.162 265.514C938.507 265.766 938.895 265.962 939.324 266.102C939.763 266.233 940.225 266.298 940.71 266.298C941.149 266.298 941.559 266.252 941.942 266.158C942.334 266.065 942.67 265.93 942.95 265.752C943.239 265.575 943.463 265.365 943.622 265.122C943.781 264.88 943.855 264.623 943.846 264.352V264.072L944.126 264.534H940.57V262.798H945.918C945.927 262.929 945.937 263.064 945.946 263.204C945.955 263.344 945.96 263.475 945.96 263.596C945.969 263.708 945.974 263.788 945.974 263.834C945.974 264.544 945.839 265.169 945.568 265.71C945.307 266.242 944.933 266.695 944.448 267.068C943.963 267.442 943.384 267.726 942.712 267.922C942.04 268.109 941.303 268.203 940.5 268.203ZM949.258 268.062V258.262H954.466C955.138 258.262 955.73 258.398 956.244 258.668C956.766 258.93 957.172 259.294 957.462 259.76C957.751 260.227 957.896 260.764 957.896 261.37C957.896 261.977 957.742 262.523 957.434 263.008C957.126 263.494 956.706 263.881 956.174 264.17C955.651 264.45 955.063 264.59 954.41 264.59H951.288V268.062H949.258ZM955.936 268.062L952.912 263.638L955.11 263.288L958.414 268.077L955.936 268.062ZM951.288 262.882H954.214C954.503 262.882 954.764 262.822 954.998 262.7C955.231 262.579 955.413 262.411 955.544 262.196C955.684 261.972 955.754 261.725 955.754 261.454C955.754 261.174 955.684 260.932 955.544 260.726C955.404 260.521 955.208 260.362 954.956 260.25C954.704 260.138 954.424 260.082 954.116 260.082H951.288V262.882ZM960.574 268.062L965.04 258.262H967.07L971.522 268.062H969.324L966.678 262.252C966.604 262.066 966.524 261.874 966.44 261.678C966.356 261.482 966.272 261.286 966.188 261.09C966.114 260.885 966.039 260.684 965.964 260.488C965.899 260.283 965.838 260.087 965.782 259.9L966.244 259.886C966.188 260.092 966.123 260.297 966.048 260.502C965.974 260.708 965.894 260.908 965.81 261.104C965.736 261.3 965.656 261.496 965.572 261.692C965.488 261.888 965.404 262.089 965.32 262.294L962.674 268.062H960.574ZM962.604 266.088L963.318 264.394H968.68L969.128 266.088H962.604ZM974.25 268.062V258.262H976.168L980.312 263.89H979.164L983.322 258.262H985.212V268.062H983.154V264.618C983.154 263.816 983.172 263.078 983.21 262.406C983.247 261.725 983.322 261.039 983.434 260.349L983.658 261.034L980.186 265.542H979.262L975.79 261.034L976.028 260.349C976.13 261.02 976.2 261.697 976.238 262.378C976.284 263.05 976.308 263.797 976.308 264.618V268.062H974.25ZM999.992 270.513C999.161 270.513 998.405 270.373 997.724 270.093C997.042 269.822 996.45 269.439 995.946 268.945C995.451 268.459 995.068 267.885 994.798 267.222C994.527 266.56 994.392 265.841 994.392 265.066C994.392 263.974 994.606 262.99 995.036 262.112C995.474 261.235 996.076 260.484 996.842 259.858C997.607 259.233 998.489 258.757 999.488 258.43C1000.5 258.104 1001.57 257.94 1002.71 257.94C1003.67 257.94 1004.52 258.066 1005.27 258.318C1006.03 258.57 1006.66 258.92 1007.17 259.368C1007.69 259.816 1008.08 260.339 1008.35 260.936C1008.62 261.534 1008.76 262.182 1008.76 262.882C1008.76 263.582 1008.65 264.208 1008.43 264.758C1008.22 265.309 1007.92 265.776 1007.54 266.158C1007.16 266.541 1006.74 266.835 1006.25 267.04C1005.77 267.236 1005.27 267.334 1004.72 267.334C1004.32 267.334 1003.97 267.264 1003.67 267.124C1003.38 266.975 1003.16 266.784 1003 266.55C1002.85 266.308 1002.78 266.056 1002.78 265.794C1002.78 265.645 1002.79 265.5 1002.81 265.36C1002.82 265.22 1002.84 265.08 1002.85 264.94L1003.24 265.276C1003.02 265.687 1002.73 266.051 1002.39 266.368C1002.04 266.676 1001.67 266.914 1001.27 267.082C1000.86 267.25 1000.45 267.334 1000.03 267.334C999.548 267.334 999.114 267.236 998.732 267.04C998.349 266.835 998.046 266.546 997.822 266.172C997.607 265.79 997.5 265.342 997.5 264.828C997.5 264.371 997.593 263.909 997.78 263.442C997.966 262.976 998.232 262.551 998.578 262.168C998.923 261.776 999.329 261.464 999.796 261.23C1000.27 260.988 1000.79 260.867 1001.36 260.867C1001.79 260.867 1002.17 260.946 1002.48 261.104C1002.8 261.263 1003.05 261.478 1003.24 261.748C1003.44 262.01 1003.56 262.304 1003.6 262.63L1003.11 263.274L1003.51 261.132H1005.33L1004.63 264.786C1004.58 265.057 1004.57 265.281 1004.6 265.458C1004.64 265.626 1004.71 265.752 1004.82 265.836C1004.94 265.911 1005.09 265.948 1005.27 265.948C1005.52 265.948 1005.77 265.883 1006.03 265.752C1006.28 265.612 1006.51 265.416 1006.73 265.164C1006.94 264.903 1007.11 264.586 1007.23 264.212C1007.35 263.839 1007.41 263.419 1007.41 262.952C1007.41 262.168 1007.22 261.492 1006.84 260.922C1006.46 260.353 1005.91 259.914 1005.2 259.606C1004.49 259.289 1003.63 259.13 1002.62 259.13C1001.61 259.13 1000.67 259.266 999.824 259.536C998.984 259.798 998.26 260.185 997.654 260.698C997.047 261.202 996.576 261.823 996.24 262.56C995.913 263.288 995.75 264.119 995.75 265.052C995.75 265.706 995.852 266.289 996.058 266.802C996.272 267.316 996.566 267.754 996.94 268.119C997.322 268.492 997.775 268.772 998.298 268.959C998.82 269.155 999.399 269.253 1000.03 269.253C1000.53 269.253 1000.95 269.225 1001.29 269.169C1001.64 269.113 1001.97 269.019 1002.29 268.889C1002.61 268.767 1002.98 268.609 1003.39 268.413L1003.91 269.491C1003.46 269.696 1003.04 269.873 1002.64 270.023C1002.24 270.181 1001.83 270.303 1001.41 270.387C1000.99 270.471 1000.51 270.513 999.992 270.513ZM1000.66 265.682C1000.98 265.682 1001.29 265.617 1001.59 265.486C1001.89 265.356 1002.15 265.174 1002.37 264.94C1002.6 264.698 1002.76 264.418 1002.86 264.1C1002.9 263.998 1002.93 263.89 1002.96 263.778C1002.99 263.657 1003 263.55 1003 263.456C1003.02 263.223 1002.98 263.027 1002.88 262.868C1002.77 262.7 1002.62 262.574 1002.41 262.49C1002.22 262.406 1001.98 262.364 1001.69 262.364C1001.26 262.364 1000.88 262.472 1000.55 262.686C1000.23 262.901 999.987 263.176 999.81 263.512C999.632 263.848 999.544 264.194 999.544 264.548C999.544 264.894 999.651 265.169 999.866 265.374C1000.09 265.58 1000.36 265.682 1000.66 265.682ZM1015.7 268.203C1014.99 268.203 1014.34 268.133 1013.75 267.992C1013.16 267.843 1012.63 267.638 1012.16 267.376C1011.69 267.106 1011.27 266.779 1010.88 266.396L1012.02 264.772C1012.64 265.37 1013.27 265.794 1013.89 266.046C1014.53 266.289 1015.18 266.41 1015.84 266.41C1016.17 266.41 1016.5 266.373 1016.82 266.298C1017.14 266.214 1017.4 266.088 1017.6 265.92C1017.82 265.752 1017.92 265.533 1017.92 265.262C1017.92 265.085 1017.87 264.936 1017.77 264.814C1017.67 264.693 1017.53 264.595 1017.35 264.52C1017.17 264.436 1016.97 264.366 1016.73 264.31C1016.5 264.254 1016.25 264.208 1015.99 264.17C1015.74 264.133 1015.49 264.096 1015.24 264.058C1014.65 263.974 1014.11 263.853 1013.63 263.694C1013.15 263.536 1012.74 263.335 1012.41 263.092C1012.08 262.85 1011.83 262.56 1011.65 262.224C1011.48 261.888 1011.4 261.506 1011.4 261.076C1011.4 260.619 1011.51 260.204 1011.72 259.831C1011.95 259.448 1012.25 259.126 1012.65 258.864C1013.04 258.603 1013.5 258.407 1014.02 258.276C1014.54 258.136 1015.1 258.066 1015.68 258.066C1016.34 258.066 1016.92 258.132 1017.43 258.262C1017.96 258.393 1018.41 258.575 1018.81 258.808C1019.21 259.042 1019.54 259.322 1019.8 259.648L1018.61 261.062C1018.37 260.801 1018.09 260.587 1017.77 260.418C1017.45 260.241 1017.11 260.106 1016.75 260.012C1016.38 259.919 1016.02 259.872 1015.66 259.872C1015.26 259.872 1014.9 259.914 1014.59 259.998C1014.28 260.073 1014.04 260.19 1013.86 260.349C1013.69 260.507 1013.6 260.698 1013.6 260.922C1013.6 261.118 1013.66 261.286 1013.79 261.426C1013.93 261.566 1014.12 261.683 1014.34 261.776C1014.56 261.86 1014.82 261.935 1015.11 262C1015.4 262.056 1015.71 262.103 1016.03 262.14C1016.58 262.224 1017.09 262.327 1017.57 262.448C1018.07 262.56 1018.51 262.719 1018.89 262.924C1019.27 263.13 1019.57 263.4 1019.79 263.736C1020 264.072 1020.11 264.492 1020.11 264.996C1020.11 265.668 1019.92 266.242 1019.55 266.718C1019.18 267.194 1018.66 267.563 1017.99 267.824C1017.33 268.077 1016.57 268.203 1015.7 268.203ZM1025.46 268.062L1022.17 258.262H1024.35L1026.06 263.498C1026.13 263.694 1026.2 263.914 1026.27 264.156C1026.34 264.39 1026.41 264.632 1026.47 264.884C1026.53 265.136 1026.59 265.374 1026.63 265.598C1026.68 265.813 1026.72 266 1026.75 266.158L1026.27 266.144C1026.34 265.855 1026.42 265.561 1026.49 265.262C1026.58 264.964 1026.67 264.665 1026.77 264.367C1026.88 264.068 1026.99 263.774 1027.11 263.484L1028.68 259.676H1030.47L1032.01 263.47C1032.14 263.778 1032.26 264.091 1032.36 264.408C1032.47 264.716 1032.57 265.01 1032.65 265.29C1032.74 265.57 1032.8 265.832 1032.84 266.074L1032.4 266.13C1032.43 265.972 1032.46 265.808 1032.49 265.64C1032.52 265.463 1032.56 265.286 1032.6 265.108C1032.63 264.922 1032.68 264.735 1032.72 264.548C1032.78 264.362 1032.83 264.175 1032.88 263.988C1032.93 263.802 1033 263.615 1033.07 263.428L1034.94 258.262H1037.06L1033.47 268.062H1031.91L1029.34 261.972L1029.64 262L1027.15 268.062H1025.46ZM1037.97 268.062L1042.44 258.262H1044.47L1048.92 268.062H1046.72L1044.07 262.252C1044 262.066 1043.92 261.874 1043.84 261.678C1043.75 261.482 1043.67 261.286 1043.58 261.09C1043.51 260.885 1043.44 260.684 1043.36 260.488C1043.3 260.283 1043.23 260.087 1043.18 259.9L1043.64 259.886C1043.58 260.092 1043.52 260.297 1043.44 260.502C1043.37 260.708 1043.29 260.908 1043.21 261.104C1043.13 261.3 1043.05 261.496 1042.97 261.692C1042.88 261.888 1042.8 262.089 1042.72 262.294L1040.07 268.062H1037.97ZM1040 266.088L1040.71 264.394H1046.08L1046.52 266.088H1040ZM1056.3 268.203C1055.51 268.203 1054.77 268.091 1054.07 267.866C1053.39 267.633 1052.8 267.302 1052.3 266.872C1051.79 266.434 1051.4 265.902 1051.11 265.276C1050.83 264.651 1050.69 263.937 1050.69 263.134C1050.69 262.416 1050.83 261.753 1051.12 261.146C1051.41 260.53 1051.82 259.998 1052.34 259.55C1052.87 259.093 1053.49 258.738 1054.2 258.486C1054.92 258.234 1055.7 258.108 1056.54 258.108C1057.19 258.108 1057.8 258.188 1058.36 258.346C1058.93 258.496 1059.43 258.692 1059.87 258.934C1060.32 259.177 1060.68 259.443 1060.95 259.732L1059.65 261.16C1059.37 260.927 1059.06 260.726 1058.74 260.558C1058.41 260.39 1058.06 260.255 1057.69 260.153C1057.32 260.05 1056.94 259.998 1056.52 259.998C1056.01 259.998 1055.53 260.078 1055.08 260.236C1054.64 260.395 1054.26 260.614 1053.92 260.894C1053.59 261.174 1053.34 261.506 1053.15 261.888C1052.96 262.271 1052.87 262.686 1052.87 263.134C1052.87 263.657 1052.97 264.119 1053.16 264.52C1053.36 264.922 1053.63 265.253 1053.96 265.514C1054.31 265.766 1054.7 265.962 1055.12 266.102C1055.56 266.233 1056.03 266.298 1056.51 266.298C1056.95 266.298 1057.36 266.252 1057.74 266.158C1058.13 266.065 1058.47 265.93 1058.75 265.752C1059.04 265.575 1059.26 265.365 1059.42 265.122C1059.58 264.88 1059.66 264.623 1059.65 264.352V264.072L1059.93 264.534H1056.37V262.798H1061.72C1061.73 262.929 1061.74 263.064 1061.75 263.204C1061.76 263.344 1061.76 263.475 1061.76 263.596C1061.77 263.708 1061.77 263.788 1061.77 263.834C1061.77 264.544 1061.64 265.169 1061.37 265.71C1061.11 266.242 1060.73 266.695 1060.25 267.068C1059.76 267.442 1059.18 267.726 1058.51 267.922C1057.84 268.109 1057.1 268.203 1056.3 268.203ZM1065.06 268.062V258.262H1070.32C1070.93 258.262 1071.48 258.402 1071.97 258.682C1072.48 258.953 1072.88 259.326 1073.18 259.802C1073.48 260.278 1073.63 260.815 1073.63 261.412C1073.63 262.038 1073.47 262.602 1073.15 263.106C1072.84 263.601 1072.42 263.993 1071.89 264.282C1071.37 264.572 1070.78 264.716 1070.14 264.716H1067.16V268.062H1065.06ZM1067.13 262.826H1069.83C1070.12 262.826 1070.39 262.766 1070.63 262.644C1070.87 262.523 1071.06 262.355 1071.2 262.14C1071.34 261.926 1071.41 261.688 1071.41 261.426C1071.41 261.174 1071.34 260.955 1071.2 260.768C1071.06 260.572 1070.87 260.423 1070.63 260.32C1070.39 260.208 1070.12 260.153 1069.83 260.153H1067.13V262.826ZM1077.06 268.062V258.262H1084.93V260.11H1079.11V266.215H1085.03V268.062H1077.06ZM1078.13 263.96V262.168H1084.26V263.96H1078.13ZM1088.72 268.062V258.262H1090.82V266.172H1096.51V268.062H1088.72ZM1099.88 268.062V258.262H1101.8L1105.94 263.89H1104.79L1108.95 258.262H1110.84V268.062H1108.78V264.618C1108.78 263.816 1108.8 263.078 1108.84 262.406C1108.88 261.725 1108.95 261.039 1109.06 260.349L1109.29 261.034L1105.82 265.542H1104.89L1101.42 261.034L1101.66 260.349C1101.76 261.02 1101.83 261.697 1101.87 262.378C1101.92 263.05 1101.94 263.797 1101.94 264.618V268.062H1099.88ZM1114.91 268.062V258.262H1122.77V260.11H1116.95V266.215H1122.87V268.062H1114.91ZM1115.97 263.96V262.168H1122.1V263.96H1115.97ZM1126.57 268.062V258.262H1128.53L1135.21 265.584H1134.9C1134.86 265.267 1134.82 264.954 1134.79 264.646C1134.76 264.338 1134.73 264.035 1134.72 263.736C1134.7 263.438 1134.68 263.139 1134.66 262.84C1134.65 262.532 1134.64 262.224 1134.63 261.916C1134.62 261.599 1134.62 261.272 1134.62 260.936V258.262H1136.68V268.062H1134.69L1127.9 260.671L1128.35 260.684C1128.37 260.946 1128.4 261.202 1128.43 261.454C1128.46 261.697 1128.48 261.94 1128.5 262.182C1128.53 262.425 1128.55 262.672 1128.56 262.924C1128.57 263.176 1128.59 263.433 1128.6 263.694C1128.62 263.956 1128.63 264.236 1128.63 264.534V268.062H1126.57ZM1140.79 268.062V266.2H1143.04V260.124H1140.79V258.262H1147.41V260.124H1145.14V266.2H1147.41V268.062H1140.79Z" fill="#F5EBD8"/>
<path d="M133.157 72.5V53.456H123.941V47.3H149.789V53.456H140.285V72.5H133.157ZM165.629 72.5V60.764L166.169 63.176L153.857 47.3H162.317L171.389 59.468L167.213 59.396L175.889 47.3H183.881L172.505 62.708L172.829 60.476V72.5H165.629ZM189.877 72.5V47.3H203.881C205.609 47.3 207.157 47.672 208.525 48.416C209.917 49.136 211.021 50.132 211.837 51.404C212.653 52.676 213.061 54.14 213.061 55.796C213.061 57.548 212.629 59.108 211.765 60.476C210.925 61.844 209.773 62.924 208.309 63.716C206.869 64.484 205.237 64.868 203.413 64.868H197.005V72.5H189.877ZM196.897 58.712H202.009C202.705 58.712 203.317 58.604 203.845 58.388C204.373 58.172 204.793 57.848 205.105 57.416C205.441 56.984 205.609 56.48 205.609 55.904C205.609 55.352 205.441 54.896 205.105 54.536C204.793 54.176 204.373 53.912 203.845 53.744C203.317 53.552 202.705 53.456 202.009 53.456H196.897V58.712ZM221.518 72.5V47.3H243.046V53.168H228.358V66.632H243.586V72.5H221.518ZM225.118 62.492V56.948H241.606V62.492H225.118ZM262.969 72.86C260.929 72.86 259.081 72.668 257.425 72.284C255.793 71.9 254.329 71.384 253.033 70.736C251.737 70.064 250.561 69.32 249.505 68.504L252.889 63.212C254.713 64.604 256.537 65.576 258.361 66.128C260.209 66.68 261.913 66.956 263.473 66.956C264.049 66.956 264.637 66.908 265.237 66.812C265.837 66.716 266.353 66.536 266.785 66.272C267.217 65.984 267.433 65.576 267.433 65.048C267.433 64.712 267.325 64.436 267.109 64.22C266.917 63.98 266.629 63.788 266.245 63.644C265.861 63.476 265.405 63.344 264.877 63.248C264.373 63.152 263.809 63.068 263.185 62.996C262.561 62.924 261.901 62.84 261.205 62.744C259.621 62.552 258.181 62.252 256.885 61.844C255.613 61.412 254.533 60.872 253.645 60.224C252.757 59.576 252.073 58.808 251.593 57.92C251.137 57.032 250.909 56.012 250.909 54.86C250.909 53.588 251.221 52.436 251.845 51.404C252.469 50.372 253.321 49.508 254.401 48.812C255.505 48.092 256.777 47.552 258.217 47.192C259.657 46.832 261.181 46.652 262.789 46.652C264.613 46.652 266.221 46.82 267.613 47.156C269.029 47.468 270.253 47.9 271.285 48.452C272.317 49.004 273.181 49.604 273.877 50.252L270.349 54.86C269.653 54.356 268.885 53.948 268.045 53.636C267.205 53.3 266.317 53.048 265.381 52.88C264.445 52.688 263.557 52.592 262.717 52.592C261.853 52.592 261.097 52.652 260.449 52.772C259.801 52.892 259.285 53.084 258.901 53.348C258.517 53.612 258.325 53.948 258.325 54.356C258.325 54.788 258.517 55.124 258.901 55.364C259.285 55.604 259.777 55.808 260.377 55.976C260.977 56.12 261.589 56.24 262.213 56.336C262.837 56.408 263.425 56.468 263.977 56.516C265.369 56.684 266.713 56.912 268.009 57.2C269.305 57.488 270.457 57.908 271.465 58.46C272.497 59.012 273.301 59.768 273.877 60.728C274.477 61.664 274.777 62.876 274.777 64.364C274.777 66.188 274.261 67.736 273.229 69.008C272.221 70.256 270.805 71.216 268.981 71.888C267.181 72.536 265.177 72.86 262.969 72.86Z" fill="#F5EBD8"/>
<path opacity="0.8" d="M198.985 159.796C196.921 159.796 195.061 159.459 193.405 158.787C191.773 158.091 190.489 157.155 189.553 155.979C188.617 154.803 188.149 153.459 188.149 151.947C188.149 150.819 188.341 149.859 188.725 149.067C189.109 148.251 189.625 147.579 190.273 147.051C190.921 146.523 191.653 146.103 192.469 145.791C193.285 145.455 194.125 145.203 194.989 145.035L194.449 147.159C193.873 146.895 193.285 146.571 192.685 146.187C192.085 145.803 191.533 145.347 191.029 144.819C190.525 144.291 190.117 143.703 189.805 143.055C189.517 142.407 189.373 141.675 189.373 140.859C189.373 139.515 189.805 138.327 190.669 137.295C191.533 136.239 192.685 135.411 194.125 134.811C195.565 134.187 197.185 133.875 198.985 133.875C200.785 133.875 202.405 134.187 203.845 134.811C205.285 135.411 206.425 136.239 207.265 137.295C208.129 138.327 208.561 139.515 208.561 140.859C208.561 141.723 208.405 142.479 208.093 143.127C207.805 143.775 207.409 144.363 206.905 144.891C206.401 145.395 205.849 145.839 205.249 146.223C204.673 146.607 204.085 146.919 203.485 147.159L203.089 145.071C203.953 145.239 204.793 145.491 205.609 145.827C206.425 146.163 207.145 146.619 207.769 147.195C208.417 147.747 208.921 148.419 209.281 149.211C209.665 149.979 209.857 150.891 209.857 151.947C209.857 153.459 209.389 154.803 208.453 155.979C207.517 157.155 206.221 158.091 204.565 158.787C202.933 159.459 201.073 159.796 198.985 159.796ZM198.985 154.431C199.825 154.431 200.569 154.323 201.217 154.107C201.865 153.867 202.357 153.531 202.693 153.099C203.053 152.643 203.233 152.139 203.233 151.587C203.233 151.035 203.053 150.543 202.693 150.111C202.357 149.679 201.865 149.343 201.217 149.104C200.593 148.863 199.849 148.743 198.985 148.743C198.145 148.743 197.401 148.863 196.753 149.104C196.105 149.343 195.601 149.679 195.241 150.111C194.881 150.543 194.701 151.035 194.701 151.587C194.701 152.115 194.881 152.607 195.241 153.063C195.601 153.495 196.093 153.831 196.717 154.071C197.365 154.311 198.121 154.431 198.985 154.431ZM198.985 143.595C199.681 143.595 200.293 143.499 200.821 143.307C201.373 143.091 201.793 142.791 202.081 142.407C202.369 141.999 202.513 141.531 202.513 141.003C202.513 140.547 202.357 140.139 202.045 139.779C201.757 139.419 201.349 139.143 200.821 138.951C200.293 138.759 199.681 138.663 198.985 138.663C198.289 138.663 197.665 138.759 197.113 138.951C196.585 139.119 196.165 139.395 195.853 139.779C195.565 140.139 195.421 140.547 195.421 141.003C195.421 141.531 195.565 141.999 195.853 142.407C196.165 142.791 196.585 143.091 197.113 143.307C197.641 143.499 198.265 143.595 198.985 143.595Z" fill="#3A2020"/>
<path d="M580.226 159.94C578.09 159.94 576.11 159.556 574.286 158.787C572.486 158.019 570.962 157.011 569.714 155.763L573.458 151.335C574.37 152.175 575.378 152.847 576.482 153.351C577.61 153.855 578.75 154.107 579.902 154.107C580.814 154.107 581.594 153.975 582.242 153.711C582.914 153.423 583.418 153.039 583.754 152.559C584.114 152.055 584.294 151.467 584.294 150.795C584.294 150.123 584.114 149.547 583.754 149.067C583.394 148.563 582.878 148.179 582.206 147.915C581.534 147.627 580.742 147.483 579.83 147.483C578.87 147.483 578.006 147.579 577.238 147.771C576.47 147.963 575.81 148.191 575.258 148.455C574.706 148.695 574.274 148.935 573.962 149.175L571.082 145.503L572.702 134.199H588.506V140.031H575.798L577.814 137.403L576.626 145.395L573.854 144.783C574.454 144.351 575.15 143.955 575.942 143.595C576.734 143.235 577.586 142.947 578.498 142.731C579.41 142.515 580.346 142.407 581.306 142.407C583.034 142.407 584.606 142.767 586.022 143.487C587.462 144.207 588.614 145.227 589.478 146.547C590.342 147.843 590.774 149.367 590.774 151.119C590.774 152.775 590.306 154.275 589.37 155.619C588.434 156.939 587.162 157.995 585.554 158.787C583.97 159.556 582.194 159.94 580.226 159.94ZM608.718 160.048C605.934 160.048 603.594 159.519 601.698 158.463C599.826 157.383 598.41 155.883 597.45 153.963C596.49 152.019 596.01 149.727 596.01 147.087C596.01 144.423 596.49 142.131 597.45 140.211C598.41 138.291 599.826 136.803 601.698 135.747C603.594 134.667 605.934 134.127 608.718 134.127C611.478 134.127 613.782 134.667 615.63 135.747C617.502 136.803 618.906 138.291 619.842 140.211C620.778 142.131 621.246 144.423 621.246 147.087C621.246 149.727 620.778 152.019 619.842 153.963C618.906 155.883 617.502 157.383 615.63 158.463C613.782 159.519 611.478 160.048 608.718 160.048ZM608.718 154.107C610.542 154.107 611.958 153.507 612.966 152.307C613.974 151.083 614.478 149.343 614.478 147.087C614.478 144.735 613.974 142.923 612.966 141.651C611.958 140.379 610.542 139.743 608.718 139.743C606.846 139.743 605.382 140.379 604.326 141.651C603.27 142.923 602.742 144.735 602.742 147.087C602.742 149.343 603.27 151.083 604.326 152.307C605.382 153.507 606.846 154.107 608.718 154.107ZM639.128 160.048C636.344 160.048 634.004 159.519 632.108 158.463C630.236 157.383 628.82 155.883 627.86 153.963C626.9 152.019 626.42 149.727 626.42 147.087C626.42 144.423 626.9 142.131 627.86 140.211C628.82 138.291 630.236 136.803 632.108 135.747C634.004 134.667 636.344 134.127 639.128 134.127C641.888 134.127 644.192 134.667 646.04 135.747C647.912 136.803 649.316 138.291 650.252 140.211C651.188 142.131 651.656 144.423 651.656 147.087C651.656 149.727 651.188 152.019 650.252 153.963C649.316 155.883 647.912 157.383 646.04 158.463C644.192 159.519 641.888 160.048 639.128 160.048ZM639.128 154.107C640.952 154.107 642.368 153.507 643.376 152.307C644.384 151.083 644.888 149.343 644.888 147.087C644.888 144.735 644.384 142.923 643.376 141.651C642.368 140.379 640.952 139.743 639.128 139.743C637.256 139.743 635.792 140.379 634.736 141.651C633.68 142.923 633.152 144.735 633.152 147.087C633.152 149.343 633.68 151.083 634.736 152.307C635.792 153.507 637.256 154.107 639.128 154.107ZM669.538 160.048C666.754 160.048 664.414 159.519 662.518 158.463C660.646 157.383 659.23 155.883 658.27 153.963C657.31 152.019 656.83 149.727 656.83 147.087C656.83 144.423 657.31 142.131 658.27 140.211C659.23 138.291 660.646 136.803 662.518 135.747C664.414 134.667 666.754 134.127 669.538 134.127C672.298 134.127 674.602 134.667 676.45 135.747C678.322 136.803 679.726 138.291 680.662 140.211C681.598 142.131 682.066 144.423 682.066 147.087C682.066 149.727 681.598 152.019 680.662 153.963C679.726 155.883 678.322 157.383 676.45 158.463C674.602 159.519 672.298 160.048 669.538 160.048ZM669.538 154.107C671.362 154.107 672.778 153.507 673.786 152.307C674.794 151.083 675.298 149.343 675.298 147.087C675.298 144.735 674.794 142.923 673.786 141.651C672.778 140.379 671.362 139.743 669.538 139.743C667.666 139.743 666.202 140.379 665.146 141.651C664.09 142.923 663.562 144.735 663.562 147.087C663.562 149.343 664.09 151.083 665.146 152.307C666.202 153.507 667.666 154.107 669.538 154.107ZM687.78 151.659V146.871H709.812V151.659H687.78ZM696.276 159.724V139.023H701.208V159.724H696.276Z" fill="#3A2020"/>
<path d="M1031.1 160.048C1028.58 160.048 1026.39 159.543 1024.55 158.535C1022.72 157.527 1021.17 156.075 1019.9 154.179L1024.94 150.615C1025.33 151.239 1025.81 151.827 1026.38 152.379C1026.98 152.931 1027.67 153.375 1028.43 153.711C1029.23 154.047 1030.09 154.215 1031.03 154.215C1031.91 154.215 1032.71 154.107 1033.4 153.891C1034.1 153.675 1034.65 153.351 1035.06 152.919C1035.49 152.487 1035.71 151.935 1035.71 151.263C1035.71 150.591 1035.49 150.051 1035.06 149.643C1034.63 149.235 1034.06 148.947 1033.37 148.779C1032.69 148.587 1032.01 148.491 1031.31 148.491C1030.93 148.491 1030.55 148.527 1030.16 148.599C1029.78 148.647 1029.43 148.719 1029.12 148.815C1028.81 148.887 1028.53 148.983 1028.29 149.104L1026.63 145.359L1033.15 139.348L1034.55 140.319L1021.85 140.031V134.199H1040.13L1041.43 137.691L1031.85 146.511L1030.2 143.739C1030.46 143.643 1030.87 143.571 1031.42 143.523C1032 143.451 1032.63 143.415 1033.33 143.415C1034.46 143.415 1035.55 143.619 1036.61 144.027C1037.69 144.411 1038.65 144.963 1039.49 145.683C1040.33 146.403 1040.99 147.231 1041.47 148.167C1041.97 149.103 1042.22 150.123 1042.22 151.227C1042.22 152.955 1041.72 154.491 1040.71 155.835C1039.73 157.179 1038.39 158.223 1036.71 158.967C1035.06 159.688 1033.19 160.048 1031.1 160.048ZM1060.39 160.048C1057.6 160.048 1055.26 159.519 1053.37 158.463C1051.49 157.383 1050.08 155.883 1049.12 153.963C1048.16 152.019 1047.68 149.727 1047.68 147.087C1047.68 144.423 1048.16 142.131 1049.12 140.211C1050.08 138.291 1051.49 136.803 1053.37 135.747C1055.26 134.667 1057.6 134.127 1060.39 134.127C1063.15 134.127 1065.45 134.667 1067.3 135.747C1069.17 136.803 1070.57 138.291 1071.51 140.211C1072.45 142.131 1072.91 144.423 1072.91 147.087C1072.91 149.727 1072.45 152.019 1071.51 153.963C1070.57 155.883 1069.17 157.383 1067.3 158.463C1065.45 159.519 1063.15 160.048 1060.39 160.048ZM1060.39 154.107C1062.21 154.107 1063.63 153.507 1064.63 152.307C1065.64 151.083 1066.15 149.343 1066.15 147.087C1066.15 144.735 1065.64 142.923 1064.63 141.651C1063.63 140.379 1062.21 139.743 1060.39 139.743C1058.51 139.743 1057.05 140.379 1055.99 141.651C1054.94 142.923 1054.41 144.735 1054.41 147.087C1054.41 149.343 1054.94 151.083 1055.99 152.307C1057.05 153.507 1058.51 154.107 1060.39 154.107ZM1090.8 160.048C1088.01 160.048 1085.67 159.519 1083.78 158.463C1081.9 157.383 1080.49 155.883 1079.53 153.963C1078.57 152.019 1078.09 149.727 1078.09 147.087C1078.09 144.423 1078.57 142.131 1079.53 140.211C1080.49 138.291 1081.9 136.803 1083.78 135.747C1085.67 134.667 1088.01 134.127 1090.8 134.127C1093.56 134.127 1095.86 134.667 1097.71 135.747C1099.58 136.803 1100.98 138.291 1101.92 140.211C1102.86 142.131 1103.32 144.423 1103.32 147.087C1103.32 149.727 1102.86 152.019 1101.92 153.963C1100.98 155.883 1099.58 157.383 1097.71 158.463C1095.86 159.519 1093.56 160.048 1090.8 160.048ZM1090.8 154.107C1092.62 154.107 1094.04 153.507 1095.04 152.307C1096.05 151.083 1096.56 149.343 1096.56 147.087C1096.56 144.735 1096.05 142.923 1095.04 141.651C1094.04 140.379 1092.62 139.743 1090.8 139.743C1088.92 139.743 1087.46 140.379 1086.4 141.651C1085.35 142.923 1084.82 144.735 1084.82 147.087C1084.82 149.343 1085.35 151.083 1086.4 152.307C1087.46 153.507 1088.92 154.107 1090.8 154.107ZM1121.21 160.048C1118.42 160.048 1116.08 159.519 1114.19 158.463C1112.31 157.383 1110.9 155.883 1109.94 153.963C1108.98 152.019 1108.5 149.727 1108.5 147.087C1108.5 144.423 1108.98 142.131 1109.94 140.211C1110.9 138.291 1112.31 136.803 1114.19 135.747C1116.08 134.667 1118.42 134.127 1121.21 134.127C1123.97 134.127 1126.27 134.667 1128.12 135.747C1129.99 136.803 1131.39 138.291 1132.33 140.211C1133.27 142.131 1133.73 144.423 1133.73 147.087C1133.73 149.727 1133.27 152.019 1132.33 153.963C1131.39 155.883 1129.99 157.383 1128.12 158.463C1126.27 159.519 1123.97 160.048 1121.21 160.048ZM1121.21 154.107C1123.03 154.107 1124.45 153.507 1125.45 152.307C1126.46 151.083 1126.97 149.343 1126.97 147.087C1126.97 144.735 1126.46 142.923 1125.45 141.651C1124.45 140.379 1123.03 139.743 1121.21 139.743C1119.33 139.743 1117.87 140.379 1116.81 141.651C1115.76 142.923 1115.23 144.735 1115.23 147.087C1115.23 149.343 1115.76 151.083 1116.81 152.307C1117.87 153.507 1119.33 154.107 1121.21 154.107ZM1139.45 151.659V146.871H1161.48V151.659H1139.45ZM1147.94 159.724V139.023H1152.88V159.724H1147.94Z" fill="#3A2020"/>
<path d="M573.735 72.86C571.503 72.86 569.451 72.536 567.579 71.888C565.731 71.216 564.123 70.292 562.755 69.116C561.411 67.94 560.367 66.56 559.623 64.976C558.879 63.368 558.507 61.628 558.507 59.756C558.507 57.86 558.879 56.12 559.623 54.536C560.391 52.952 561.447 51.572 562.791 50.396C564.159 49.22 565.767 48.308 567.615 47.66C569.463 46.988 571.503 46.652 573.735 46.652C575.967 46.652 578.007 46.976 579.855 47.624C581.703 48.272 583.311 49.196 584.679 50.396C586.047 51.572 587.103 52.952 587.847 54.536C588.591 56.12 588.963 57.848 588.963 59.72C588.963 61.616 588.591 63.368 587.847 64.976C587.103 66.56 586.047 67.952 584.679 69.152C583.311 70.328 581.703 71.24 579.855 71.888C578.007 72.536 575.967 72.86 573.735 72.86ZM573.735 66.236C574.887 66.236 575.943 66.08 576.903 65.768C577.887 65.432 578.739 64.976 579.459 64.4C580.179 63.8 580.731 63.104 581.115 62.312C581.499 61.52 581.691 60.668 581.691 59.756C581.691 58.844 581.499 57.992 581.115 57.2C580.731 56.408 580.179 55.724 579.459 55.148C578.739 54.548 577.887 54.092 576.903 53.78C575.943 53.444 574.887 53.276 573.735 53.276C572.583 53.276 571.515 53.444 570.531 53.78C569.571 54.092 568.731 54.536 568.011 55.112C567.291 55.688 566.739 56.372 566.355 57.164C565.971 57.956 565.779 58.82 565.779 59.756C565.779 60.668 565.971 61.532 566.355 62.348C566.739 63.14 567.291 63.824 568.011 64.4C568.731 64.976 569.571 65.432 570.531 65.768C571.515 66.08 572.583 66.236 573.735 66.236ZM597.217 72.5V47.3H610.753C612.793 47.3 614.521 47.636 615.937 48.308C617.377 48.98 618.481 49.928 619.249 51.152C620.017 52.352 620.401 53.78 620.401 55.436C620.401 57.116 619.993 58.604 619.177 59.9C618.361 61.196 617.233 62.216 615.793 62.96C614.377 63.68 612.757 64.04 610.933 64.04H603.913V72.5H597.217ZM613.597 72.5L605.821 61.124L613.237 60.224L621.733 72.5H613.597ZM603.913 58.928H610.033C610.657 58.928 611.209 58.808 611.689 58.568C612.193 58.328 612.589 57.992 612.877 57.56C613.165 57.104 613.309 56.564 613.309 55.94C613.309 55.292 613.165 54.752 612.877 54.32C612.589 53.888 612.181 53.564 611.653 53.348C611.125 53.132 610.525 53.024 609.853 53.024H603.913V58.928ZM629.877 72.5V47.3H642.585C644.793 47.3 646.785 47.636 648.561 48.308C650.337 48.956 651.837 49.868 653.061 51.044C654.309 52.196 655.269 53.528 655.941 55.04C656.613 56.552 656.949 58.172 656.949 59.9C656.949 61.628 656.613 63.26 655.941 64.796C655.269 66.332 654.309 67.676 653.061 68.828C651.813 69.98 650.301 70.88 648.525 71.528C646.773 72.176 644.793 72.5 642.585 72.5H629.877ZM637.005 67.964L635.889 66.344H642.405C643.605 66.344 644.649 66.164 645.537 65.804C646.449 65.444 647.193 64.964 647.769 64.364C648.369 63.764 648.825 63.08 649.137 62.312C649.449 61.544 649.605 60.74 649.605 59.9C649.605 59.036 649.449 58.22 649.137 57.452C648.825 56.684 648.369 56 647.769 55.4C647.193 54.8 646.449 54.332 645.537 53.996C644.649 53.636 643.605 53.456 642.405 53.456H635.781L637.005 51.908V67.964ZM665.209 72.5V47.3H686.737V53.168H672.049V66.632H687.277V72.5H665.209ZM668.809 62.492V56.948H685.297V62.492H668.809ZM696.077 72.5V47.3H709.613C711.653 47.3 713.381 47.636 714.797 48.308C716.237 48.98 717.341 49.928 718.109 51.152C718.877 52.352 719.261 53.78 719.261 55.436C719.261 57.116 718.853 58.604 718.037 59.9C717.221 61.196 716.093 62.216 714.653 62.96C713.237 63.68 711.617 64.04 709.793 64.04H702.773V72.5H696.077ZM712.457 72.5L704.681 61.124L712.097 60.224L720.593 72.5H712.457ZM702.773 58.928H708.893C709.517 58.928 710.069 58.808 710.549 58.568C711.053 58.328 711.449 57.992 711.737 57.56C712.025 57.104 712.169 56.564 712.169 55.94C712.169 55.292 712.025 54.752 711.737 54.32C711.449 53.888 711.041 53.564 710.513 53.348C709.985 53.132 709.385 53.024 708.713 53.024H702.773V58.928Z" fill="#F5EBD8"/>
<path d="M982.237 72.5V47.3H995.773C997.813 47.3 999.541 47.636 1000.96 48.308C1002.4 48.98 1003.5 49.928 1004.27 51.152C1005.04 52.352 1005.42 53.78 1005.42 55.436C1005.42 57.116 1005.01 58.604 1004.2 59.9C1003.38 61.196 1002.25 62.216 1000.81 62.96C999.397 63.68 997.777 64.04 995.953 64.04H988.933V72.5H982.237ZM998.617 72.5L990.841 61.124L998.257 60.224L1006.75 72.5H998.617ZM988.933 58.928H995.053C995.677 58.928 996.229 58.808 996.709 58.568C997.213 58.328 997.609 57.992 997.897 57.56C998.185 57.104 998.329 56.564 998.329 55.94C998.329 55.292 998.185 54.752 997.897 54.32C997.609 53.888 997.201 53.564 996.673 53.348C996.145 53.132 995.545 53.024 994.873 53.024H988.933V58.928ZM1014.9 72.5V47.3H1036.42V53.168H1021.74V66.632H1036.96V72.5H1014.9ZM1018.5 62.492V56.948H1034.98V62.492H1018.5ZM1053.29 72.5L1042.27 47.3H1049.44L1054.26 58.856C1054.45 59.336 1054.67 59.864 1054.91 60.44C1055.17 61.016 1055.44 61.628 1055.7 62.276C1055.96 62.924 1056.22 63.62 1056.46 64.364C1056.72 65.084 1056.95 65.852 1057.14 66.668H1055.81C1056.12 65.636 1056.43 64.688 1056.74 63.824C1057.08 62.96 1057.42 62.132 1057.75 61.34C1058.09 60.548 1058.41 59.732 1058.72 58.892L1063.44 47.3H1070.46L1059.59 72.5H1053.29ZM1077.31 72.5V66.524H1083.29V53.276H1077.31V47.3H1096.39V53.276H1090.41V66.524H1096.39V72.5H1077.31ZM1106.76 72.5V47.3H1128.29V53.168H1113.6V66.632H1128.83V72.5H1106.76ZM1110.36 62.492V56.948H1126.85V62.492H1110.36ZM1142.24 72.5L1134.14 47.3H1141.37L1144.94 58.784C1145.1 59.336 1145.27 59.96 1145.44 60.656C1145.63 61.328 1145.8 62.024 1145.94 62.744C1146.11 63.44 1146.26 64.1 1146.38 64.724C1146.5 65.324 1146.57 65.828 1146.59 66.236H1145.55C1145.62 65.588 1145.73 64.868 1145.87 64.076C1146.02 63.284 1146.22 62.444 1146.48 61.556C1146.75 60.644 1147.06 59.72 1147.42 58.784L1150.88 50.108H1156.53L1159.95 58.748C1160.33 59.732 1160.66 60.668 1160.92 61.556C1161.21 62.444 1161.45 63.284 1161.64 64.076C1161.83 64.868 1161.94 65.576 1161.96 66.2L1161.03 66.236C1161.05 65.9 1161.09 65.492 1161.14 65.012C1161.21 64.532 1161.28 64.028 1161.35 63.5C1161.45 62.972 1161.56 62.42 1161.68 61.844C1161.8 61.268 1161.92 60.716 1162.04 60.188C1162.16 59.636 1162.3 59.132 1162.47 58.676L1166.46 47.3H1173.41L1164.56 72.5H1159.01L1152.93 57.812H1154.01L1148.28 72.5H1142.24ZM1189.98 72.86C1187.94 72.86 1186.09 72.668 1184.43 72.284C1182.8 71.9 1181.34 71.384 1180.04 70.736C1178.74 70.064 1177.57 69.32 1176.51 68.504L1179.9 63.212C1181.72 64.604 1183.54 65.576 1185.37 66.128C1187.22 66.68 1188.92 66.956 1190.48 66.956C1191.06 66.956 1191.64 66.908 1192.24 66.812C1192.84 66.716 1193.36 66.536 1193.79 66.272C1194.22 65.984 1194.44 65.576 1194.44 65.048C1194.44 64.712 1194.33 64.436 1194.12 64.22C1193.92 63.98 1193.64 63.788 1193.25 63.644C1192.87 63.476 1192.41 63.344 1191.88 63.248C1191.38 63.152 1190.82 63.068 1190.19 62.996C1189.57 62.924 1188.91 62.84 1188.21 62.744C1186.63 62.552 1185.19 62.252 1183.89 61.844C1182.62 61.412 1181.54 60.872 1180.65 60.224C1179.76 59.576 1179.08 58.808 1178.6 57.92C1178.14 57.032 1177.92 56.012 1177.92 54.86C1177.92 53.588 1178.23 52.436 1178.85 51.404C1179.48 50.372 1180.33 49.508 1181.41 48.812C1182.51 48.092 1183.78 47.552 1185.22 47.192C1186.66 46.832 1188.19 46.652 1189.8 46.652C1191.62 46.652 1193.23 46.82 1194.62 47.156C1196.04 47.468 1197.26 47.9 1198.29 48.452C1199.32 49.004 1200.19 49.604 1200.88 50.252L1197.36 54.86C1196.66 54.356 1195.89 53.948 1195.05 53.636C1194.21 53.3 1193.32 53.048 1192.39 52.88C1191.45 52.688 1190.56 52.592 1189.72 52.592C1188.86 52.592 1188.1 52.652 1187.46 52.772C1186.81 52.892 1186.29 53.084 1185.91 53.348C1185.52 53.612 1185.33 53.948 1185.33 54.356C1185.33 54.788 1185.52 55.124 1185.91 55.364C1186.29 55.604 1186.78 55.808 1187.38 55.976C1187.98 56.12 1188.6 56.24 1189.22 56.336C1189.84 56.408 1190.43 56.468 1190.98 56.516C1192.38 56.684 1193.72 56.912 1195.02 57.2C1196.31 57.488 1197.46 57.908 1198.47 58.46C1199.5 59.012 1200.31 59.768 1200.88 60.728C1201.48 61.664 1201.78 62.876 1201.78 64.364C1201.78 66.188 1201.27 67.736 1200.24 69.008C1199.23 70.256 1197.81 71.216 1195.99 71.888C1194.19 72.536 1192.18 72.86 1189.98 72.86Z" fill="#F5EBD8"/>
</svg>
