<svg width="995" height="60" viewBox="0 0 995 60" fill="none" xmlns="http://www.w3.org/2000/svg">
<path d="M5.48 40V12H21.04C22.96 12 24.68 12.4133 26.2 13.24C27.7467 14.04 28.9733 15.1467 29.88 16.56C30.7867 17.9733 31.24 19.6 31.24 21.44C31.24 23.3867 30.76 25.12 29.8 26.64C28.8667 28.16 27.5867 29.36 25.96 30.24C24.36 31.0933 22.5467 31.52 20.52 31.52H13.4V40H5.48ZM13.28 24.68H18.96C19.7333 24.68 20.4133 24.56 21 24.32C21.5867 24.08 22.0533 23.72 22.4 23.24C22.7733 22.76 22.96 22.2 22.96 21.56C22.96 20.9467 22.7733 20.44 22.4 20.04C22.0533 19.64 21.5867 19.3467 21 19.16C20.4133 18.9467 19.7333 18.84 18.96 18.84H13.28V24.68ZM49.3256 40.36C47.059 40.36 45.0856 39.8933 43.4056 38.96C41.7256 38 40.419 36.6933 39.4856 35.04C38.5523 33.3867 38.0856 31.4933 38.0856 29.36C38.0856 27.1733 38.5523 25.2533 39.4856 23.6C40.4456 21.92 41.7656 20.6133 43.4456 19.68C45.1523 18.72 47.1256 18.24 49.3656 18.24C50.6723 18.24 51.859 18.3867 52.9256 18.68C54.019 18.9733 54.9656 19.3867 55.7656 19.92C56.5923 20.4267 57.2723 20.9867 57.8056 21.6C58.339 22.1867 58.7123 22.7733 58.9256 23.36L57.2056 23.52V18.68H64.5256V40H57.0456V34.28L58.6056 34.76C58.4723 35.4533 58.139 36.1333 57.6056 36.8C57.0723 37.4667 56.3923 38.0667 55.5656 38.6C54.7656 39.1333 53.8323 39.56 52.7656 39.88C51.7256 40.2 50.579 40.36 49.3256 40.36ZM51.3656 34.24C52.5923 34.24 53.6323 34.04 54.4856 33.64C55.3656 33.24 56.0456 32.6667 56.5256 31.92C57.0056 31.1733 57.2456 30.32 57.2456 29.36C57.2456 28.32 57.0056 27.44 56.5256 26.72C56.0456 25.9733 55.3656 25.4 54.4856 25C53.6323 24.6 52.5923 24.4 51.3656 24.4C50.139 24.4 49.0856 24.6 48.2056 25C47.3256 25.4 46.6456 25.9733 46.1656 26.72C45.6856 27.44 45.4456 28.32 45.4456 29.36C45.4456 30.32 45.6856 31.1733 46.1656 31.92C46.6456 32.6667 47.3256 33.24 48.2056 33.64C49.0856 34.04 50.139 34.24 51.3656 34.24ZM78.5963 49.2L84.9563 37.16L84.5563 40.32L72.8363 18.68H81.4763L86.5963 29.2C86.9429 29.84 87.2763 30.5467 87.5963 31.32C87.9429 32.0933 88.2629 32.92 88.5563 33.8L86.8363 34C87.1029 33.36 87.4096 32.64 87.7563 31.84C88.1029 31.0133 88.4363 30.24 88.7563 29.52L93.7563 18.68H102.236L90.7563 40.16L86.1163 49.2H78.5963ZM111.081 40V18.68H118.041L118.321 23.24L116.881 22.56C117.388 21.9467 117.948 21.3733 118.561 20.84C119.201 20.3067 119.894 19.8533 120.641 19.48C121.414 19.08 122.254 18.7733 123.161 18.56C124.094 18.3467 125.081 18.24 126.121 18.24C127.294 18.24 128.374 18.4 129.361 18.72C130.374 19.04 131.268 19.6 132.041 20.4C132.814 21.1733 133.401 22.2533 133.801 23.64L132.121 23.48L132.481 22.92C132.988 22.28 133.574 21.68 134.241 21.12C134.908 20.5333 135.641 20.04 136.441 19.64C137.268 19.2133 138.161 18.88 139.121 18.64C140.081 18.3733 141.094 18.24 142.161 18.24C144.348 18.24 146.094 18.64 147.401 19.44C148.734 20.2133 149.708 21.28 150.321 22.64C150.934 23.9733 151.241 25.48 151.241 27.16V40H143.801V28.04C143.801 27.32 143.668 26.6933 143.401 26.16C143.134 25.6 142.734 25.16 142.201 24.84C141.668 24.52 140.988 24.36 140.161 24.36C139.414 24.36 138.721 24.48 138.081 24.72C137.441 24.9333 136.881 25.2533 136.401 25.68C135.921 26.08 135.548 26.5467 135.281 27.08C135.014 27.6133 134.881 28.2 134.881 28.84V40H127.441V28C127.441 27.3067 127.281 26.6933 126.961 26.16C126.668 25.6 126.214 25.16 125.601 24.84C125.014 24.52 124.214 24.36 123.201 24.36C122.508 24.36 121.868 24.4933 121.281 24.76C120.721 25.0267 120.228 25.36 119.801 25.76C119.401 26.16 119.081 26.5867 118.841 27.04C118.628 27.4933 118.521 27.92 118.521 28.32V40H111.081ZM174.269 40.4C171.469 40.4 169.029 39.9333 166.949 39C164.869 38.04 163.256 36.72 162.109 35.04C160.989 33.36 160.429 31.4667 160.429 29.36C160.429 27.68 160.763 26.16 161.429 24.8C162.123 23.44 163.043 22.28 164.189 21.32C165.363 20.3333 166.736 19.5733 168.309 19.04C169.883 18.5067 171.536 18.24 173.269 18.24C175.083 18.24 176.736 18.5067 178.229 19.04C179.749 19.5733 181.069 20.3333 182.189 21.32C183.309 22.28 184.176 23.4267 184.789 24.76C185.403 26.0933 185.683 27.5733 185.629 29.2L185.589 31H165.189L164.269 26.88H179.629L178.909 27.96V27.2C178.856 26.56 178.576 26.0133 178.069 25.56C177.563 25.1067 176.909 24.7467 176.109 24.48C175.309 24.2133 174.416 24.08 173.429 24.08C172.256 24.08 171.203 24.2533 170.269 24.6C169.363 24.92 168.629 25.44 168.069 26.16C167.536 26.8533 167.269 27.72 167.269 28.76C167.269 29.8 167.589 30.7333 168.229 31.56C168.869 32.3867 169.789 33.0533 170.989 33.56C172.216 34.04 173.683 34.28 175.389 34.28C176.936 34.28 178.189 34.1067 179.149 33.76C180.136 33.4133 180.923 33.08 181.509 32.76L184.749 37.4C183.709 38.0933 182.616 38.6667 181.469 39.12C180.349 39.5467 179.189 39.8667 177.989 40.08C176.816 40.2933 175.576 40.4 174.269 40.4ZM195.575 40V18.68H202.535L202.855 24.04L201.055 24.48C201.375 23.36 201.962 22.3333 202.815 21.4C203.695 20.44 204.788 19.68 206.095 19.12C207.428 18.5333 208.908 18.24 210.535 18.24C212.428 18.24 214.042 18.6267 215.375 19.4C216.708 20.1467 217.735 21.2 218.455 22.56C219.175 23.8933 219.535 25.44 219.535 27.2V40H212.095V28.64C212.095 27.7333 211.908 26.96 211.535 26.32C211.188 25.68 210.695 25.2 210.055 24.88C209.415 24.5333 208.642 24.3467 207.735 24.32C206.988 24.32 206.322 24.4533 205.735 24.72C205.148 24.9867 204.655 25.3333 204.255 25.76C203.882 26.1867 203.588 26.6533 203.375 27.16C203.162 27.64 203.055 28.12 203.055 28.6V40H199.335C198.188 40 197.295 40 196.655 40C196.042 40 195.682 40 195.575 40ZM233.63 40V12.52H241.07V40H233.63ZM228.59 25V18.68H246.87V25H228.59ZM283.887 40.44C281.727 40.44 279.833 39.9733 278.207 39.04C276.58 38.1067 275.313 36.8 274.407 35.12C273.5 33.44 273.047 31.52 273.047 29.36C273.047 27.1733 273.513 25.2533 274.447 23.6C275.407 21.92 276.727 20.6133 278.407 19.68C280.113 18.72 282.06 18.24 284.247 18.24C285.5 18.24 286.66 18.3867 287.727 18.68C288.793 18.9467 289.74 19.3333 290.567 19.84C291.42 20.32 292.113 20.88 292.647 21.52C293.18 22.1333 293.513 22.7867 293.647 23.48L291.927 23.96V10.4H299.407V40H292.647L292.127 34.72L293.607 35.2C293.5 35.8933 293.167 36.5467 292.607 37.16C292.073 37.7733 291.367 38.3333 290.487 38.84C289.607 39.32 288.593 39.7067 287.447 40C286.327 40.2933 285.14 40.44 283.887 40.44ZM286.247 34.2C287.473 34.2 288.527 34 289.407 33.6C290.287 33.2 290.953 32.64 291.407 31.92C291.887 31.2 292.127 30.3467 292.127 29.36C292.127 28.3733 291.887 27.52 291.407 26.8C290.953 26.08 290.287 25.52 289.407 25.12C288.527 24.72 287.473 24.52 286.247 24.52C285.047 24.52 284.007 24.72 283.127 25.12C282.247 25.52 281.567 26.08 281.087 26.8C280.607 27.52 280.367 28.3733 280.367 29.36C280.367 30.3467 280.607 31.2 281.087 31.92C281.567 32.64 282.247 33.2 283.127 33.6C284.007 34 285.047 34.2 286.247 34.2ZM321.848 40.4C319.048 40.4 316.608 39.9333 314.528 39C312.448 38.04 310.834 36.72 309.688 35.04C308.568 33.36 308.008 31.4667 308.008 29.36C308.008 27.68 308.341 26.16 309.008 24.8C309.701 23.44 310.621 22.28 311.768 21.32C312.941 20.3333 314.314 19.5733 315.888 19.04C317.461 18.5067 319.114 18.24 320.848 18.24C322.661 18.24 324.314 18.5067 325.807 19.04C327.328 19.5733 328.648 20.3333 329.768 21.32C330.888 22.28 331.754 23.4267 332.368 24.76C332.981 26.0933 333.261 27.5733 333.208 29.2L333.168 31H312.768L311.848 26.88H327.208L326.488 27.96V27.2C326.434 26.56 326.154 26.0133 325.648 25.56C325.141 25.1067 324.488 24.7467 323.688 24.48C322.888 24.2133 321.994 24.08 321.008 24.08C319.834 24.08 318.781 24.2533 317.848 24.6C316.941 24.92 316.208 25.44 315.648 26.16C315.114 26.8533 314.848 27.72 314.848 28.76C314.848 29.8 315.168 30.7333 315.808 31.56C316.448 32.3867 317.368 33.0533 318.568 33.56C319.794 34.04 321.261 34.28 322.968 34.28C324.514 34.28 325.768 34.1067 326.727 33.76C327.714 33.4133 328.501 33.08 329.088 32.76L332.328 37.4C331.288 38.0933 330.194 38.6667 329.048 39.12C327.928 39.5467 326.768 39.8667 325.568 40.08C324.394 40.2933 323.154 40.4 321.848 40.4ZM345.153 40V12.52H352.593V40H345.153ZM340.113 25V18.68H358.393V25H340.113ZM376.865 40.36C374.598 40.36 372.625 39.8933 370.945 38.96C369.265 38 367.958 36.6933 367.025 35.04C366.091 33.3867 365.625 31.4933 365.625 29.36C365.625 27.1733 366.091 25.2533 367.025 23.6C367.985 21.92 369.305 20.6133 370.985 19.68C372.691 18.72 374.665 18.24 376.905 18.24C378.211 18.24 379.398 18.3867 380.465 18.68C381.558 18.9733 382.505 19.3867 383.305 19.92C384.131 20.4267 384.811 20.9867 385.345 21.6C385.878 22.1867 386.251 22.7733 386.465 23.36L384.745 23.52V18.68H392.065V40H384.585V34.28L386.145 34.76C386.011 35.4533 385.678 36.1333 385.145 36.8C384.611 37.4667 383.931 38.0667 383.105 38.6C382.305 39.1333 381.371 39.56 380.305 39.88C379.265 40.2 378.118 40.36 376.865 40.36ZM378.905 34.24C380.131 34.24 381.171 34.04 382.025 33.64C382.905 33.24 383.585 32.6667 384.065 31.92C384.545 31.1733 384.785 30.32 384.785 29.36C384.785 28.32 384.545 27.44 384.065 26.72C383.585 25.9733 382.905 25.4 382.025 25C381.171 24.6 380.131 24.4 378.905 24.4C377.678 24.4 376.625 24.6 375.745 25C374.865 25.4 374.185 25.9733 373.705 26.72C373.225 27.44 372.985 28.32 372.985 29.36C372.985 30.32 373.225 31.1733 373.705 31.92C374.185 32.6667 374.865 33.24 375.745 33.64C376.625 34.04 377.678 34.24 378.905 34.24ZM404.724 40V18.68H412.164V40H404.724ZM408.444 14.4C407.084 14.4 406.031 14.0933 405.284 13.48C404.537 12.84 404.164 11.9467 404.164 10.8C404.164 9.73333 404.537 8.86667 405.284 8.2C406.057 7.50667 407.111 7.16 408.444 7.16C409.777 7.16 410.817 7.48 411.564 8.12C412.337 8.73333 412.724 9.62667 412.724 10.8C412.724 11.8667 412.337 12.7333 411.564 13.4C410.817 14.0667 409.777 14.4 408.444 14.4ZM425.07 40V10.4H432.51V40H425.07ZM454.108 40.4C451.468 40.4 449.095 40.0533 446.988 39.36C444.908 38.6667 443.241 37.6933 441.988 36.44L446.388 32.52C447.348 33.3467 448.535 34 449.948 34.48C451.388 34.9333 452.935 35.16 454.588 35.16C455.041 35.16 455.468 35.1467 455.868 35.12C456.268 35.0667 456.615 34.9733 456.908 34.84C457.228 34.7067 457.468 34.56 457.628 34.4C457.815 34.24 457.908 34.0267 457.908 33.76C457.908 33.36 457.615 33.0667 457.028 32.88C456.548 32.6933 455.908 32.5467 455.108 32.44C454.308 32.3067 453.495 32.16 452.668 32C451.041 31.76 449.628 31.48 448.428 31.16C447.228 30.84 446.201 30.4 445.348 29.84C444.575 29.3067 443.961 28.6533 443.508 27.88C443.081 27.08 442.868 26.1467 442.868 25.08C442.868 23.9867 443.148 23.0267 443.708 22.2C444.295 21.3467 445.095 20.6267 446.108 20.04C447.148 19.4267 448.321 18.9733 449.628 18.68C450.935 18.3867 452.308 18.24 453.748 18.24C455.161 18.24 456.548 18.36 457.908 18.6C459.295 18.8133 460.601 19.1467 461.828 19.6C463.081 20.0533 464.188 20.6533 465.148 21.4L461.428 25.8C460.815 25.3733 460.055 24.9733 459.148 24.6C458.268 24.2267 457.295 23.92 456.228 23.68C455.188 23.44 454.135 23.32 453.068 23.32C452.641 23.32 452.241 23.3467 451.868 23.4C451.521 23.4533 451.188 23.5333 450.868 23.64C450.575 23.7467 450.348 23.88 450.188 24.04C450.055 24.1733 449.988 24.3467 449.988 24.56C449.988 24.7467 450.028 24.92 450.108 25.08C450.215 25.24 450.375 25.3867 450.588 25.52C450.988 25.7333 451.601 25.92 452.428 26.08C453.281 26.2133 454.268 26.3867 455.388 26.6C457.415 26.9733 459.095 27.4 460.428 27.88C461.788 28.3333 462.855 28.8667 463.628 29.48C464.215 29.96 464.641 30.5067 464.908 31.12C465.175 31.7333 465.308 32.4267 465.308 33.2C465.308 34.6133 464.828 35.8667 463.868 36.96C462.935 38.0267 461.641 38.8667 459.988 39.48C458.335 40.0933 456.375 40.4 454.108 40.4Z" fill="#3A2020"/>
<path d="M699.28 50V36.96L699.88 39.64L686.2 22H695.6L705.68 35.52L701.04 35.44L710.68 22H719.56L706.92 39.12L707.28 36.64V50H699.28ZM735.179 50.4C732.486 50.4 730.086 49.9333 727.979 49C725.899 48.04 724.272 46.7333 723.099 45.08C721.926 43.4 721.339 41.48 721.339 39.32C721.339 37.1333 721.926 35.2133 723.099 33.56C724.272 31.9067 725.899 30.6133 727.979 29.68C730.086 28.72 732.486 28.24 735.179 28.24C737.872 28.24 740.259 28.72 742.339 29.68C744.419 30.6133 746.046 31.9067 747.219 33.56C748.392 35.2133 748.979 37.1333 748.979 39.32C748.979 41.48 748.392 43.4 747.219 45.08C746.046 46.7333 744.419 48.04 742.339 49C740.259 49.9333 737.872 50.4 735.179 50.4ZM735.219 44.12C736.339 44.12 737.379 43.92 738.339 43.52C739.326 43.12 740.099 42.56 740.659 41.84C741.219 41.0933 741.486 40.2533 741.459 39.32C741.486 38.3333 741.219 37.48 740.659 36.76C740.099 36.04 739.326 35.48 738.339 35.08C737.379 34.68 736.339 34.48 735.219 34.48C734.046 34.48 732.966 34.68 731.979 35.08C730.992 35.48 730.219 36.0533 729.659 36.8C729.126 37.52 728.859 38.36 728.859 39.32C728.859 40.2533 729.126 41.0933 729.659 41.84C730.219 42.56 730.992 43.12 731.979 43.52C732.966 43.92 734.046 44.12 735.219 44.12ZM767.373 50.44C765.56 50.44 763.987 50.0533 762.653 49.28C761.347 48.48 760.333 47.3333 759.613 45.84C758.92 44.32 758.573 42.48 758.573 40.32V28.68H766.013V39.28C766.013 40.3467 766.147 41.2267 766.413 41.92C766.707 42.6133 767.16 43.1333 767.773 43.48C768.413 43.8267 769.227 44 770.213 44C770.88 44 771.507 43.9067 772.093 43.72C772.707 43.5067 773.24 43.2133 773.693 42.84C774.147 42.44 774.507 41.9733 774.773 41.44C775.04 40.88 775.173 40.2533 775.173 39.56V28.68H782.613V50H775.733L775.333 45.68L776.733 45.2C776.413 46.08 775.827 46.92 774.973 47.72C774.12 48.52 773.04 49.1733 771.733 49.68C770.453 50.1867 769 50.44 767.373 50.44ZM794.989 50V28.68H801.949L802.349 36.36L800.269 36C800.696 34.56 801.362 33.2533 802.269 32.08C803.202 30.9067 804.309 29.9733 805.589 29.28C806.869 28.5867 808.216 28.24 809.629 28.24C810.456 28.24 811.242 28.32 811.989 28.48C812.736 28.6133 813.402 28.8267 813.989 29.12L811.949 37.2C811.469 36.88 810.802 36.6133 809.949 36.4C809.122 36.1867 808.282 36.08 807.429 36.08C806.602 36.08 805.869 36.2 805.229 36.44C804.616 36.68 804.096 37.0133 803.669 37.44C803.269 37.8667 802.962 38.3467 802.749 38.88C802.562 39.4133 802.469 39.9733 802.469 40.56V50H794.989ZM853.578 50.4C850.884 50.4 848.484 49.9333 846.378 49C844.298 48.04 842.671 46.7333 841.498 45.08C840.324 43.4 839.738 41.48 839.738 39.32C839.738 37.1333 840.324 35.2133 841.498 33.56C842.671 31.9067 844.298 30.6133 846.378 29.68C848.484 28.72 850.884 28.24 853.578 28.24C856.271 28.24 858.658 28.72 860.738 29.68C862.818 30.6133 864.444 31.9067 865.618 33.56C866.791 35.2133 867.378 37.1333 867.378 39.32C867.378 41.48 866.791 43.4 865.618 45.08C864.444 46.7333 862.818 48.04 860.738 49C858.658 49.9333 856.271 50.4 853.578 50.4ZM853.618 44.12C854.738 44.12 855.778 43.92 856.738 43.52C857.724 43.12 858.498 42.56 859.058 41.84C859.618 41.0933 859.884 40.2533 859.858 39.32C859.884 38.3333 859.618 37.48 859.058 36.76C858.498 36.04 857.724 35.48 856.738 35.08C855.778 34.68 854.738 34.48 853.618 34.48C852.444 34.48 851.364 34.68 850.378 35.08C849.391 35.48 848.618 36.0533 848.058 36.8C847.524 37.52 847.258 38.36 847.258 39.32C847.258 40.2533 847.524 41.0933 848.058 41.84C848.618 42.56 849.391 43.12 850.378 43.52C851.364 43.92 852.444 44.12 853.618 44.12ZM877.372 50V28.68H884.332L884.732 36.36L882.652 36C883.079 34.56 883.745 33.2533 884.652 32.08C885.585 30.9067 886.692 29.9733 887.972 29.28C889.252 28.5867 890.599 28.24 892.012 28.24C892.839 28.24 893.625 28.32 894.372 28.48C895.119 28.6133 895.785 28.8267 896.372 29.12L894.332 37.2C893.852 36.88 893.185 36.6133 892.332 36.4C891.505 36.1867 890.665 36.08 889.812 36.08C888.985 36.08 888.252 36.2 887.612 36.44C886.999 36.68 886.479 37.0133 886.052 37.44C885.652 37.8667 885.345 38.3467 885.132 38.88C884.945 39.4133 884.852 39.9733 884.852 40.56V50H877.372ZM912.832 50.44C910.672 50.44 908.779 49.9733 907.152 49.04C905.525 48.1067 904.259 46.8 903.352 45.12C902.445 43.44 901.992 41.52 901.992 39.36C901.992 37.1733 902.459 35.2533 903.392 33.6C904.352 31.92 905.672 30.6133 907.352 29.68C909.059 28.72 911.005 28.24 913.192 28.24C914.445 28.24 915.605 28.3867 916.672 28.68C917.739 28.9467 918.685 29.3333 919.512 29.84C920.365 30.32 921.059 30.88 921.592 31.52C922.125 32.1333 922.459 32.7867 922.592 33.48L920.872 33.96V20.4H928.352V50H921.592L921.072 44.72L922.552 45.2C922.445 45.8933 922.112 46.5467 921.552 47.16C921.019 47.7733 920.312 48.3333 919.432 48.84C918.552 49.32 917.539 49.7067 916.392 50C915.272 50.2933 914.085 50.44 912.832 50.44ZM915.192 44.2C916.419 44.2 917.472 44 918.352 43.6C919.232 43.2 919.899 42.64 920.352 41.92C920.832 41.2 921.072 40.3467 921.072 39.36C921.072 38.3733 920.832 37.52 920.352 36.8C919.899 36.08 919.232 35.52 918.352 35.12C917.472 34.72 916.419 34.52 915.192 34.52C913.992 34.52 912.952 34.72 912.072 35.12C911.192 35.52 910.512 36.08 910.032 36.8C909.552 37.52 909.312 38.3733 909.312 39.36C909.312 40.3467 909.552 41.2 910.032 41.92C910.512 42.64 911.192 43.2 912.072 43.6C912.952 44 913.992 44.2 915.192 44.2ZM950.793 50.4C947.993 50.4 945.553 49.9333 943.473 49C941.393 48.04 939.779 46.72 938.633 45.04C937.513 43.36 936.953 41.4667 936.953 39.36C936.953 37.68 937.286 36.16 937.953 34.8C938.646 33.44 939.566 32.28 940.713 31.32C941.886 30.3333 943.259 29.5733 944.833 29.04C946.406 28.5067 948.059 28.24 949.793 28.24C951.606 28.24 953.259 28.5067 954.753 29.04C956.273 29.5733 957.593 30.3333 958.713 31.32C959.833 32.28 960.699 33.4267 961.313 34.76C961.926 36.0933 962.206 37.5733 962.153 39.2L962.113 41H941.713L940.793 36.88H956.153L955.433 37.96V37.2C955.379 36.56 955.099 36.0133 954.593 35.56C954.086 35.1067 953.433 34.7467 952.633 34.48C951.833 34.2133 950.939 34.08 949.953 34.08C948.779 34.08 947.726 34.2533 946.793 34.6C945.886 34.92 945.153 35.44 944.593 36.16C944.059 36.8533 943.793 37.72 943.793 38.76C943.793 39.8 944.113 40.7333 944.753 41.56C945.393 42.3867 946.313 43.0533 947.513 43.56C948.739 44.04 950.206 44.28 951.913 44.28C953.459 44.28 954.713 44.1067 955.673 43.76C956.659 43.4133 957.446 43.08 958.033 42.76L961.273 47.4C960.233 48.0933 959.139 48.6667 957.993 49.12C956.873 49.5467 955.713 49.8667 954.513 50.08C953.339 50.2933 952.099 50.4 950.793 50.4ZM972.098 50V28.68H979.058L979.458 36.36L977.378 36C977.805 34.56 978.472 33.2533 979.378 32.08C980.312 30.9067 981.418 29.9733 982.698 29.28C983.978 28.5867 985.325 28.24 986.738 28.24C987.565 28.24 988.352 28.32 989.098 28.48C989.845 28.6133 990.512 28.8267 991.098 29.12L989.058 37.2C988.578 36.88 987.912 36.6133 987.058 36.4C986.232 36.1867 985.392 36.08 984.538 36.08C983.712 36.08 982.978 36.2 982.338 36.44C981.725 36.68 981.205 37.0133 980.778 37.44C980.378 37.8667 980.072 38.3467 979.858 38.88C979.672 39.4133 979.578 39.9733 979.578 40.56V50H972.098Z" fill="#3A2020"/>
</svg>
