<svg width="40" height="40" viewBox="0 0 40 40" fill="none" xmlns="http://www.w3.org/2000/svg">
<path fill-rule="evenodd" clip-rule="evenodd" d="M35.2028 13.0087C34.9168 13.0042 34.5885 12.9995 34.2167 12.9944C32.8947 9.69183 31.3299 6.79472 30.3526 5.10111C29.5492 3.70897 28.0672 2.91667 26.5113 2.91667H25.2803C24.9387 1.87728 23.9268 1.31548 22.9739 1.28756C22.3151 1.26826 21.3382 1.25 20 1.25C18.6618 1.25 17.6849 1.26827 17.0261 1.28756C16.0732 1.31548 15.0613 1.87728 14.7197 2.91667H13.4887C11.9328 2.91667 10.4508 3.70897 9.64742 5.10111C8.67008 6.79472 7.10534 9.69183 5.78336 12.9944C5.41152 12.9995 5.08319 13.0042 4.79723 13.0087C3.67727 13.0262 1.89501 13.4786 1.42567 15.257C1.31772 15.666 1.25 16.1355 1.25 16.6667C1.25 17.1978 1.31772 17.6673 1.42567 18.0763C1.895 19.8547 3.67727 20.3071 4.79723 20.3246C7.05048 20.3598 11.935 20.4167 20 20.4167C28.065 20.4167 32.9495 20.3598 35.2028 20.3246C36.3228 20.3071 38.105 19.8547 38.5743 18.0763C38.6822 17.6673 38.75 17.1978 38.75 16.6667C38.75 16.1355 38.6822 15.666 38.5743 15.257C38.105 13.4786 36.3228 13.0262 35.2028 13.0087ZM22.9739 7.04577C22.3151 7.06507 21.3382 7.08333 20 7.08333C18.6618 7.08333 17.6849 7.06507 17.0261 7.04577C16.0732 7.01786 15.0613 6.45605 14.7197 5.41667H13.4887C12.7741 5.41667 12.1442 5.77638 11.8127 6.35071C10.9647 7.82021 9.66842 10.2125 8.50017 12.9638C11.1884 12.9387 14.9775 12.9167 20 12.9167C25.0225 12.9167 28.8116 12.9387 31.4998 12.9638C30.3316 10.2125 29.0353 7.82021 28.1872 6.35071C27.8558 5.77638 27.2259 5.41667 26.5113 5.41667H25.2803C24.9387 6.45605 23.9268 7.01786 22.9739 7.04577ZM4.27572 22.3796C4.29123 22.5001 4.30713 22.6223 4.32342 22.7462C4.72592 25.8062 5.36787 29.878 6.32506 33.8922C6.89081 36.2648 8.86567 38.0214 11.2999 38.2831C13.4293 38.5119 16.4858 38.7497 19.9999 38.7497C23.514 38.7497 26.5704 38.5119 28.6998 38.2831C31.1342 38.0214 33.109 36.2648 33.6747 33.8922C34.6319 29.878 35.2738 25.8062 35.6763 22.7462C35.6927 22.6223 35.7085 22.5002 35.7241 22.3797C35.5452 22.3966 35.3808 22.4051 35.2356 22.4073C32.9704 22.4427 28.075 22.4997 20.0002 22.4997C11.9255 22.4997 7.03011 22.4427 4.7649 22.4073C4.61944 22.4051 4.45483 22.3966 4.27572 22.3796ZM13.1567 25.4294C13.8402 25.3318 14.4733 25.8067 14.5709 26.4901L15.4042 32.3234C15.5019 33.0068 15.027 33.64 14.3436 33.7376C13.6602 33.8353 13.027 33.3603 12.9294 32.6769L12.0961 26.8436C11.9984 26.1602 12.4733 25.527 13.1567 25.4294ZM25.4291 26.4901C25.5267 25.8067 26.1598 25.3318 26.8432 25.4294C27.5267 25.527 28.0016 26.1602 27.9039 26.8436L27.0706 32.6769C26.973 33.3603 26.3398 33.8353 25.6564 33.7376C24.973 33.64 24.4981 33.0068 24.5957 32.3234L25.4291 26.4901ZM20 25.4167C20.6903 25.4167 21.25 25.9763 21.25 26.6667V32.5C21.25 33.1903 20.6903 33.75 20 33.75C19.3097 33.75 18.75 33.1903 18.75 32.5V26.6667C18.75 25.9763 19.3097 25.4167 20 25.4167Z" fill="#F5EBD8"/>
</svg>
