<svg width="400" height="400" viewBox="0 0 400 400" fill="none" xmlns="http://www.w3.org/2000/svg">
<rect width="400" height="400" rx="40" fill="#5E4744"/>
<path d="M37.7637 178.14C36.933 178.14 36.1723 178.014 35.4817 177.762C34.791 177.501 34.1843 177.141 33.6617 176.684C33.1483 176.227 32.7517 175.69 32.4717 175.074C32.201 174.458 32.0657 173.791 32.0657 173.072C32.0657 172.353 32.2057 171.686 32.4857 171.07C32.7657 170.454 33.1623 169.917 33.6757 169.46C34.189 169.003 34.791 168.648 35.4817 168.396C36.1723 168.135 36.933 168.004 37.7637 168.004C38.6037 168.004 39.369 168.13 40.0597 168.382C40.7503 168.634 41.3523 168.993 41.8657 169.46C42.379 169.917 42.7757 170.454 43.0557 171.07C43.3357 171.686 43.4757 172.353 43.4757 173.072C43.4757 173.791 43.3357 174.458 43.0557 175.074C42.7757 175.69 42.379 176.231 41.8657 176.698C41.3523 177.155 40.7503 177.51 40.0597 177.762C39.369 178.014 38.6037 178.14 37.7637 178.14ZM37.7637 176.152C38.2863 176.152 38.7623 176.077 39.1917 175.928C39.6303 175.769 40.0083 175.55 40.3257 175.27C40.6523 174.99 40.9043 174.663 41.0817 174.29C41.259 173.917 41.3477 173.511 41.3477 173.072C41.3477 172.633 41.259 172.227 41.0817 171.854C40.9043 171.481 40.6523 171.159 40.3257 170.888C40.0083 170.608 39.6303 170.389 39.1917 170.23C38.7623 170.071 38.2863 169.992 37.7637 169.992C37.2503 169.992 36.7743 170.071 36.3357 170.23C35.9063 170.389 35.5283 170.603 35.2017 170.874C34.875 171.145 34.6277 171.471 34.4597 171.854C34.2917 172.227 34.2077 172.633 34.2077 173.072C34.2077 173.511 34.2917 173.921 34.4597 174.304C34.6277 174.677 34.875 175.004 35.2017 175.284C35.5283 175.555 35.9063 175.769 36.3357 175.928C36.7743 176.077 37.2503 176.152 37.7637 176.152ZM51.4814 178.084C50.5387 178.084 49.7127 177.893 49.0034 177.51C48.294 177.118 47.7387 176.591 47.3374 175.928C46.936 175.256 46.7354 174.495 46.7354 173.646V168.186H48.8494V173.562C48.8494 174.066 48.966 174.514 49.1994 174.906C49.4327 175.298 49.7454 175.611 50.1374 175.844C50.5387 176.068 50.9867 176.18 51.4814 176.18C51.9947 176.18 52.452 176.068 52.8534 175.844C53.264 175.611 53.586 175.298 53.8194 174.906C54.0527 174.514 54.1694 174.066 54.1694 173.562V168.186H56.2134V173.646C56.2134 174.495 56.0127 175.256 55.6114 175.928C55.2101 176.591 54.6547 177.118 53.9454 177.51C53.236 177.893 52.4147 178.084 51.4814 178.084ZM60.1775 178V168.2H65.3855C66.0575 168.2 66.6501 168.335 67.1635 168.606C67.6861 168.867 68.0921 169.231 68.3815 169.698C68.6708 170.165 68.8155 170.701 68.8155 171.308C68.8155 171.915 68.6615 172.461 68.3535 172.946C68.0455 173.431 67.6255 173.819 67.0935 174.108C66.5708 174.388 65.9828 174.528 65.3295 174.528H62.2075V178H60.1775ZM66.8555 178L63.8315 173.576L66.0295 173.226L69.3335 178.014L66.8555 178ZM62.2075 172.82H65.1335C65.4228 172.82 65.6841 172.759 65.9175 172.638C66.1508 172.517 66.3328 172.349 66.4635 172.134C66.6035 171.91 66.6735 171.663 66.6735 171.392C66.6735 171.112 66.6035 170.869 66.4635 170.664C66.3235 170.459 66.1275 170.3 65.8755 170.188C65.6235 170.076 65.3435 170.02 65.0355 170.02H62.2075V172.82ZM83.8349 178.14C83.0509 178.14 82.3183 178.023 81.6369 177.79C80.9649 177.547 80.3769 177.202 79.8729 176.754C79.3689 176.297 78.9723 175.755 78.6829 175.13C78.4029 174.505 78.2629 173.819 78.2629 173.072C78.2629 172.344 78.4076 171.677 78.6969 171.07C78.9863 170.454 79.3829 169.917 79.8869 169.46C80.4003 169.003 80.9929 168.653 81.6649 168.41C82.3463 168.167 83.0789 168.046 83.8629 168.046C84.4323 168.046 84.9829 168.116 85.5149 168.256C86.0469 168.396 86.5323 168.583 86.9709 168.816C87.4189 169.049 87.7969 169.315 88.1049 169.614L86.8589 171.224C86.5883 170.991 86.2989 170.785 85.9909 170.608C85.6923 170.421 85.3563 170.277 84.9829 170.174C84.6189 170.062 84.2129 170.006 83.7649 170.006C83.3356 170.006 82.9203 170.076 82.5189 170.216C82.1269 170.356 81.7723 170.561 81.4549 170.832C81.1376 171.093 80.8809 171.415 80.6849 171.798C80.4983 172.181 80.4049 172.61 80.4049 173.086C80.4049 173.581 80.5029 174.024 80.6989 174.416C80.8949 174.799 81.1609 175.125 81.4969 175.396C81.8329 175.657 82.2156 175.858 82.6449 175.998C83.0836 176.129 83.5456 176.194 84.0309 176.194C84.4789 176.194 84.8849 176.133 85.2489 176.012C85.6223 175.881 85.9583 175.727 86.2569 175.55C86.5556 175.363 86.8169 175.172 87.0409 174.976L88.0489 176.628C87.7969 176.861 87.4516 177.095 87.0129 177.328C86.5836 177.561 86.0936 177.757 85.5429 177.916C84.9923 178.065 84.4229 178.14 83.8349 178.14ZM96.3066 178.14C95.476 178.14 94.7153 178.014 94.0246 177.762C93.334 177.501 92.7273 177.141 92.2046 176.684C91.6913 176.227 91.2946 175.69 91.0146 175.074C90.744 174.458 90.6086 173.791 90.6086 173.072C90.6086 172.353 90.7486 171.686 91.0286 171.07C91.3086 170.454 91.7053 169.917 92.2186 169.46C92.732 169.003 93.334 168.648 94.0246 168.396C94.7153 168.135 95.476 168.004 96.3066 168.004C97.1466 168.004 97.912 168.13 98.6026 168.382C99.2933 168.634 99.8953 168.993 100.409 169.46C100.922 169.917 101.319 170.454 101.599 171.07C101.879 171.686 102.019 172.353 102.019 173.072C102.019 173.791 101.879 174.458 101.599 175.074C101.319 175.69 100.922 176.231 100.409 176.698C99.8953 177.155 99.2933 177.51 98.6026 177.762C97.912 178.014 97.1466 178.14 96.3066 178.14ZM96.3066 176.152C96.8293 176.152 97.3053 176.077 97.7346 175.928C98.1733 175.769 98.5513 175.55 98.8686 175.27C99.1953 174.99 99.4473 174.663 99.6246 174.29C99.802 173.917 99.8906 173.511 99.8906 173.072C99.8906 172.633 99.802 172.227 99.6246 171.854C99.4473 171.481 99.1953 171.159 98.8686 170.888C98.5513 170.608 98.1733 170.389 97.7346 170.23C97.3053 170.071 96.8293 169.992 96.3066 169.992C95.7933 169.992 95.3173 170.071 94.8786 170.23C94.4493 170.389 94.0713 170.603 93.7446 170.874C93.418 171.145 93.1706 171.471 93.0026 171.854C92.8346 172.227 92.7506 172.633 92.7506 173.072C92.7506 173.511 92.8346 173.921 93.0026 174.304C93.1706 174.677 93.418 175.004 93.7446 175.284C94.0713 175.555 94.4493 175.769 94.8786 175.928C95.3173 176.077 95.7933 176.152 96.3066 176.152ZM105.39 178V168.2H107.308L111.452 173.828H110.304L114.462 168.2H116.352V178H114.294V174.556C114.294 173.753 114.313 173.016 114.35 172.344C114.388 171.663 114.462 170.977 114.574 170.286L114.798 170.972L111.326 175.48H110.402L106.93 170.972L107.168 170.286C107.271 170.958 107.341 171.635 107.378 172.316C107.425 172.988 107.448 173.735 107.448 174.556V178H105.39ZM120.416 178V168.2H125.68C126.286 168.2 126.837 168.34 127.332 168.62C127.836 168.891 128.237 169.264 128.536 169.74C128.834 170.216 128.984 170.753 128.984 171.35C128.984 171.975 128.825 172.54 128.508 173.044C128.2 173.539 127.78 173.931 127.248 174.22C126.725 174.509 126.142 174.654 125.498 174.654H122.516V178H120.416ZM122.488 172.764H125.19C125.479 172.764 125.745 172.703 125.988 172.582C126.23 172.461 126.422 172.293 126.562 172.078C126.702 171.863 126.772 171.625 126.772 171.364C126.772 171.112 126.702 170.893 126.562 170.706C126.422 170.51 126.23 170.361 125.988 170.258C125.745 170.146 125.479 170.09 125.19 170.09H122.488V172.764ZM130.188 178L134.654 168.2H136.684L141.136 178H138.938L136.292 172.19C136.217 172.003 136.138 171.812 136.054 171.616C135.97 171.42 135.886 171.224 135.802 171.028C135.727 170.823 135.652 170.622 135.578 170.426C135.512 170.221 135.452 170.025 135.396 169.838L135.858 169.824C135.802 170.029 135.736 170.235 135.662 170.44C135.587 170.645 135.508 170.846 135.424 171.042C135.349 171.238 135.27 171.434 135.186 171.63C135.102 171.826 135.018 172.027 134.934 172.232L132.288 178H130.188ZM132.218 176.026L132.932 174.332H138.294L138.742 176.026H132.218ZM143.863 178V168.2H145.823L152.501 175.522H152.193C152.156 175.205 152.118 174.892 152.081 174.584C152.053 174.276 152.03 173.973 152.011 173.674C151.992 173.375 151.974 173.077 151.955 172.778C151.946 172.47 151.936 172.162 151.927 171.854C151.918 171.537 151.913 171.21 151.913 170.874V168.2H153.971V178H151.983L145.193 170.608L145.641 170.622C145.669 170.883 145.697 171.14 145.725 171.392C145.753 171.635 145.776 171.877 145.795 172.12C145.823 172.363 145.842 172.61 145.851 172.862C145.87 173.114 145.884 173.371 145.893 173.632C145.912 173.893 145.921 174.173 145.921 174.472V178H143.863ZM161.177 178V173.436L161.387 174.374L156.599 168.2H159.203L162.731 172.932L161.793 172.904L165.167 168.2H167.589L163.165 174.192L163.291 173.324V178H161.177ZM183.781 178V168.2H185.881V178H183.781ZM176.361 178V168.2H178.461V178H176.361ZM177.201 174.108L177.215 172.204H184.859V174.108H177.201ZM188.621 178L193.087 168.2H195.117L199.569 178H197.371L194.725 172.19C194.651 172.003 194.571 171.812 194.487 171.616C194.403 171.42 194.319 171.224 194.235 171.028C194.161 170.823 194.086 170.622 194.011 170.426C193.946 170.221 193.885 170.025 193.829 169.838L194.291 169.824C194.235 170.029 194.17 170.235 194.095 170.44C194.021 170.645 193.941 170.846 193.857 171.042C193.783 171.238 193.703 171.434 193.619 171.63C193.535 171.826 193.451 172.027 193.367 172.232L190.721 178H188.621ZM190.651 176.026L191.365 174.332H196.727L197.175 176.026H190.651ZM206.203 178.14C205.493 178.14 204.845 178.07 204.257 177.93C203.669 177.781 203.137 177.575 202.661 177.314C202.194 177.043 201.769 176.717 201.387 176.334L202.521 174.71C203.146 175.307 203.771 175.732 204.397 175.984C205.031 176.227 205.68 176.348 206.343 176.348C206.679 176.348 207.005 176.311 207.323 176.236C207.64 176.152 207.901 176.026 208.107 175.858C208.321 175.69 208.429 175.471 208.429 175.2C208.429 175.023 208.377 174.873 208.275 174.752C208.172 174.631 208.032 174.533 207.855 174.458C207.677 174.374 207.472 174.304 207.239 174.248C207.005 174.192 206.758 174.145 206.497 174.108C206.245 174.071 205.993 174.033 205.741 173.996C205.153 173.912 204.616 173.791 204.131 173.632C203.655 173.473 203.249 173.273 202.913 173.03C202.586 172.787 202.334 172.498 202.157 172.162C201.989 171.826 201.905 171.443 201.905 171.014C201.905 170.557 202.012 170.141 202.227 169.768C202.451 169.385 202.759 169.063 203.151 168.802C203.543 168.541 204 168.345 204.523 168.214C205.045 168.074 205.601 168.004 206.189 168.004C206.842 168.004 207.425 168.069 207.939 168.2C208.461 168.331 208.919 168.513 209.311 168.746C209.712 168.979 210.043 169.259 210.305 169.586L209.115 171C208.872 170.739 208.592 170.524 208.275 170.356C207.957 170.179 207.617 170.043 207.253 169.95C206.889 169.857 206.525 169.81 206.161 169.81C205.759 169.81 205.405 169.852 205.097 169.936C204.789 170.011 204.546 170.127 204.369 170.286C204.191 170.445 204.103 170.636 204.103 170.86C204.103 171.056 204.168 171.224 204.299 171.364C204.439 171.504 204.621 171.621 204.845 171.714C205.069 171.798 205.325 171.873 205.615 171.938C205.904 171.994 206.212 172.041 206.539 172.078C207.08 172.162 207.593 172.265 208.079 172.386C208.573 172.498 209.012 172.657 209.395 172.862C209.777 173.067 210.076 173.338 210.291 173.674C210.505 174.01 210.613 174.43 210.613 174.934C210.613 175.606 210.426 176.18 210.053 176.656C209.679 177.132 209.161 177.501 208.499 177.762C207.836 178.014 207.071 178.14 206.203 178.14ZM220.07 178V168.2H225.124C225.908 168.2 226.561 168.298 227.084 168.494C227.616 168.681 228.017 168.956 228.288 169.32C228.568 169.684 228.708 170.118 228.708 170.622C228.708 171.173 228.549 171.635 228.232 172.008C227.924 172.381 227.462 172.647 226.846 172.806L226.902 172.526C227.313 172.619 227.695 172.778 228.05 173.002C228.414 173.217 228.699 173.497 228.904 173.842C229.119 174.178 229.226 174.584 229.226 175.06C229.226 175.611 229.119 176.077 228.904 176.46C228.689 176.833 228.395 177.132 228.022 177.356C227.658 177.58 227.252 177.743 226.804 177.846C226.356 177.949 225.894 178 225.418 178H220.07ZM222.086 176.18H225.418C225.754 176.18 226.053 176.138 226.314 176.054C226.575 175.961 226.776 175.825 226.916 175.648C227.065 175.461 227.14 175.237 227.14 174.976C227.14 174.687 227.051 174.458 226.874 174.29C226.697 174.113 226.468 173.987 226.188 173.912C225.917 173.837 225.637 173.8 225.348 173.8H222.086V176.18ZM222.086 172.12H225.11C225.399 172.12 225.656 172.078 225.88 171.994C226.113 171.901 226.295 171.775 226.426 171.616C226.557 171.457 226.622 171.271 226.622 171.056C226.622 170.692 226.473 170.431 226.174 170.272C225.875 170.104 225.483 170.02 224.998 170.02H222.086V172.12ZM232.593 178V168.2H240.461V170.048H234.637V176.152H240.559V178H232.593ZM233.657 173.898V172.106H239.789V173.898H233.657ZM244.256 178V168.2H252.124V170.048H246.3V176.152H252.222V178H244.256ZM245.32 173.898V172.106H251.452V173.898H245.32ZM255.918 178V168.2H257.878L264.556 175.522H264.248C264.21 175.205 264.173 174.892 264.136 174.584C264.108 174.276 264.084 173.973 264.066 173.674C264.047 173.375 264.028 173.077 264.01 172.778C264 172.47 263.991 172.162 263.982 171.854C263.972 171.537 263.968 171.21 263.968 170.874V168.2H266.026V178H264.038L257.248 170.608L257.696 170.622C257.724 170.883 257.752 171.14 257.78 171.392C257.808 171.635 257.831 171.877 257.85 172.12C257.878 172.363 257.896 172.61 257.906 172.862C257.924 173.114 257.938 173.371 257.948 173.632C257.966 173.893 257.976 174.173 257.976 174.472V178H255.918ZM278.25 178L274.96 168.2H277.144L278.852 173.436C278.927 173.632 278.997 173.851 279.062 174.094C279.137 174.327 279.202 174.57 279.258 174.822C279.324 175.074 279.38 175.312 279.426 175.536C279.473 175.751 279.51 175.937 279.538 176.096L279.062 176.082C279.137 175.793 279.212 175.499 279.286 175.2C279.37 174.901 279.464 174.603 279.566 174.304C279.669 174.005 279.781 173.711 279.902 173.422L281.47 169.614H283.262L284.802 173.408C284.933 173.716 285.05 174.029 285.152 174.346C285.264 174.654 285.362 174.948 285.446 175.228C285.53 175.508 285.591 175.769 285.628 176.012L285.194 176.068C285.222 175.909 285.25 175.746 285.278 175.578C285.316 175.401 285.353 175.223 285.39 175.046C285.428 174.859 285.47 174.673 285.516 174.486C285.572 174.299 285.624 174.113 285.67 173.926C285.726 173.739 285.792 173.553 285.866 173.366L287.728 168.2H289.856L286.258 178H284.704L282.128 171.91L282.436 171.938L279.944 178H278.25ZM297.584 178.14C296.753 178.14 295.993 178.014 295.302 177.762C294.611 177.501 294.005 177.141 293.482 176.684C292.969 176.227 292.572 175.69 292.292 175.074C292.021 174.458 291.886 173.791 291.886 173.072C291.886 172.353 292.026 171.686 292.306 171.07C292.586 170.454 292.983 169.917 293.496 169.46C294.009 169.003 294.611 168.648 295.302 168.396C295.993 168.135 296.753 168.004 297.584 168.004C298.424 168.004 299.189 168.13 299.88 168.382C300.571 168.634 301.173 168.993 301.686 169.46C302.199 169.917 302.596 170.454 302.876 171.07C303.156 171.686 303.296 172.353 303.296 173.072C303.296 173.791 303.156 174.458 302.876 175.074C302.596 175.69 302.199 176.231 301.686 176.698C301.173 177.155 300.571 177.51 299.88 177.762C299.189 178.014 298.424 178.14 297.584 178.14ZM297.584 176.152C298.107 176.152 298.583 176.077 299.012 175.928C299.451 175.769 299.829 175.55 300.146 175.27C300.473 174.99 300.725 174.663 300.902 174.29C301.079 173.917 301.168 173.511 301.168 173.072C301.168 172.633 301.079 172.227 300.902 171.854C300.725 171.481 300.473 171.159 300.146 170.888C299.829 170.608 299.451 170.389 299.012 170.23C298.583 170.071 298.107 169.992 297.584 169.992C297.071 169.992 296.595 170.071 296.156 170.23C295.727 170.389 295.349 170.603 295.022 170.874C294.695 171.145 294.448 171.471 294.28 171.854C294.112 172.227 294.028 172.633 294.028 173.072C294.028 173.511 294.112 173.921 294.28 174.304C294.448 174.677 294.695 175.004 295.022 175.284C295.349 175.555 295.727 175.769 296.156 175.928C296.595 176.077 297.071 176.152 297.584 176.152ZM306.668 178V168.2H311.876C312.548 168.2 313.14 168.335 313.654 168.606C314.176 168.867 314.582 169.231 314.872 169.698C315.161 170.165 315.306 170.701 315.306 171.308C315.306 171.915 315.152 172.461 314.844 172.946C314.536 173.431 314.116 173.819 313.584 174.108C313.061 174.388 312.473 174.528 311.82 174.528H308.698V178H306.668ZM313.346 178L310.322 173.576L312.52 173.226L315.824 178.014L313.346 178ZM308.698 172.82H311.624C311.913 172.82 312.174 172.759 312.408 172.638C312.641 172.517 312.823 172.349 312.954 172.134C313.094 171.91 313.164 171.663 313.164 171.392C313.164 171.112 313.094 170.869 312.954 170.664C312.814 170.459 312.618 170.3 312.366 170.188C312.114 170.076 311.834 170.02 311.526 170.02H308.698V172.82ZM320.757 175.438L320.365 173.52L326.665 168.2H329.367L320.757 175.438ZM319.301 178V168.2H321.401V178H319.301ZM326.833 178L322.815 172.946L324.131 171.546L329.395 178H326.833ZM332.714 178V176.138H334.968V170.062H332.714V168.2H339.336V170.062H337.068V176.138H339.336V178H332.714ZM343.459 178V168.2H345.419L352.097 175.522H351.789C351.751 175.205 351.714 174.892 351.677 174.584C351.649 174.276 351.625 173.973 351.607 173.674C351.588 173.375 351.569 173.077 351.551 172.778C351.541 172.47 351.532 172.162 351.523 171.854C351.513 171.537 351.509 171.21 351.509 170.874V168.2H353.567V178H351.579L344.789 170.608L345.237 170.622C345.265 170.883 345.293 171.14 345.321 171.392C345.349 171.635 345.372 171.877 345.391 172.12C345.419 172.363 345.437 172.61 345.447 172.862C345.465 173.114 345.479 173.371 345.489 173.632C345.507 173.893 345.517 174.173 345.517 174.472V178H343.459ZM362.551 178.14C361.757 178.14 361.015 178.028 360.325 177.804C359.643 177.571 359.051 177.239 358.547 176.81C358.043 176.371 357.646 175.839 357.357 175.214C357.077 174.589 356.937 173.875 356.937 173.072C356.937 172.353 357.081 171.691 357.371 171.084C357.66 170.468 358.066 169.936 358.589 169.488C359.121 169.031 359.741 168.676 360.451 168.424C361.169 168.172 361.949 168.046 362.789 168.046C363.442 168.046 364.049 168.125 364.609 168.284C365.178 168.433 365.682 168.629 366.121 168.872C366.569 169.115 366.928 169.381 367.199 169.67L365.897 171.098C365.617 170.865 365.313 170.664 364.987 170.496C364.66 170.328 364.31 170.193 363.937 170.09C363.573 169.987 363.185 169.936 362.775 169.936C362.261 169.936 361.781 170.015 361.333 170.174C360.894 170.333 360.507 170.552 360.171 170.832C359.844 171.112 359.587 171.443 359.401 171.826C359.214 172.209 359.121 172.624 359.121 173.072C359.121 173.595 359.219 174.057 359.415 174.458C359.611 174.859 359.877 175.191 360.213 175.452C360.558 175.704 360.945 175.9 361.375 176.04C361.813 176.171 362.275 176.236 362.761 176.236C363.199 176.236 363.61 176.189 363.993 176.096C364.385 176.003 364.721 175.867 365.001 175.69C365.29 175.513 365.514 175.303 365.673 175.06C365.831 174.817 365.906 174.561 365.897 174.29V174.01L366.177 174.472H362.621V172.736H367.969C367.978 172.867 367.987 173.002 367.997 173.142C368.006 173.282 368.011 173.413 368.011 173.534C368.02 173.646 368.025 173.725 368.025 173.772C368.025 174.481 367.889 175.107 367.619 175.648C367.357 176.18 366.984 176.633 366.499 177.006C366.013 177.379 365.435 177.664 364.763 177.86C364.091 178.047 363.353 178.14 362.551 178.14ZM31.2614 196V186.2H33.3614V196H31.2614ZM32.1154 192.192V190.386H38.3734V192.192H32.1154ZM32.2414 188.09V186.2H38.9614V188.09H32.2414ZM47.3613 196.14C46.5307 196.14 45.77 196.014 45.0793 195.762C44.3887 195.501 43.782 195.141 43.2593 194.684C42.746 194.227 42.3493 193.69 42.0693 193.074C41.7987 192.458 41.6633 191.791 41.6633 191.072C41.6633 190.353 41.8033 189.686 42.0833 189.07C42.3633 188.454 42.76 187.917 43.2733 187.46C43.7867 187.003 44.3887 186.648 45.0793 186.396C45.77 186.135 46.5307 186.004 47.3613 186.004C48.2013 186.004 48.9667 186.13 49.6573 186.382C50.348 186.634 50.95 186.993 51.4633 187.46C51.9767 187.917 52.3733 188.454 52.6533 189.07C52.9333 189.686 53.0733 190.353 53.0733 191.072C53.0733 191.791 52.9333 192.458 52.6533 193.074C52.3733 193.69 51.9767 194.231 51.4633 194.698C50.95 195.155 50.348 195.51 49.6573 195.762C48.9667 196.014 48.2013 196.14 47.3613 196.14ZM47.3613 194.152C47.884 194.152 48.36 194.077 48.7893 193.928C49.228 193.769 49.606 193.55 49.9233 193.27C50.25 192.99 50.502 192.663 50.6793 192.29C50.8567 191.917 50.9453 191.511 50.9453 191.072C50.9453 190.633 50.8567 190.227 50.6793 189.854C50.502 189.481 50.25 189.159 49.9233 188.888C49.606 188.608 49.228 188.389 48.7893 188.23C48.36 188.071 47.884 187.992 47.3613 187.992C46.848 187.992 46.372 188.071 45.9333 188.23C45.504 188.389 45.126 188.603 44.7993 188.874C44.4727 189.145 44.2253 189.471 44.0573 189.854C43.8893 190.227 43.8053 190.633 43.8053 191.072C43.8053 191.511 43.8893 191.921 44.0573 192.304C44.2253 192.677 44.4727 193.004 44.7993 193.284C45.126 193.555 45.504 193.769 45.9333 193.928C46.372 194.077 46.848 194.152 47.3613 194.152ZM56.445 196V186.2H61.653C62.325 186.2 62.9177 186.335 63.431 186.606C63.9537 186.867 64.3597 187.231 64.649 187.698C64.9384 188.165 65.083 188.701 65.083 189.308C65.083 189.915 64.929 190.461 64.621 190.946C64.313 191.431 63.893 191.819 63.361 192.108C62.8384 192.388 62.2504 192.528 61.597 192.528H58.475V196H56.445ZM63.123 196L60.099 191.576L62.297 191.226L65.601 196.014L63.123 196ZM58.475 190.82H61.401C61.6904 190.82 61.9517 190.759 62.185 190.638C62.4184 190.517 62.6004 190.349 62.731 190.134C62.871 189.91 62.941 189.663 62.941 189.392C62.941 189.112 62.871 188.869 62.731 188.664C62.591 188.459 62.395 188.3 62.143 188.188C61.891 188.076 61.611 188.02 61.303 188.02H58.475V190.82ZM78.3665 196V191.436L78.5765 192.374L73.7885 186.2H76.3925L79.9205 190.932L78.9825 190.904L82.3565 186.2H84.7785L80.3545 192.192L80.4805 191.324V196H78.3665ZM91.9316 196.14C91.101 196.14 90.3403 196.014 89.6496 195.762C88.959 195.501 88.3523 195.141 87.8296 194.684C87.3163 194.227 86.9196 193.69 86.6396 193.074C86.369 192.458 86.2336 191.791 86.2336 191.072C86.2336 190.353 86.3736 189.686 86.6536 189.07C86.9336 188.454 87.3303 187.917 87.8436 187.46C88.357 187.003 88.959 186.648 89.6496 186.396C90.3403 186.135 91.101 186.004 91.9316 186.004C92.7716 186.004 93.537 186.13 94.2276 186.382C94.9183 186.634 95.5203 186.993 96.0336 187.46C96.547 187.917 96.9436 188.454 97.2236 189.07C97.5036 189.686 97.6436 190.353 97.6436 191.072C97.6436 191.791 97.5036 192.458 97.2236 193.074C96.9436 193.69 96.547 194.231 96.0336 194.698C95.5203 195.155 94.9183 195.51 94.2276 195.762C93.537 196.014 92.7716 196.14 91.9316 196.14ZM91.9316 194.152C92.4543 194.152 92.9303 194.077 93.3596 193.928C93.7983 193.769 94.1763 193.55 94.4936 193.27C94.8203 192.99 95.0723 192.663 95.2496 192.29C95.427 191.917 95.5156 191.511 95.5156 191.072C95.5156 190.633 95.427 190.227 95.2496 189.854C95.0723 189.481 94.8203 189.159 94.4936 188.888C94.1763 188.608 93.7983 188.389 93.3596 188.23C92.9303 188.071 92.4543 187.992 91.9316 187.992C91.4183 187.992 90.9423 188.071 90.5036 188.23C90.0743 188.389 89.6963 188.603 89.3696 188.874C89.043 189.145 88.7956 189.471 88.6276 189.854C88.4596 190.227 88.3756 190.633 88.3756 191.072C88.3756 191.511 88.4596 191.921 88.6276 192.304C88.7956 192.677 89.043 193.004 89.3696 193.284C89.6963 193.555 90.0743 193.769 90.5036 193.928C90.9423 194.077 91.4183 194.152 91.9316 194.152ZM105.649 196.084C104.707 196.084 103.881 195.893 103.171 195.51C102.462 195.118 101.907 194.591 101.505 193.928C101.104 193.256 100.903 192.495 100.903 191.646V186.186H103.017V191.562C103.017 192.066 103.134 192.514 103.367 192.906C103.601 193.298 103.913 193.611 104.305 193.844C104.707 194.068 105.155 194.18 105.649 194.18C106.163 194.18 106.62 194.068 107.021 193.844C107.432 193.611 107.754 193.298 107.987 192.906C108.221 192.514 108.337 192.066 108.337 191.562V186.186H110.381V191.646C110.381 192.495 110.181 193.256 109.779 193.928C109.378 194.591 108.823 195.118 108.113 195.51C107.404 195.893 106.583 196.084 105.649 196.084ZM120.484 196V186.2H122.584V196H120.484ZM121.338 192.192V190.386H127.596V192.192H121.338ZM121.464 188.09V186.2H128.184V188.09H121.464ZM136.584 196.14C135.753 196.14 134.993 196.014 134.302 195.762C133.611 195.501 133.005 195.141 132.482 194.684C131.969 194.227 131.572 193.69 131.292 193.074C131.021 192.458 130.886 191.791 130.886 191.072C130.886 190.353 131.026 189.686 131.306 189.07C131.586 188.454 131.983 187.917 132.496 187.46C133.009 187.003 133.611 186.648 134.302 186.396C134.993 186.135 135.753 186.004 136.584 186.004C137.424 186.004 138.189 186.13 138.88 186.382C139.571 186.634 140.173 186.993 140.686 187.46C141.199 187.917 141.596 188.454 141.876 189.07C142.156 189.686 142.296 190.353 142.296 191.072C142.296 191.791 142.156 192.458 141.876 193.074C141.596 193.69 141.199 194.231 140.686 194.698C140.173 195.155 139.571 195.51 138.88 195.762C138.189 196.014 137.424 196.14 136.584 196.14ZM136.584 194.152C137.107 194.152 137.583 194.077 138.012 193.928C138.451 193.769 138.829 193.55 139.146 193.27C139.473 192.99 139.725 192.663 139.902 192.29C140.079 191.917 140.168 191.511 140.168 191.072C140.168 190.633 140.079 190.227 139.902 189.854C139.725 189.481 139.473 189.159 139.146 188.888C138.829 188.608 138.451 188.389 138.012 188.23C137.583 188.071 137.107 187.992 136.584 187.992C136.071 187.992 135.595 188.071 135.156 188.23C134.727 188.389 134.349 188.603 134.022 188.874C133.695 189.145 133.448 189.471 133.28 189.854C133.112 190.227 133.028 190.633 133.028 191.072C133.028 191.511 133.112 191.921 133.28 192.304C133.448 192.677 133.695 193.004 134.022 193.284C134.349 193.555 134.727 193.769 135.156 193.928C135.595 194.077 136.071 194.152 136.584 194.152ZM145.668 196V186.2H150.876C151.548 186.2 152.14 186.335 152.654 186.606C153.176 186.867 153.582 187.231 153.872 187.698C154.161 188.165 154.306 188.701 154.306 189.308C154.306 189.915 154.152 190.461 153.844 190.946C153.536 191.431 153.116 191.819 152.584 192.108C152.061 192.388 151.473 192.528 150.82 192.528H147.698V196H145.668ZM152.346 196L149.322 191.576L151.52 191.226L154.824 196.014L152.346 196ZM147.698 190.82H150.624C150.913 190.82 151.174 190.759 151.408 190.638C151.641 190.517 151.823 190.349 151.954 190.134C152.094 189.91 152.164 189.663 152.164 189.392C152.164 189.112 152.094 188.869 151.954 188.664C151.814 188.459 151.618 188.3 151.366 188.188C151.114 188.076 150.834 188.02 150.526 188.02H147.698V190.82ZM167.449 196C166.927 196 166.427 195.916 165.951 195.748C165.475 195.571 165.055 195.323 164.691 195.006C164.327 194.689 164.043 194.32 163.837 193.9C163.641 193.471 163.543 192.999 163.543 192.486C163.543 192.075 163.595 191.683 163.697 191.31C163.809 190.937 163.959 190.582 164.145 190.246C164.332 189.901 164.542 189.56 164.775 189.224C165.009 188.879 165.261 188.533 165.531 188.188L167.225 186.046H169.395L169.451 186.186L167.043 189.056C166.763 189.411 166.497 189.765 166.245 190.12C165.993 190.475 165.774 190.843 165.587 191.226C165.401 191.599 165.251 191.977 165.139 192.36L164.369 191.506C164.5 191.198 164.687 190.904 164.929 190.624C165.181 190.335 165.466 190.083 165.783 189.868C166.11 189.644 166.465 189.471 166.847 189.35C167.239 189.219 167.641 189.154 168.051 189.154C168.667 189.154 169.232 189.294 169.745 189.574C170.259 189.854 170.669 190.237 170.977 190.722C171.285 191.207 171.439 191.753 171.439 192.36C171.439 193.032 171.271 193.643 170.935 194.194C170.609 194.745 170.147 195.183 169.549 195.51C168.952 195.837 168.252 196 167.449 196ZM167.477 194.222C167.869 194.222 168.224 194.152 168.541 194.012C168.859 193.872 169.106 193.676 169.283 193.424C169.47 193.163 169.563 192.855 169.563 192.5C169.563 192.211 169.475 191.94 169.297 191.688C169.129 191.436 168.887 191.231 168.569 191.072C168.261 190.904 167.902 190.82 167.491 190.82C167.081 190.82 166.721 190.895 166.413 191.044C166.105 191.193 165.867 191.399 165.699 191.66C165.531 191.912 165.447 192.187 165.447 192.486C165.447 192.803 165.531 193.097 165.699 193.368C165.867 193.629 166.101 193.839 166.399 193.998C166.707 194.147 167.067 194.222 167.477 194.222ZM183.831 196V191.436L184.041 192.374L179.253 186.2H181.857L185.385 190.932L184.447 190.904L187.821 186.2H190.243L185.819 192.192L185.945 191.324V196H183.831ZM192.877 196V186.2H200.745V188.048H194.921V194.152H200.843V196H192.877ZM193.941 191.898V190.106H200.073V191.898H193.941ZM203.223 196L207.689 186.2H209.719L214.171 196H211.973L209.327 190.19C209.252 190.003 209.173 189.812 209.089 189.616C209.005 189.42 208.921 189.224 208.837 189.028C208.762 188.823 208.687 188.622 208.613 188.426C208.547 188.221 208.487 188.025 208.431 187.838L208.893 187.824C208.837 188.029 208.771 188.235 208.697 188.44C208.622 188.645 208.543 188.846 208.459 189.042C208.384 189.238 208.305 189.434 208.221 189.63C208.137 189.826 208.053 190.027 207.969 190.232L205.323 196H203.223ZM205.253 194.026L205.967 192.332H211.329L211.777 194.026H205.253ZM216.898 196V186.2H222.106C222.778 186.2 223.371 186.335 223.884 186.606C224.407 186.867 224.813 187.231 225.102 187.698C225.391 188.165 225.536 188.701 225.536 189.308C225.536 189.915 225.382 190.461 225.074 190.946C224.766 191.431 224.346 191.819 223.814 192.108C223.291 192.388 222.703 192.528 222.05 192.528H218.928V196H216.898ZM223.576 196L220.552 191.576L222.75 191.226L226.054 196.014L223.576 196ZM218.928 190.82H221.854C222.143 190.82 222.405 190.759 222.638 190.638C222.871 190.517 223.053 190.349 223.184 190.134C223.324 189.91 223.394 189.663 223.394 189.392C223.394 189.112 223.324 188.869 223.184 188.664C223.044 188.459 222.848 188.3 222.596 188.188C222.344 188.076 222.064 188.02 221.756 188.02H218.928V190.82ZM233.437 196.14C232.728 196.14 232.079 196.07 231.491 195.93C230.903 195.781 230.371 195.575 229.895 195.314C229.428 195.043 229.004 194.717 228.621 194.334L229.755 192.71C230.38 193.307 231.006 193.732 231.631 193.984C232.266 194.227 232.914 194.348 233.577 194.348C233.913 194.348 234.24 194.311 234.557 194.236C234.874 194.152 235.136 194.026 235.341 193.858C235.556 193.69 235.663 193.471 235.663 193.2C235.663 193.023 235.612 192.873 235.509 192.752C235.406 192.631 235.266 192.533 235.089 192.458C234.912 192.374 234.706 192.304 234.473 192.248C234.24 192.192 233.992 192.145 233.731 192.108C233.479 192.071 233.227 192.033 232.975 191.996C232.387 191.912 231.85 191.791 231.365 191.632C230.889 191.473 230.483 191.273 230.147 191.03C229.82 190.787 229.568 190.498 229.391 190.162C229.223 189.826 229.139 189.443 229.139 189.014C229.139 188.557 229.246 188.141 229.461 187.768C229.685 187.385 229.993 187.063 230.385 186.802C230.777 186.541 231.234 186.345 231.757 186.214C232.28 186.074 232.835 186.004 233.423 186.004C234.076 186.004 234.66 186.069 235.173 186.2C235.696 186.331 236.153 186.513 236.545 186.746C236.946 186.979 237.278 187.259 237.539 187.586L236.349 189C236.106 188.739 235.826 188.524 235.509 188.356C235.192 188.179 234.851 188.043 234.487 187.95C234.123 187.857 233.759 187.81 233.395 187.81C232.994 187.81 232.639 187.852 232.331 187.936C232.023 188.011 231.78 188.127 231.603 188.286C231.426 188.445 231.337 188.636 231.337 188.86C231.337 189.056 231.402 189.224 231.533 189.364C231.673 189.504 231.855 189.621 232.079 189.714C232.303 189.798 232.56 189.873 232.849 189.938C233.138 189.994 233.446 190.041 233.773 190.078C234.314 190.162 234.828 190.265 235.313 190.386C235.808 190.498 236.246 190.657 236.629 190.862C237.012 191.067 237.31 191.338 237.525 191.674C237.74 192.01 237.847 192.43 237.847 192.934C237.847 193.606 237.66 194.18 237.287 194.656C236.914 195.132 236.396 195.501 235.733 195.762C235.07 196.014 234.305 196.14 233.437 196.14ZM241.936 192.486C241.824 191.954 241.712 191.389 241.6 190.792C241.488 190.195 241.399 189.583 241.334 188.958C241.268 188.333 241.236 187.731 241.236 187.152V186.088H243.854V187.152C243.854 187.731 243.821 188.333 243.756 188.958C243.69 189.583 243.606 190.199 243.504 190.806C243.401 191.403 243.284 191.963 243.154 192.486H241.936ZM242.538 196.154C242.062 196.154 241.702 196.051 241.46 195.846C241.217 195.631 241.096 195.337 241.096 194.964C241.096 194.647 241.217 194.371 241.46 194.138C241.712 193.905 242.071 193.788 242.538 193.788C243.014 193.788 243.373 193.895 243.616 194.11C243.858 194.315 243.98 194.6 243.98 194.964C243.98 195.291 243.854 195.571 243.602 195.804C243.359 196.037 243.004 196.154 242.538 196.154ZM254.113 196V186.2H259.167C259.951 186.2 260.604 186.298 261.127 186.494C261.659 186.681 262.06 186.956 262.331 187.32C262.611 187.684 262.751 188.118 262.751 188.622C262.751 189.173 262.592 189.635 262.275 190.008C261.967 190.381 261.505 190.647 260.889 190.806L260.945 190.526C261.356 190.619 261.738 190.778 262.093 191.002C262.457 191.217 262.742 191.497 262.947 191.842C263.162 192.178 263.269 192.584 263.269 193.06C263.269 193.611 263.162 194.077 262.947 194.46C262.732 194.833 262.438 195.132 262.065 195.356C261.701 195.58 261.295 195.743 260.847 195.846C260.399 195.949 259.937 196 259.461 196H254.113ZM256.129 194.18H259.461C259.797 194.18 260.096 194.138 260.357 194.054C260.618 193.961 260.819 193.825 260.959 193.648C261.108 193.461 261.183 193.237 261.183 192.976C261.183 192.687 261.094 192.458 260.917 192.29C260.74 192.113 260.511 191.987 260.231 191.912C259.96 191.837 259.68 191.8 259.391 191.8H256.129V194.18ZM256.129 190.12H259.153C259.442 190.12 259.699 190.078 259.923 189.994C260.156 189.901 260.338 189.775 260.469 189.616C260.6 189.457 260.665 189.271 260.665 189.056C260.665 188.692 260.516 188.431 260.217 188.272C259.918 188.104 259.526 188.02 259.041 188.02H256.129V190.12ZM266.636 196V186.2H271.844C272.516 186.2 273.109 186.335 273.622 186.606C274.145 186.867 274.551 187.231 274.84 187.698C275.13 188.165 275.274 188.701 275.274 189.308C275.274 189.915 275.12 190.461 274.812 190.946C274.504 191.431 274.084 191.819 273.552 192.108C273.03 192.388 272.442 192.528 271.788 192.528H268.666V196H266.636ZM273.314 196L270.29 191.576L272.488 191.226L275.792 196.014L273.314 196ZM268.666 190.82H271.592C271.882 190.82 272.143 190.759 272.376 190.638C272.61 190.517 272.792 190.349 272.922 190.134C273.062 189.91 273.132 189.663 273.132 189.392C273.132 189.112 273.062 188.869 272.922 188.664C272.782 188.459 272.586 188.3 272.334 188.188C272.082 188.076 271.802 188.02 271.494 188.02H268.666V190.82ZM284.145 196.14C283.314 196.14 282.553 196.014 281.863 195.762C281.172 195.501 280.565 195.141 280.043 194.684C279.529 194.227 279.133 193.69 278.853 193.074C278.582 192.458 278.447 191.791 278.447 191.072C278.447 190.353 278.587 189.686 278.867 189.07C279.147 188.454 279.543 187.917 280.057 187.46C280.57 187.003 281.172 186.648 281.863 186.396C282.553 186.135 283.314 186.004 284.145 186.004C284.985 186.004 285.75 186.13 286.441 186.382C287.131 186.634 287.733 186.993 288.247 187.46C288.76 187.917 289.157 188.454 289.437 189.07C289.717 189.686 289.857 190.353 289.857 191.072C289.857 191.791 289.717 192.458 289.437 193.074C289.157 193.69 288.76 194.231 288.247 194.698C287.733 195.155 287.131 195.51 286.441 195.762C285.75 196.014 284.985 196.14 284.145 196.14ZM284.145 194.152C284.667 194.152 285.143 194.077 285.573 193.928C286.011 193.769 286.389 193.55 286.707 193.27C287.033 192.99 287.285 192.663 287.463 192.29C287.64 191.917 287.729 191.511 287.729 191.072C287.729 190.633 287.64 190.227 287.463 189.854C287.285 189.481 287.033 189.159 286.707 188.888C286.389 188.608 286.011 188.389 285.573 188.23C285.143 188.071 284.667 187.992 284.145 187.992C283.631 187.992 283.155 188.071 282.717 188.23C282.287 188.389 281.909 188.603 281.583 188.874C281.256 189.145 281.009 189.471 280.841 189.854C280.673 190.227 280.589 190.633 280.589 191.072C280.589 191.511 280.673 191.921 280.841 192.304C281.009 192.677 281.256 193.004 281.583 193.284C281.909 193.555 282.287 193.769 282.717 193.928C283.155 194.077 283.631 194.152 284.145 194.152ZM295.19 196L291.9 186.2H294.084L295.792 191.436C295.867 191.632 295.937 191.851 296.002 192.094C296.077 192.327 296.142 192.57 296.198 192.822C296.263 193.074 296.319 193.312 296.366 193.536C296.413 193.751 296.45 193.937 296.478 194.096L296.002 194.082C296.077 193.793 296.151 193.499 296.226 193.2C296.31 192.901 296.403 192.603 296.506 192.304C296.609 192.005 296.721 191.711 296.842 191.422L298.41 187.614H300.202L301.742 191.408C301.873 191.716 301.989 192.029 302.092 192.346C302.204 192.654 302.302 192.948 302.386 193.228C302.47 193.508 302.531 193.769 302.568 194.012L302.134 194.068C302.162 193.909 302.19 193.746 302.218 193.578C302.255 193.401 302.293 193.223 302.33 193.046C302.367 192.859 302.409 192.673 302.456 192.486C302.512 192.299 302.563 192.113 302.61 191.926C302.666 191.739 302.731 191.553 302.806 191.366L304.668 186.2H306.796L303.198 196H301.644L299.068 189.91L299.376 189.938L296.884 196H295.19ZM313.349 196.14C312.64 196.14 311.991 196.07 311.403 195.93C310.815 195.781 310.283 195.575 309.807 195.314C309.34 195.043 308.916 194.717 308.533 194.334L309.667 192.71C310.292 193.307 310.918 193.732 311.543 193.984C312.178 194.227 312.826 194.348 313.489 194.348C313.825 194.348 314.152 194.311 314.469 194.236C314.786 194.152 315.048 194.026 315.253 193.858C315.468 193.69 315.575 193.471 315.575 193.2C315.575 193.023 315.524 192.873 315.421 192.752C315.318 192.631 315.178 192.533 315.001 192.458C314.824 192.374 314.618 192.304 314.385 192.248C314.152 192.192 313.904 192.145 313.643 192.108C313.391 192.071 313.139 192.033 312.887 191.996C312.299 191.912 311.762 191.791 311.277 191.632C310.801 191.473 310.395 191.273 310.059 191.03C309.732 190.787 309.48 190.498 309.303 190.162C309.135 189.826 309.051 189.443 309.051 189.014C309.051 188.557 309.158 188.141 309.373 187.768C309.597 187.385 309.905 187.063 310.297 186.802C310.689 186.541 311.146 186.345 311.669 186.214C312.192 186.074 312.747 186.004 313.335 186.004C313.988 186.004 314.572 186.069 315.085 186.2C315.608 186.331 316.065 186.513 316.457 186.746C316.858 186.979 317.19 187.259 317.451 187.586L316.261 189C316.018 188.739 315.738 188.524 315.421 188.356C315.104 188.179 314.763 188.043 314.399 187.95C314.035 187.857 313.671 187.81 313.307 187.81C312.906 187.81 312.551 187.852 312.243 187.936C311.935 188.011 311.692 188.127 311.515 188.286C311.338 188.445 311.249 188.636 311.249 188.86C311.249 189.056 311.314 189.224 311.445 189.364C311.585 189.504 311.767 189.621 311.991 189.714C312.215 189.798 312.472 189.873 312.761 189.938C313.05 189.994 313.358 190.041 313.685 190.078C314.226 190.162 314.74 190.265 315.225 190.386C315.72 190.498 316.158 190.657 316.541 190.862C316.924 191.067 317.222 191.338 317.437 191.674C317.652 192.01 317.759 192.43 317.759 192.934C317.759 193.606 317.572 194.18 317.199 194.656C316.826 195.132 316.308 195.501 315.645 195.762C314.982 196.014 314.217 196.14 313.349 196.14ZM321.078 196V186.2H328.946V188.048H323.122V194.152H329.044V196H321.078ZM322.142 191.898V190.106H328.274V191.898H322.142ZM343.891 196.14C343.06 196.14 342.299 196.014 341.609 195.762C340.918 195.501 340.311 195.141 339.789 194.684C339.275 194.227 338.879 193.69 338.599 193.074C338.328 192.458 338.193 191.791 338.193 191.072C338.193 190.353 338.333 189.686 338.613 189.07C338.893 188.454 339.289 187.917 339.803 187.46C340.316 187.003 340.918 186.648 341.609 186.396C342.299 186.135 343.06 186.004 343.891 186.004C344.731 186.004 345.496 186.13 346.187 186.382C346.877 186.634 347.479 186.993 347.993 187.46C348.506 187.917 348.903 188.454 349.183 189.07C349.463 189.686 349.603 190.353 349.603 191.072C349.603 191.791 349.463 192.458 349.183 193.074C348.903 193.69 348.506 194.231 347.993 194.698C347.479 195.155 346.877 195.51 346.187 195.762C345.496 196.014 344.731 196.14 343.891 196.14ZM343.891 194.152C344.413 194.152 344.889 194.077 345.319 193.928C345.757 193.769 346.135 193.55 346.453 193.27C346.779 192.99 347.031 192.663 347.209 192.29C347.386 191.917 347.475 191.511 347.475 191.072C347.475 190.633 347.386 190.227 347.209 189.854C347.031 189.481 346.779 189.159 346.453 188.888C346.135 188.608 345.757 188.389 345.319 188.23C344.889 188.071 344.413 187.992 343.891 187.992C343.377 187.992 342.901 188.071 342.463 188.23C342.033 188.389 341.655 188.603 341.329 188.874C341.002 189.145 340.755 189.471 340.587 189.854C340.419 190.227 340.335 190.633 340.335 191.072C340.335 191.511 340.419 191.921 340.587 192.304C340.755 192.677 341.002 193.004 341.329 193.284C341.655 193.555 342.033 193.769 342.463 193.928C342.901 194.077 343.377 194.152 343.891 194.152ZM357.608 196.084C356.666 196.084 355.84 195.893 355.13 195.51C354.421 195.118 353.866 194.591 353.464 193.928C353.063 193.256 352.862 192.495 352.862 191.646V186.186H354.976V191.562C354.976 192.066 355.093 192.514 355.326 192.906C355.56 193.298 355.872 193.611 356.264 193.844C356.666 194.068 357.114 194.18 357.608 194.18C358.122 194.18 358.579 194.068 358.98 193.844C359.391 193.611 359.713 193.298 359.946 192.906C360.18 192.514 360.296 192.066 360.296 191.562V186.186H362.34V191.646C362.34 192.495 362.14 193.256 361.738 193.928C361.337 194.591 360.782 195.118 360.072 195.51C359.363 195.893 358.542 196.084 357.608 196.084ZM366.304 196V186.2H371.512C372.184 186.2 372.777 186.335 373.29 186.606C373.813 186.867 374.219 187.231 374.508 187.698C374.798 188.165 374.942 188.701 374.942 189.308C374.942 189.915 374.788 190.461 374.48 190.946C374.172 191.431 373.752 191.819 373.22 192.108C372.698 192.388 372.11 192.528 371.456 192.528H368.334V196H366.304ZM372.982 196L369.958 191.576L372.156 191.226L375.46 196.014L372.982 196ZM368.334 190.82H371.26C371.55 190.82 371.811 190.759 372.044 190.638C372.278 190.517 372.46 190.349 372.59 190.134C372.73 189.91 372.8 189.663 372.8 189.392C372.8 189.112 372.73 188.869 372.59 188.664C372.45 188.459 372.254 188.3 372.002 188.188C371.75 188.076 371.47 188.02 371.162 188.02H368.334V190.82ZM51.2495 214L47.9595 204.2H50.1435L51.8515 209.436C51.9261 209.632 51.9961 209.851 52.0615 210.094C52.1361 210.327 52.2015 210.57 52.2575 210.822C52.3228 211.074 52.3788 211.312 52.4255 211.536C52.4721 211.751 52.5095 211.937 52.5375 212.096L52.0615 212.082C52.1361 211.793 52.2108 211.499 52.2855 211.2C52.3695 210.901 52.4628 210.603 52.5655 210.304C52.6681 210.005 52.7801 209.711 52.9015 209.422L54.4695 205.614H56.2615L57.8015 209.408C57.9321 209.716 58.0488 210.029 58.1515 210.346C58.2635 210.654 58.3615 210.948 58.4455 211.228C58.5295 211.508 58.5901 211.769 58.6275 212.012L58.1935 212.068C58.2215 211.909 58.2495 211.746 58.2775 211.578C58.3148 211.401 58.3521 211.223 58.3895 211.046C58.4268 210.859 58.4688 210.673 58.5155 210.486C58.5715 210.299 58.6228 210.113 58.6695 209.926C58.7255 209.739 58.7908 209.553 58.8655 209.366L60.7275 204.2H62.8555L59.2575 214H57.7035L55.1275 207.91L55.4355 207.938L52.9435 214H51.2495ZM65.6954 214V212.138H67.9494V206.062H65.6954V204.2H72.3174V206.062H70.0494V212.138H72.3174V214H65.6954ZM76.4402 214V204.2H81.1722C82.0122 204.2 82.7635 204.326 83.4262 204.578C84.0888 204.83 84.6488 205.185 85.1062 205.642C85.5728 206.09 85.9275 206.608 86.1702 207.196C86.4128 207.784 86.5342 208.419 86.5342 209.1C86.5342 209.781 86.4128 210.421 86.1702 211.018C85.9275 211.615 85.5728 212.138 85.1062 212.586C84.6488 213.034 84.0888 213.384 83.4262 213.636C82.7635 213.879 82.0122 214 81.1722 214H76.4402ZM78.5402 212.474L78.3162 212.11H81.1022C81.6528 212.11 82.1288 212.031 82.5302 211.872C82.9408 211.713 83.2815 211.499 83.5522 211.228C83.8228 210.948 84.0235 210.626 84.1542 210.262C84.2848 209.898 84.3502 209.511 84.3502 209.1C84.3502 208.68 84.2848 208.293 84.1542 207.938C84.0235 207.574 83.8228 207.257 83.5522 206.986C83.2815 206.706 82.9408 206.487 82.5302 206.328C82.1288 206.169 81.6528 206.09 81.1022 206.09H78.2742L78.5402 205.754V212.474ZM89.907 214V204.2H97.775V206.048H91.951V212.152H97.873V214H89.907ZM90.971 209.898V208.106H97.103V209.898H90.971ZM107.708 214V204.2H112.916C113.588 204.2 114.18 204.335 114.694 204.606C115.216 204.867 115.622 205.231 115.912 205.698C116.201 206.165 116.346 206.701 116.346 207.308C116.346 207.915 116.192 208.461 115.884 208.946C115.576 209.431 115.156 209.819 114.624 210.108C114.101 210.388 113.513 210.528 112.86 210.528H109.738V214H107.708ZM114.386 214L111.362 209.576L113.56 209.226L116.864 214.014L114.386 214ZM109.738 208.82H112.664C112.953 208.82 113.214 208.759 113.448 208.638C113.681 208.517 113.863 208.349 113.994 208.134C114.134 207.91 114.204 207.663 114.204 207.392C114.204 207.112 114.134 206.869 113.994 206.664C113.854 206.459 113.658 206.3 113.406 206.188C113.154 206.076 112.874 206.02 112.566 206.02H109.738V208.82ZM119.025 214L123.491 204.2H125.521L129.973 214H127.775L125.129 208.19C125.054 208.003 124.975 207.812 124.891 207.616C124.807 207.42 124.723 207.224 124.639 207.028C124.564 206.823 124.489 206.622 124.415 206.426C124.349 206.221 124.289 206.025 124.233 205.838L124.695 205.824C124.639 206.029 124.573 206.235 124.499 206.44C124.424 206.645 124.345 206.846 124.261 207.042C124.186 207.238 124.107 207.434 124.023 207.63C123.939 207.826 123.855 208.027 123.771 208.232L121.125 214H119.025ZM121.055 212.026L121.769 210.332H127.131L127.579 212.026H121.055ZM132.7 214V204.2H134.66L141.338 211.522H141.03C140.993 211.205 140.955 210.892 140.918 210.584C140.89 210.276 140.867 209.973 140.848 209.674C140.829 209.375 140.811 209.077 140.792 208.778C140.783 208.47 140.773 208.162 140.764 207.854C140.755 207.537 140.75 207.21 140.75 206.874V204.2H142.808V214H140.82L134.03 206.608L134.478 206.622C134.506 206.883 134.534 207.14 134.562 207.392C134.59 207.635 134.613 207.877 134.632 208.12C134.66 208.363 134.679 208.61 134.688 208.862C134.707 209.114 134.721 209.371 134.73 209.632C134.749 209.893 134.758 210.173 134.758 210.472V214H132.7ZM151.792 214.14C150.999 214.14 150.257 214.028 149.566 213.804C148.885 213.571 148.292 213.239 147.788 212.81C147.284 212.371 146.887 211.839 146.598 211.214C146.318 210.589 146.178 209.875 146.178 209.072C146.178 208.353 146.323 207.691 146.612 207.084C146.901 206.468 147.307 205.936 147.83 205.488C148.362 205.031 148.983 204.676 149.692 204.424C150.411 204.172 151.19 204.046 152.03 204.046C152.683 204.046 153.29 204.125 153.85 204.284C154.419 204.433 154.923 204.629 155.362 204.872C155.81 205.115 156.169 205.381 156.44 205.67L155.138 207.098C154.858 206.865 154.555 206.664 154.228 206.496C153.901 206.328 153.551 206.193 153.178 206.09C152.814 205.987 152.427 205.936 152.016 205.936C151.503 205.936 151.022 206.015 150.574 206.174C150.135 206.333 149.748 206.552 149.412 206.832C149.085 207.112 148.829 207.443 148.642 207.826C148.455 208.209 148.362 208.624 148.362 209.072C148.362 209.595 148.46 210.057 148.656 210.458C148.852 210.859 149.118 211.191 149.454 211.452C149.799 211.704 150.187 211.9 150.616 212.04C151.055 212.171 151.517 212.236 152.002 212.236C152.441 212.236 152.851 212.189 153.234 212.096C153.626 212.003 153.962 211.867 154.242 211.69C154.531 211.513 154.755 211.303 154.914 211.06C155.073 210.817 155.147 210.561 155.138 210.29V210.01L155.418 210.472H151.862V208.736H157.21C157.219 208.867 157.229 209.002 157.238 209.142C157.247 209.282 157.252 209.413 157.252 209.534C157.261 209.646 157.266 209.725 157.266 209.772C157.266 210.481 157.131 211.107 156.86 211.648C156.599 212.18 156.225 212.633 155.74 213.006C155.255 213.379 154.676 213.664 154.004 213.86C153.332 214.047 152.595 214.14 151.792 214.14ZM160.55 214V204.2H168.418V206.048H162.594V212.152H168.516V214H160.55ZM161.614 209.898V208.106H167.746V209.898H161.614ZM177.034 214L181.5 204.2H183.53L187.982 214H185.784L183.138 208.19C183.064 208.003 182.984 207.812 182.9 207.616C182.816 207.42 182.732 207.224 182.648 207.028C182.574 206.823 182.499 206.622 182.424 206.426C182.359 206.221 182.298 206.025 182.242 205.838L182.704 205.824C182.648 206.029 182.583 206.235 182.508 206.44C182.434 206.645 182.354 206.846 182.27 207.042C182.196 207.238 182.116 207.434 182.032 207.63C181.948 207.826 181.864 208.027 181.78 208.232L179.134 214H177.034ZM179.064 212.026L179.778 210.332H185.14L185.588 212.026H179.064ZM190.71 214V204.2H192.67L199.348 211.522H199.04C199.002 211.205 198.965 210.892 198.928 210.584C198.9 210.276 198.876 209.973 198.858 209.674C198.839 209.375 198.82 209.077 198.802 208.778C198.792 208.47 198.783 208.162 198.774 207.854C198.764 207.537 198.76 207.21 198.76 206.874V204.2H200.818V214H198.83L192.04 206.608L192.488 206.622C192.516 206.883 192.544 207.14 192.572 207.392C192.6 207.635 192.623 207.877 192.642 208.12C192.67 208.363 192.688 208.61 192.698 208.862C192.716 209.114 192.73 209.371 192.74 209.632C192.758 209.893 192.768 210.173 192.768 210.472V214H190.71ZM204.874 214V204.2H209.606C210.446 204.2 211.197 204.326 211.86 204.578C212.522 204.83 213.082 205.185 213.54 205.642C214.006 206.09 214.361 206.608 214.604 207.196C214.846 207.784 214.968 208.419 214.968 209.1C214.968 209.781 214.846 210.421 214.604 211.018C214.361 211.615 214.006 212.138 213.54 212.586C213.082 213.034 212.522 213.384 211.86 213.636C211.197 213.879 210.446 214 209.606 214H204.874ZM206.974 212.474L206.75 212.11H209.536C210.086 212.11 210.562 212.031 210.964 211.872C211.374 211.713 211.715 211.499 211.986 211.228C212.256 210.948 212.457 210.626 212.588 210.262C212.718 209.898 212.784 209.511 212.784 209.1C212.784 208.68 212.718 208.293 212.588 207.938C212.457 207.574 212.256 207.257 211.986 206.986C211.715 206.706 211.374 206.487 210.964 206.328C210.562 206.169 210.086 206.09 209.536 206.09H206.708L206.974 205.754V212.474ZM226.971 214V206.09H223.499V204.2H232.641V206.09H229.071V214H226.971ZM235.718 214V204.2H240.926C241.598 204.2 242.19 204.335 242.704 204.606C243.226 204.867 243.632 205.231 243.922 205.698C244.211 206.165 244.356 206.701 244.356 207.308C244.356 207.915 244.202 208.461 243.894 208.946C243.586 209.431 243.166 209.819 242.634 210.108C242.111 210.388 241.523 210.528 240.87 210.528H237.748V214H235.718ZM242.396 214L239.372 209.576L241.57 209.226L244.874 214.014L242.396 214ZM237.748 208.82H240.674C240.963 208.82 241.224 208.759 241.458 208.638C241.691 208.517 241.873 208.349 242.004 208.134C242.144 207.91 242.214 207.663 242.214 207.392C242.214 207.112 242.144 206.869 242.004 206.664C241.864 206.459 241.668 206.3 241.416 206.188C241.164 206.076 240.884 206.02 240.576 206.02H237.748V208.82ZM250.803 214V209.436L251.013 210.374L246.225 204.2H248.829L252.357 208.932L251.419 208.904L254.793 204.2H257.215L252.791 210.192L252.917 209.324V214H250.803ZM265.987 214V204.2H270.719C271.559 204.2 272.31 204.326 272.973 204.578C273.636 204.83 274.196 205.185 274.653 205.642C275.12 206.09 275.474 206.608 275.717 207.196C275.96 207.784 276.081 208.419 276.081 209.1C276.081 209.781 275.96 210.421 275.717 211.018C275.474 211.615 275.12 212.138 274.653 212.586C274.196 213.034 273.636 213.384 272.973 213.636C272.31 213.879 271.559 214 270.719 214H265.987ZM268.087 212.474L267.863 212.11H270.649C271.2 212.11 271.676 212.031 272.077 211.872C272.488 211.713 272.828 211.499 273.099 211.228C273.37 210.948 273.57 210.626 273.701 210.262C273.832 209.898 273.897 209.511 273.897 209.1C273.897 208.68 273.832 208.293 273.701 207.938C273.57 207.574 273.37 207.257 273.099 206.986C272.828 206.706 272.488 206.487 272.077 206.328C271.676 206.169 271.2 206.09 270.649 206.09H267.821L268.087 205.754V212.474ZM279.454 214V204.2H287.322V206.048H281.498V212.152H287.42V214H279.454ZM280.518 209.898V208.106H286.65V209.898H280.518ZM291.116 214V204.2H293.216V212.11H298.9V214H291.116ZM302.328 214V212.138H304.582V206.062H302.328V204.2H308.95V206.062H306.682V212.138H308.95V214H302.328ZM316.097 214L311.813 204.2H314.025L316.251 209.436C316.326 209.623 316.41 209.833 316.503 210.066C316.606 210.299 316.713 210.547 316.825 210.808C316.937 211.069 317.04 211.335 317.133 211.606C317.236 211.867 317.324 212.124 317.399 212.376L316.937 212.39C317.04 212.063 317.156 211.737 317.287 211.41C317.418 211.074 317.548 210.743 317.679 210.416C317.819 210.089 317.95 209.767 318.071 209.45L320.171 204.2H322.383L318.155 214H316.097ZM325.186 214V204.2H333.054V206.048H327.23V212.152H333.152V214H325.186ZM326.25 209.898V208.106H332.382V209.898H326.25ZM336.848 214V204.2H342.056C342.728 204.2 343.321 204.335 343.834 204.606C344.357 204.867 344.763 205.231 345.052 205.698C345.342 206.165 345.486 206.701 345.486 207.308C345.486 207.915 345.332 208.461 345.024 208.946C344.716 209.431 344.296 209.819 343.764 210.108C343.242 210.388 342.654 210.528 342 210.528H338.878V214H336.848ZM343.526 214L340.502 209.576L342.7 209.226L346.004 214.014L343.526 214ZM338.878 208.82H341.804C342.094 208.82 342.355 208.759 342.588 208.638C342.822 208.517 343.004 208.349 343.134 208.134C343.274 207.91 343.344 207.663 343.344 207.392C343.344 207.112 343.274 206.869 343.134 206.664C342.994 206.459 342.798 206.3 342.546 206.188C342.294 206.076 342.014 206.02 341.706 206.02H338.878V208.82ZM351.934 214V209.436L352.144 210.374L347.356 204.2H349.96L353.488 208.932L352.55 208.904L355.924 204.2H358.346L353.922 210.192L354.048 209.324V214H351.934ZM100.239 232L104.705 222.2H106.735L111.187 232H108.989L106.343 226.19C106.269 226.003 106.189 225.812 106.105 225.616C106.021 225.42 105.937 225.224 105.853 225.028C105.779 224.823 105.704 224.622 105.629 224.426C105.564 224.221 105.503 224.025 105.447 223.838L105.909 223.824C105.853 224.029 105.788 224.235 105.713 224.44C105.639 224.645 105.559 224.846 105.475 225.042C105.401 225.238 105.321 225.434 105.237 225.63C105.153 225.826 105.069 226.027 104.985 226.232L102.339 232H100.239ZM102.269 230.026L102.983 228.332H108.345L108.793 230.026H102.269ZM115.71 232V224.09H112.238V222.2H121.38V224.09H117.81V232H115.71ZM129.278 232L133.744 222.2H135.774L140.226 232H138.028L135.382 226.19C135.308 226.003 135.228 225.812 135.144 225.616C135.06 225.42 134.976 225.224 134.892 225.028C134.818 224.823 134.743 224.622 134.668 224.426C134.603 224.221 134.542 224.025 134.486 223.838L134.948 223.824C134.892 224.029 134.827 224.235 134.752 224.44C134.678 224.645 134.598 224.846 134.514 225.042C134.44 225.238 134.36 225.434 134.276 225.63C134.192 225.826 134.108 226.027 134.024 226.232L131.378 232H129.278ZM131.308 230.026L132.022 228.332H137.384L137.832 230.026H131.308ZM149.093 232V222.2H151.011L155.155 227.828H154.007L158.165 222.2H160.055V232H157.997V228.556C157.997 227.753 158.015 227.016 158.053 226.344C158.09 225.663 158.165 224.977 158.277 224.286L158.501 224.972L155.029 229.48H154.105L150.633 224.972L150.871 224.286C150.973 224.958 151.043 225.635 151.081 226.316C151.127 226.988 151.151 227.735 151.151 228.556V232H149.093ZM164.174 232V230.138H166.428V224.062H164.174V222.2H170.796V224.062H168.528V230.138H170.796V232H164.174ZM174.919 232V222.2H176.879L183.557 229.522H183.249C183.211 229.205 183.174 228.892 183.137 228.584C183.109 228.276 183.085 227.973 183.067 227.674C183.048 227.375 183.029 227.077 183.011 226.778C183.001 226.47 182.992 226.162 182.983 225.854C182.973 225.537 182.969 225.21 182.969 224.874V222.2H185.027V232H183.039L176.249 224.608L176.697 224.622C176.725 224.883 176.753 225.14 176.781 225.392C176.809 225.635 176.832 225.877 176.851 226.12C176.879 226.363 176.897 226.61 176.907 226.862C176.925 227.114 176.939 227.371 176.949 227.632C176.967 227.893 176.977 228.173 176.977 228.472V232H174.919ZM189.139 232V230.138H191.393V224.062H189.139V222.2H195.761V224.062H193.493V230.138H195.761V232H189.139ZM199.884 232V222.2H201.802L205.946 227.828H204.798L208.956 222.2H210.846V232H208.788V228.556C208.788 227.753 208.806 227.016 208.844 226.344C208.881 225.663 208.956 224.977 209.068 224.286L209.292 224.972L205.82 229.48H204.896L201.424 224.972L201.662 224.286C201.764 224.958 201.834 225.635 201.872 226.316C201.918 226.988 201.942 227.735 201.942 228.556V232H199.884ZM219.543 232.084C218.6 232.084 217.774 231.893 217.065 231.51C216.356 231.118 215.8 230.591 215.399 229.928C214.998 229.256 214.797 228.495 214.797 227.646V222.186H216.911V227.562C216.911 228.066 217.028 228.514 217.261 228.906C217.494 229.298 217.807 229.611 218.199 229.844C218.6 230.068 219.048 230.18 219.543 230.18C220.056 230.18 220.514 230.068 220.915 229.844C221.326 229.611 221.648 229.298 221.881 228.906C222.114 228.514 222.231 228.066 222.231 227.562V222.186H224.275V227.646C224.275 228.495 224.074 229.256 223.673 229.928C223.272 230.591 222.716 231.118 222.007 231.51C221.298 231.893 220.476 232.084 219.543 232.084ZM228.239 232V222.2H230.157L234.301 227.828H233.153L237.311 222.2H239.201V232H237.143V228.556C237.143 227.753 237.162 227.016 237.199 226.344C237.236 225.663 237.311 224.977 237.423 224.286L237.647 224.972L234.175 229.48H233.251L229.779 224.972L230.017 224.286C230.12 224.958 230.19 225.635 230.227 226.316C230.274 226.988 230.297 227.735 230.297 228.556V232H228.239ZM249.403 232V222.2H254.667C255.274 222.2 255.824 222.34 256.319 222.62C256.823 222.891 257.224 223.264 257.523 223.74C257.822 224.216 257.971 224.753 257.971 225.35C257.971 225.975 257.812 226.54 257.495 227.044C257.187 227.539 256.767 227.931 256.235 228.22C255.712 228.509 255.129 228.654 254.485 228.654H251.503V232H249.403ZM251.475 226.764H254.177C254.466 226.764 254.732 226.703 254.975 226.582C255.218 226.461 255.409 226.293 255.549 226.078C255.689 225.863 255.759 225.625 255.759 225.364C255.759 225.112 255.689 224.893 255.549 224.706C255.409 224.51 255.218 224.361 254.975 224.258C254.732 224.146 254.466 224.09 254.177 224.09H251.475V226.764ZM261.407 232V222.2H266.615C267.287 222.2 267.88 222.335 268.393 222.606C268.916 222.867 269.322 223.231 269.611 223.698C269.9 224.165 270.045 224.701 270.045 225.308C270.045 225.915 269.891 226.461 269.583 226.946C269.275 227.431 268.855 227.819 268.323 228.108C267.8 228.388 267.212 228.528 266.559 228.528H263.437V232H261.407ZM268.085 232L265.061 227.576L267.259 227.226L270.563 232.014L268.085 232ZM263.437 226.82H266.363C266.652 226.82 266.914 226.759 267.147 226.638C267.38 226.517 267.562 226.349 267.693 226.134C267.833 225.91 267.903 225.663 267.903 225.392C267.903 225.112 267.833 224.869 267.693 224.664C267.553 224.459 267.357 224.3 267.105 224.188C266.853 224.076 266.573 224.02 266.265 224.02H263.437V226.82ZM274.096 232V230.138H276.35V224.062H274.096V222.2H280.718V224.062H278.45V230.138H280.718V232H274.096ZM289.521 232.14C288.737 232.14 288.005 232.023 287.323 231.79C286.651 231.547 286.063 231.202 285.559 230.754C285.055 230.297 284.659 229.755 284.369 229.13C284.089 228.505 283.949 227.819 283.949 227.072C283.949 226.344 284.094 225.677 284.383 225.07C284.673 224.454 285.069 223.917 285.573 223.46C286.087 223.003 286.679 222.653 287.351 222.41C288.033 222.167 288.765 222.046 289.549 222.046C290.119 222.046 290.669 222.116 291.201 222.256C291.733 222.396 292.219 222.583 292.657 222.816C293.105 223.049 293.483 223.315 293.791 223.614L292.545 225.224C292.275 224.991 291.985 224.785 291.677 224.608C291.379 224.421 291.043 224.277 290.669 224.174C290.305 224.062 289.899 224.006 289.451 224.006C289.022 224.006 288.607 224.076 288.205 224.216C287.813 224.356 287.459 224.561 287.141 224.832C286.824 225.093 286.567 225.415 286.371 225.798C286.185 226.181 286.091 226.61 286.091 227.086C286.091 227.581 286.189 228.024 286.385 228.416C286.581 228.799 286.847 229.125 287.183 229.396C287.519 229.657 287.902 229.858 288.331 229.998C288.77 230.129 289.232 230.194 289.717 230.194C290.165 230.194 290.571 230.133 290.935 230.012C291.309 229.881 291.645 229.727 291.943 229.55C292.242 229.363 292.503 229.172 292.727 228.976L293.735 230.628C293.483 230.861 293.138 231.095 292.699 231.328C292.27 231.561 291.78 231.757 291.229 231.916C290.679 232.065 290.109 232.14 289.521 232.14ZM296.981 232V222.2H304.849V224.048H299.025V230.152H304.947V232H296.981ZM298.045 227.898V226.106H304.177V227.898H298.045Z" fill="#F5EBD8"/>
</svg>
